<svg width="800" height="800"    xmlns:xlink="http://www.w3.org/1999/xlink" style="stroke:black; stroke-opacity:1; stroke-width:1;"  xmlns="http://www.w3.org/2000/svg"> <defs id = "genericDefs"/>"<g> <path style = "fill:none;" d = "   M 338.728 251.0527  L 348.728 261.0527   M 392.158 208.632  L 402.158 218.632   M 318.0413 260.3756  L 328.0413 270.3756   M 396.5485 195.9068  L 406.5485 205.9068   M 374.3489 222.7215  L 384.3489 232.7215   M 435.9906 185.8008  L 445.9906 195.8008   M 360.6893 230.7753  L 370.6893 240.7753   M 436.2271 166.7646  L 446.2271 176.7646   M 388.7537 176.6459  L 398.7537 186.6459   M 417.2742 188.0235  L 427.2742 198.0235   M 402.9011 184.9529  L 412.9011 194.9529   M 366.1607 206.0424  L 376.1607 216.0424   M 314.7839 244.9494  L 324.7839 254.9494   M 448.6163 168.1209  L 458.6163 178.1209   M 462.4576 164.8046  L 472.4576 174.8046   M 402.7363 166.0717  L 412.7363 176.0717   M 456.1573 152.8319  L 466.1573 162.8319   M 307.2643 225.9848  L 317.2643 235.9848   M 384.1407 189.2179  L 394.1407 199.2179   M 413.7735 172.3492  L 423.7735 182.3492   M 375.6919 171.3631  L 385.6919 181.3631   M 478.4118 149.5089  L 488.4118 159.5089   M 341.571 235.54  L 351.571 245.54   M 477.1781 162.4087  L 487.1781 172.4087   M 440.4996 146.5072  L 450.4996 156.5072   M 496.0257 152.9215  L 506.0257 162.9215   M 411.9991 155.9137  L 421.9991 165.9137   M 327.3942 245.4375  L 337.3942 255.4375   M 387.3236 160.268  L 397.3236 170.268   M 266.4891 315.2925  L 276.4891 325.2925   M 508.5061 150.4078  L 518.5061 160.4078   M 424.3223 141.6342  L 434.3223 151.6342   M 492.3876 136.3622  L 502.3876 146.3622   M 343.6834 217.0997  L 353.6834 227.0997   M 424.1478 161.954  L 434.1478 171.954   M 463.1576 141.9647  L 473.1576 151.9647   M 516.2859 139.4564  L 526.2859 149.4564   M 329.2755 225.2149  L 339.2755 235.2149   M 358.9113 183.6089  L 368.9113 193.6089   M 322.6531 203.5132  L 332.6531 213.5132   M 346.8662 198.4587  L 356.8662 208.4587   M 500.302 124.0369  L 510.302 134.0369   M 366.7403 159.7139  L 376.7403 169.7139   M 354.6723 211.1048  L 364.6723 221.1048   M 426.1573 175.1751  L 436.1573 185.1751   M 516.41 123.6729  L 526.41 133.6729   M 353.3144 241.7312  L 363.3144 251.7312   M 473.1816 128.757  L 483.1816 138.757   M 344.2672 174.1343  L 354.2672 184.1343   M 370.4739 188.5849  L 380.4739 198.5849   M 411.5125 142.5473  L 421.5125 152.5473   M 487.9813 112.0089  L 497.9813 122.0089   M 353.9391 163.5141  L 363.9391 173.5141   M 395.5739 149.2047  L 405.5739 159.2047   M 272.1364 288.4427  L 282.1364 298.4427   M 254.529 275.1855  L 264.529 285.1855   M 336.4441 187.5311  L 346.4441 197.5311   M 207.9621 374.2686  L 217.9621 384.2686   M 379.036 205.8011  L 389.036 215.8011   M 585.1379 135.4032  L 595.1379 145.4032   M 533.7032 136.9584  L 543.7032 146.9584   M 289.1099 273.6792  L 299.1099 283.6792   M 301.181 267.7122  L 311.181 277.7122   M 330.2056 174.011  L 340.2056 184.011   M 244.8851 338.4348  L 254.8851 348.4348   M 509.9341 106.517  L 519.9341 116.517   M 190.489 366.9956  L 200.489 376.9956   M 335.7112 206.5164  L 345.7112 216.5164   M 266.8025 300.3018  L 276.8025 310.3018   M 295.9916 241.9515  L 305.9916 251.9515   M 283.5479 226.7676  L 293.5479 236.7676   M 249.3606 303.0564  L 259.3606 313.0564   M 536.3396 120.1707  L 546.3396 130.1707   M 311.7052 209.7464  L 321.7052 219.7464   M 290.2876 212.1724  L 300.2876 222.1724   M 303.2149 191.3892  L 313.2149 201.3892   M 324.054 190.6631  L 334.054 200.6631   M 200.2637 392.8664  L 210.2637 402.8664   M 199.8856 411.0775  L 209.8856 421.0775   M 393.6964 126.8784  L 403.6964 136.8784   M 317.1794 169.8524  L 327.1794 179.8524   M 218.8088 367.741  L 228.8088 377.741   M 176.8534 427.8203  L 186.8534 437.8203   M 303.4935 252.3123  L 313.4935 262.3123   M 313.5281 183.6645  L 323.5281 193.6645   M 524.598 103.4027  L 534.598 113.4027   M 279.897 259.7476  L 289.897 269.7476   M 449.5648 127.1524  L 459.5648 137.1524   M 261.2956 250.9927  L 271.2956 260.9927   M 281.1036 246.7156  L 291.1036 256.7156   M 459.5896 119.3125  L 469.5896 129.3125   M 375.5625 143.8177  L 385.5625 153.8177   M 434.6047 124.8309  L 444.6047 134.8309   M 468.0062 105.8075  L 478.0062 115.8075   M 296.7794 158.764  L 306.7794 168.764   M 256.4305 326.6361  L 266.4305 336.6361   M 132.2016 505.8261  L 142.2016 515.8262   M 124.7251 522.364  L 134.7251 532.364   M 333.3173 160.2603  L 343.3173 170.2603   M 143.9457 484.8057  L 153.9457 494.8057   M 186.2391 394.6559  L 196.2391 404.6559   M 192.035 381.4594  L 202.035 391.4594   M 400.7298 111.857  L 410.7298 121.857   M 171.3625 386.3351  L 181.3625 396.3351   M 245.771 290.6354  L 255.771 300.6354   M 453.3774 108.5302  L 463.3774 118.5302   M 246.9434 316.1786  L 256.9434 326.1786   M 408.5675 122.8212  L 418.5675 132.8212   M 155.2442 429.3343  L 165.2442 439.3343   M 272.8076 236.1984  L 282.8076 246.1984   M 638.5942 119.667  L 648.5942 129.667   M 329.7567 143.4308  L 339.7567 153.4308   M 458.645 92.05379  L 468.645 102.0538   M 227.8931 335.0069  L 237.8931 345.0069   M 172.8058 406.1536  L 182.8058 416.1536   M 566.2747 140.7809  L 576.2747 150.7809   M 212.8567 341.4484  L 222.8567 351.4484   M 276.7167 271.7813  L 286.7167 281.7813   M 348.6973 150.8433  L 358.6973 160.8433   M 310.3308 153.9411  L 320.3308 163.9411   M 174.5525 370.0542  L 184.5525 380.0542   M 293.5753 183.4474  L 303.5753 193.4474   M 186.3851 409.2979  L 196.3851 419.2979   M 263.8732 263.2272  L 273.8732 273.2272   M 522.5379 87.07081  L 532.5379 97.07081   M 222.1281 296.1313  L 232.1281 306.1313   M 228.6779 355.5655  L 238.6779 365.5655   M 445.6427 96.78418  L 455.6427 106.7842   M 133.8856 538.5006  L 143.8856 548.5006   M 115.7978 539.1146  L 125.7978 549.1146   M 161.5355 412.9007  L 171.5355 422.9007   M 522.7017 70.39464  L 532.7017 80.39464   M 508.8272 87.45462  L 518.8273 97.45462   M 379.9915 128.3686  L 389.9915 138.3686   M 377.542 110.1533  L 387.542 120.1533   M 557.0007 130.3851  L 567.0007 140.3851   M 215.9833 326.5273  L 225.9833 336.5273   M 538.9657 98.87959  L 548.9657 108.8796   M 195.1049 333.3842  L 205.1049 343.3842   M 475.0239 90.7007  L 485.0239 100.7007   M 593.8833 112.136  L 603.8833 122.136   M 231.2157 286.8177  L 241.2157 296.8177   M 510.6442 74.79495  L 520.6442 84.79495   M 275.43 203.1311  L 285.43 213.1311   M 213.2253 355.4812  L 223.2253 365.4812   M 232.6325 305.8845  L 242.6325 315.8845   M 194.833 317.1147  L 204.833 327.1147   M 200.3532 358.5723  L 210.3532 368.5723   M 229.8647 319.33  L 239.8647 329.33   M 417.2155 109.7229  L 427.2155 119.7229   M 157.8204 470.1456  L 167.8204 480.1456   M 343.6488 137.9753  L 353.6488 147.9753   M 575.7873 120.5128  L 585.7873 130.5128   M 169.3293 347.9511  L 179.3293 357.9511   M 607.106 108.1709  L 617.106 118.1709   M 605.6041 91.74171  L 615.6041 101.7417   M 547.3503 86.14775  L 557.3503 96.14775   M 224.1753 276.0875  L 234.1753 286.0875   M 330.2829 124.435  L 340.2829 134.435   M 605.5915 68.9747  L 615.5915 78.9747   M 193.2218 347.4275  L 203.2218 357.4275   M 539.5198 69.23425  L 549.5198 79.23425   M 124.4539 576.3132  L 134.4539 586.3132   M 218.4916 310.6438  L 228.4916 320.6438   M 560.6357 84.00993  L 570.6357 94.00993   M 334.3542 102.3452  L 344.3542 112.3452   M 168.8741 442.7599  L 178.8741 452.7599   M 491.5062 99.54485  L 501.5062 109.5448   M 552.1754 67.74794  L 562.1754 77.74794   M 560.0046 104.7834  L 570.0046 114.7834   M 408.8937 98.82404  L 418.8937 108.824   M 365.0524 119.0306  L 375.0524 129.0305   M 197.0662 300.5717  L 207.0662 310.5717   M 243.3658 351.1194  L 253.3658 361.1194   M 617.8972 118.8323  L 627.8972 128.8323   M 113.7849 614.3118  L 123.7849 624.3118   M 145.6303 418.9583  L 155.6303 428.9583   M 263.0219 225.5258  L 273.0219 235.5258   M 424.1704 83.02576  L 434.1704 93.02576   M 576.9443 97.67949  L 586.9443 107.6795   M 534.843 83.51491  L 544.843 93.51491   M 490.2219 83.66216  L 500.2219 93.66216   M 406.1488 74.35716  L 416.1488 84.35716   M 389.2657 88.32417  L 399.2657 98.32417   M 245.4146 237.7065  L 255.4146 247.7065   M 353.5212 110.5778  L 363.5212 120.5778   M 631.085 104.7733  L 641.085 114.7733   M 588.3228 89.63672  L 598.3228 99.63672   M 618.3698 100.2493  L 628.3698 110.2493   M 240.9637 220.1439  L 250.9637 230.1439   M 137.1966 469.9337  L 147.1966 479.9337   M 160.9455 456.0078  L 170.9455 466.0078   M 444.7238 80.28188  L 454.7238 90.28188   M 389.9312 101.606  L 399.9312 111.606   M 198.7665 280.6767  L 208.7665 290.6767   M 346.7913 95.10123  L 356.7913 105.1012   M 221.1012 217.2915  L 231.1012 227.2915   M 185.3564 279.3525  L 195.3564 289.3525   M 181.5364 329.9668  L 191.5364 339.9668   M 619.6731 82.81458  L 629.6731 92.81458   M 316.0582 130.615  L 326.0582 140.615   M 178.8016 306.0839  L 188.8016 316.0839   M 377.1702 95.44598  L 387.1702 105.446   M 293.4363 138.2655  L 303.4363 148.2655   M 277.1396 215.76  L 287.1396 225.76   M 344.608 124.9097  L 354.608 134.9097   M 124.1313 555.1427  L 134.1313 565.1427   M 578.1965 81.66039  L 588.1965 91.66039   M 291.9907 197.1552  L 301.9907 207.1552   M 150.1774 387.281  L 160.1774 397.281   M 361.1768 144.2566  L 371.1768 154.2566   M 639.4543 76.37715  L 649.4543 86.37715   M 175.68 293.1037  L 185.68 303.1037   M 249.5564 261.1014  L 259.5564 271.1014   M 110.7169 509.8615  L 120.7169 519.8615   M 192.4949 264.4054  L 202.4949 274.4054   M 231.7592 256.7672  L 241.7592 266.7672   M 306.5279 141.5067  L 316.5279 151.5067   M 302.7835 172.7802  L 312.7835 182.7802   M 564.1976 60.44143  L 574.1976 70.44144   M 467.5218 74.20497  L 477.5218 84.20497   M 109.6503 579.9313  L 119.6503 589.9313   M 228.1486 238.2711  L 238.1486 248.2711   M 258.7319 208.0669  L 268.7319 218.0669   M 208.4801 271.1876  L 218.4801 281.1876   M 121.1582 472.0257  L 131.1582 482.0257   M 263.634 186.73  L 273.634 196.73   M 181.131 355.3195  L 191.131 365.3195   M 157.1179 398.1662  L 167.1179 408.1662   M 646.472 99.47504  L 656.472 109.475   M 138.9389 457.1132  L 148.9389 467.1132   M 252.2226 194.4137  L 262.2226 204.4137   M 597.7736 81.02948  L 607.7736 91.02948   M 233.6053 203.3984  L 243.6053 213.3984   M 381.0455 78.07137  L 391.0455 88.07137   M 206.4229 290.9648  L 216.4229 300.9648   M 220.9136 192.6741  L 230.9136 202.6741   M 169.0491 315.146  L 179.0491 325.146   M 205.8129 310.9646  L 215.8129 320.9646   M 279.9766 189.9308  L 289.9766 199.9308   M 205.7358 257.7988  L 215.7358 267.7988   M 432.1844 110.015  L 442.1844 120.015   M 496.1099 68.2184  L 506.1099 78.2184   M 312.6442 107.1544  L 322.6442 117.1544   M 518.0422 55.5782  L 528.0422 65.5782   M 239.0576 269.2076  L 249.0576 279.2076   M 125.3677 425.5851  L 135.3677 435.5851   M 497.7493 52.84114  L 507.7493 62.84114   M 424.8422 99.6675  L 434.8422 109.6675   M 475.5214 63.89353  L 485.5214 73.89352   M 103.1406 557.4681  L 113.1406 567.4681   M 736.0201 146.6959  L 746.0201 156.6959   M 116.3022 564.8206  L 126.3022 574.8206   M 439.6864 63.82552  L 449.6864 73.82552   M 158.0315 366.6453  L 168.0315 376.6453   M 121.5576 705.7797  L 131.5576 715.7797   M 151.6114 447.0201  L 161.6114 457.0201   M 283.5834 175.9546  L 293.5834 185.9546   M 295.1271 124.3271  L 305.1271 134.3271   M 161.8888 325.5128  L 171.8888 335.5128   M 89.12962 566.5226  L 99.12962 576.5226   M 233.6385 189.401  L 243.6385 199.401   M 658.0705 104.3608  L 668.0705 114.3608   M 137.1666 388.0547  L 147.1666 398.0547   M 136.074 357.6726  L 146.074 367.6726   M 637.7589 89.8812  L 647.7589 99.8812   M 458.7643 60.80949  L 468.7643 70.80949   M 138.3837 438.7283  L 148.3837 448.7283   M 285.5482 148.8338  L 295.5482 158.8338   M 427.1307 62.37876  L 437.1307 72.37876   M 276.2971 162.5201  L 286.2971 172.5201   M 107.0221 660.2161  L 117.0221 670.2161   M 160.8511 293.1522  L 170.8511 303.1522   M 104.1858 591.5782  L 114.1858 601.5782   M 261.833 173.3852  L 271.833 183.3852   M 149.0072 357.8773  L 159.0072 367.8773   M 587.827 70.94987  L 597.827 80.94987   M 667.7571 95.80141  L 677.7571 105.8014   M 145.9547 309.5157  L 155.9547 319.5157   M 118.3555 493.5633  L 128.3555 503.5633   M 262.3566 153.8867  L 272.3566 163.8867   M 109.2569 463.1138  L 119.2569 473.1138   M 97.1619 615.8851  L 107.1619 625.8851   M 250.3369 180.838  L 260.3369 190.838   M 365.4655 105.078  L 375.4655 115.078   M 583.3408 59.19007  L 593.3408 69.19007   M 130.0159 481.8406  L 140.0159 491.8406   M 116.8163 628.3701  L 126.8163 638.3701   M 241.3138 158.3248  L 251.3138 168.3248   M 360.5294 87.72092  L 370.5294 97.72092   M 189.3557 251.9173  L 199.3557 261.9173   M 89.13387 592.3593  L 99.13387 602.3593   M 530.1262 59.75164  L 540.1262 69.75165   M 79.98289 605.3887  L 89.98289 615.3887   M 78.50923 556.3806  L 88.50923 566.3806   M 550.2072 54.07214  L 560.2072 64.07214   M 732.2635 131.8302  L 742.2635 141.8302   M 325.7387 111.9197  L 335.7387 121.9197   M 105.4328 640.0156  L 115.4328 650.0156   M 97.89344 575.7601  L 107.8934 585.7601   M 93.38589 548.4229  L 103.3859 558.4229   M 308.3895 119.3198  L 318.3895 129.3199   M 357.8264 129.9565  L 367.8264 139.9565   M 104.207 627.5706  L 114.207 637.5706   M 76.59381 584.4164  L 86.59381 594.4164   M 279.3795 137.2775  L 289.3795 147.2775   M 141.8763 374.3389  L 151.8763 384.3389   M 218.1483 261.3706  L 228.1483 271.3706   M 127.819 371.602  L 137.819 381.602   M 387.8314 139.1169  L 397.8314 149.1169   M 222.1426 176.9265  L 232.1426 186.9265   M 205.5301 234.4782  L 215.5301 244.4782   M 624.5568 68.27068  L 634.5568 78.27068   M 155.9438 345.7416  L 165.9438 355.7416   M 73.04105 569.4235  L 83.04105 579.4235   M 139.524 292.269  L 149.524 302.269   M 243.1452 142.412  L 253.1452 152.412   M 552.3629 115.3978  L 562.3629 125.3978   M 710.7557 133.8725  L 720.7557 143.8725   M 148.0737 327.1442  L 158.0737 337.1442   M 97.45251 536.3428  L 107.4525 546.3428   M 671.9323 127.1611  L 681.9323 137.1611   M 121.1388 445.9389  L 131.1388 455.9389   M 171.9525 268.7327  L 181.9525 278.7327   M 76.25627 537.8428  L 86.25627 547.8428   M 120.2276 382.0173  L 130.2276 392.0173   M 195.1954 214.3507  L 205.1954 224.3507   M 98.00762 602.6728  L 108.0076 612.6728   M 687.4101 130.8354  L 697.4101 140.8354   M 109.2353 717.3975  L 119.2353 727.3975   M 114.7681 358.7218  L 124.7681 368.7218   M 455.0002 72.97906  L 465.0002 82.97906   M 701.8677 125.0066  L 711.8677 135.0066   M 484.9739 55.17084  L 494.9739 65.17084   M 162.3307 279.6121  L 172.3307 289.6121   M 166.44 256.8121  L 176.44 266.8121   M 258.2577 141.927  L 268.2577 151.927   M 231.5329 166.8992  L 241.5329 176.8992   M 95.40721 490.9723  L 105.4072 500.9723   M 206.1732 203.8267  L 216.1732 213.8267   M 153.6771 267.5609  L 163.6771 277.5609   M 192.8433 235.6955  L 202.8433 245.6955   M 668.4565 114.0547  L 678.4565 124.0547   M 683.4084 116.6511  L 693.4084 126.6511   M 654.3016 119.7582  L 664.3016 129.7582   M 84.15205 620.9277  L 94.15205 630.9277   M 720.4636 115.885  L 730.4636 125.885   M 142.7952 251.4694  L 152.7952 261.4694   M 106.6126 702.4371  L 116.6126 712.4371   M 91.2748 475.9541  L 101.2748 485.9541   M 93.467 653.2518  L 103.467 663.2518   M 655.1976 85.44206  L 665.1976 95.44206   M 214.171 247.9802  L 224.171 257.9802   M 106.6811 445.5984  L 116.6811 455.5984   M 176.4181 239.6489  L 186.4181 249.6489   M 185.2082 224.3027  L 195.2082 234.3027   M 139.1423 407.3295  L 149.1423 417.3295   M 695.2513 105.9669  L 705.2513 115.9669   M 122.8224 403.9284  L 132.8224 413.9284   M 111.0511 483.0737  L 121.0511 493.0737   M 117.96 726.8558  L 127.96 736.8558   M 110.2613 429.2823  L 120.2613 439.2823   M 201.6963 182.3201  L 211.6963 192.3201   M 773.1469 164.2671  L 783.1469 174.2671   M 160.2768 379.0951  L 170.2768 389.0951   M 108.8364 522.8736  L 118.8364 532.8736   M 94.95378 516.7321  L 104.9538 526.7321   M 111.7023 409.8333  L 121.7023 419.8333   M 264.2112 128.7233  L 274.2112 138.7233   M 100.6412 371.8524  L 110.6412 381.8524   M 801.2007 175.2937  L 811.2007 185.2937   M 136.2215 343.8834  L 146.2215 353.8834   M 134.1174 280.8389  L 144.1174 290.8389   M 111.1493 395.6649  L 121.1493 405.6649   M 178.7832 206.0358  L 188.7832 216.0358   M 78.10357 485.7903  L 88.10357 495.7903   M 98.15724 386.614  L 108.1572 396.614   M 76.34532 503.3954  L 86.34532 513.3954   M 79.99333 524.3956  L 89.99333 534.3956   M 89.86028 502.9713  L 99.86028 512.9713   M 196.2291 193.9568  L 206.2291 203.9568   M 747.951 140.0373  L 757.951 150.0373   M 73.95036 472.4171  L 83.95036 482.4171   M 97.88213 677.4069  L 107.8821 687.4069   M 766.7932 153.5019  L 776.7932 163.5019   M 89.6408 397.4393  L 99.6408 407.4393   M 710.9728 101.5617  L 720.9728 111.5617   M 98.62891 406.3684  L 108.6289 416.3684   M 85.36449 365.0186  L 95.36449 375.0186   M 81.84899 380.6605  L 91.84899 390.6605   M 280.4731 121.3041  L 290.4731 131.3041   M 128.7644 326.5605  L 138.7644 336.5605   M 164.7264 229.5058  L 174.7264 239.5058   M 127.7909 307.1458  L 137.7909 317.1458   M 680.9818 96.59259  L 690.9818 106.5926   M 62.89563 516.6698  L 72.89563 526.6698   M 573.3408 69.71548  L 583.3408 79.71548   M 156.1334 242.3586  L 166.1334 252.3586   M 109.8612 313.3405  L 119.8612 323.3405   M 786.7129 158.2132  L 796.7129 168.2132   M 89.83881 459.9744  L 99.83881 469.9744   M 76.49352 454.0395  L 86.49352 464.0395   M 138.7151 263.7428  L 148.7151 273.7428   M 78.22887 415.4699  L 88.22887 425.4699   M 92.5732 417.5105  L 102.5732 427.5105   M 87.29549 634.9245  L 97.29549 644.9245   M 743.8109 123.521  L 753.8109 133.521   M 65.8982 482.7331  L 75.8982 492.7331   M 84.26762 439.4441  L 94.26762 449.4441   M 207.865 216.3825  L 217.865 226.3825   M 761.1675 141.5762  L 771.1675 151.5762   M 100.4631 347.4214  L 110.4631 357.4214   M 112.9686 331.5186  L 122.9686 341.5186   M 62.66975 500.0741  L 72.66975 510.0741   M 217.7185 230.9697  L 227.7185 240.9697   M 120.3798 345.7155  L 130.3798 355.7155   M 298.0502 111.6905  L 308.0502 121.6905   M 148.7277 282.0138  L 158.7277 292.0138   M 104.2422 689.457  L 114.2422 699.457   M 73.42301 430.7433  L 83.423 440.7433   M 77.04521 402.3526  L 87.04521 412.3526   M 95.96857 434.869  L 105.9686 444.869   M 500.526 199.2729  L 510.526 209.2729   M 458.1511 226.7735  L 468.1511 236.7735   M 541.058 190.8681  L 551.058 200.8681   M 531.266 175.2559  L 541.266 185.2559   M 239.4614 418.5406  L 249.4614 428.5406   M 349.2622 298.0637  L 359.2622 308.0637   M 469.8543 187.6905  L 479.8543 197.6905   M 302.1444 324.4241  L 312.1444 334.4241   M 514.464 185.0474  L 524.464 195.0474   M 342.8008 281.907  L 352.8008 291.907   M 245.4356 393.9736  L 255.4356 403.9736   M 412.7934 254.3193  L 422.7934 264.3193   M 225.2564 367.9884  L 235.2564 377.9884   M 321.2387 301.1428  L 331.2387 311.1428   M 171.5035 510.358  L 181.5035 520.358   M 251.6542 354.3264  L 261.6542 364.3264   M 229.7369 386.1073  L 239.7369 396.1073   M 437.2952 223.3794  L 447.2952 233.3794   M 146.4691 526.8746  L 156.4691 536.8746   M 399.729 265.8424  L 409.729 275.8424   M 463.6072 208.1916  L 473.6072 218.1916   M 393.0575 234.7155  L 403.0575 244.7155   M 449.3996 193.8762  L 459.3996 203.8762   M 433.242 204.8861  L 443.242 214.8861   M 351.5368 263.9925  L 361.5368 273.9925   M 223.8662 446.8848  L 233.8662 456.8848   M 274.2595 365.4536  L 284.2595 375.4536   M 382.7905 250.5236  L 392.7905 260.5236   M 490.6476 183.8805  L 500.6476 193.8805   M 517.8778 157.533  L 527.8778 167.533   M 259.1948 383.4402  L 269.1948 393.4402   M 216.7919 420.0344  L 226.7919 430.0344   M 280.8578 348.7452  L 290.8578 358.7452   M 294.1184 307.3651  L 304.1184 317.3651   M 414.9066 224.7726  L 424.9066 234.7726   M 132.3697 548.0172  L 142.3697 558.0172   M 196.3062 459.8183  L 206.3062 469.8183   M 369.4809 262.5372  L 379.4809 272.5372   M 159.8466 543.3724  L 169.8466 553.3724   M 267.0056 338.7476  L 277.0056 348.7476   M 181.8381 488.883  L 191.8381 498.883   M 195.2078 433.3055  L 205.2078 443.3055   M 367.8882 241.2622  L 377.8882 251.2622   M 150.4215 575.0458  L 160.4215 585.0458   M 544.2889 163.1361  L 554.2889 173.1361   M 133.2574 659.9213  L 143.2574 669.9213   M 147.4066 635.5792  L 157.4066 645.5792   M 246.2189 371.6453  L 256.2189 381.6453   M 152.6021 615.4424  L 162.6021 625.4424   M 586.0113 169.3078  L 596.0113 179.3078   M 147.7558 595.316  L 157.7558 605.316   M 129.7033 602.145  L 139.7033 612.145   M 176.3853 469.1176  L 186.3853 479.1176   M 139.7712 691.4673  L 149.7712 701.4673   M 152.5626 504.5398  L 162.5626 514.5398   M 278.7584 325.7241  L 288.7584 335.7241   M 562 162.2227  L 572 172.2227   M 608.3471 168.6191  L 618.3471 178.6191   M 133.5739 578.8278  L 143.5739 588.8278   M 640.7962 157.4545  L 650.7962 167.4545   M 169.0126 527.9501  L 179.0126 537.9501   M 132.7379 621.8217  L 142.7379 631.8217   M 361.054 279.6018  L 371.054 289.6018   M 135.3875 749.4993  L 145.3875 759.4993   M 332.4496 260.6039  L 342.4496 270.6039   M 223.4697 403.9846  L 233.4697 413.9846   M 579.4903 148.0779  L 589.4903 158.0779   M 125.4186 644.6346  L 135.4186 654.6346   M 679.8693 146.9635  L 689.8693 156.9635   M 609.9679 147.6575  L 619.9679 157.6575   M 133.2599 712.5942  L 143.2599 722.5942   M 651.0341 137.5613  L 661.0341 147.5613   M 632.2653 141.8091  L 642.2653 151.8091   M 660.5032 154.8449  L 670.5032 164.8449   M 120.2167 689.3613  L 130.2167 699.3613   M 697.1886 151.1562  L 707.1886 161.1562   M 745.5085 177.4683  L 755.5085 187.4683   M 869.8586 255.2511  L 879.8586 265.2511   M 721.6378 165.8302  L 731.6378 175.8302   M 800.2642 199.0612  L 810.2642 209.0612   M 846.6262 233.2804  L 856.6262 243.2804   M 145.4578 770.8165  L 155.4578 780.8165   M 770.4854 172.2834  L 780.4854 182.2834   M 832.8937 205.4276  L 842.8937 215.4276   M 795.9643 182.4767  L 805.9643 192.4767   M 132.9477 730.6749  L 142.9477 740.6749   M 170.1464 815.3148  L 180.1464 825.3148   M 359.7696 321.5763  L 369.7696 331.5763   M 536.2578 212.7353  L 546.2578 222.7353   M 415.7196 278.9555  L 425.7196 288.9555   M 498.4172 242.2357  L 508.4172 252.2357   M 382.5563 293.9623  L 392.5563 303.9623   M 454.0187 267.063  L 464.0187 277.063   M 286.2703 427.5685  L 296.2703 437.5685   M 286.8657 384.2034  L 296.8657 394.2034   M 418.1963 257.3553  L 428.1963 267.3553   M 341.9844 345.3727  L 351.9844 355.3727   M 511.6618 220.7617  L 521.6619 230.7617   M 563.4019 223.124  L 573.4019 233.124   M 469.3814 239.9387  L 479.3814 249.9387   M 617.5035 202.2219  L 627.5035 212.2219   M 316.6116 387.6274  L 326.6116 397.6274   M 298.3331 403.1769  L 308.3331 413.1769   M 261.831 433.2318  L 271.831 443.2318   M 321.9633 364.2828  L 331.9633 374.2828   M 308.1656 341.3197  L 318.1656 351.3197   M 676.9971 192.6434  L 686.9971 202.6434   M 262.3407 409.4775  L 272.3407 419.4775   M 577.9273 203.9058  L 587.9273 213.9058   M 224.6236 499.3178  L 234.6236 509.3178   M 214.6664 470.6064  L 224.6664 480.6064   M 650.3941 203.2  L 660.3941 213.2   M 639.8918 183.3888  L 649.8918 193.3888   M 240.889 473.7665  L 250.889 483.7665   M 196.5129 535.426  L 206.5129 545.426   M 721.4476 203.0816  L 731.4476 213.0816   M 258.3338 459.4348  L 268.3338 469.4348   M 174.1027 614.5766  L 184.1027 624.5766   M 190.925 556.5767  L 200.925 566.5767   M 713.4242 180.1356  L 723.4242 190.1356   M 164.4186 578.8492  L 174.4186 588.8492   M 749.6339 184.4946  L 759.6339 194.4946   M 743.6648 205.4301  L 753.6648 215.4301   M 185.9251 593.1604  L 195.9251 603.1604   M 202.5619 512.6498  L 212.5619 522.6498   M 771.9069 217.2814  L 781.9069 227.2814   M 161.2532 632.3531  L 171.2532 642.3531   M 187.4409 790.9073  L 197.4409 800.9073   M 179.2762 665.9878  L 189.2762 675.9878   M 168.9825 777.8865  L 178.9825 787.8865   M 439.5572 285.4384  L 449.5572 295.4384   M 769.9503 192.3162  L 779.9503 202.3162   M 175.5743 706.0759  L 185.5743 716.0759   M 799.7495 223.9526  L 809.7495 233.9526   M 161.2964 685.7853  L 171.2964 695.7853   M 214.3036 859.6902  L 224.3036 869.6902   M 160.0631 732.0444  L 170.0631 742.0444   M 156.694 659.7755  L 166.694 669.7755   M 197.1241 834.1146  L 207.1241 844.1146   M 790.1719 201.3487  L 800.1719 211.3487   M 352.1526 386.0992  L 362.1526 396.0992   M 500.94 299.0313  L 510.94 309.0313   M 383.8477 381.3808  L 393.8477 391.3808   M 282.4743 496.5664  L 292.4743 506.5664   M 400.9896 347.5688  L 410.9896 357.5688   M 422.6573 329.8419  L 432.6573 339.8419   M 316.3656 443.6474  L 326.3656 453.6474   M 441.8137 303.7475  L 451.8137 313.7475   M 324.9668 409.0509  L 334.9668 419.0509   M 364.1199 352.6163  L 374.1199 362.6163   M 272.0661 454.2406  L 282.0661 464.2406   M 233.2048 511.0273  L 243.2048 521.0273   M 538.7286 272.3847  L 548.7286 282.3847   M 255.2253 551.9404  L 265.2253 561.9404   M 210.2397 578.963  L 220.2397 588.963   M 227.7944 544.4828  L 237.7944 554.4828   M 569.3686 244.4216  L 579.3686 254.4216   M 241.2087 588.6242  L 251.2087 598.6242   M 474.2215 309.5653  L 484.2215 319.5653   M 486.9585 276.4489  L 496.9585 286.4489   M 227.7734 618.2383  L 237.7734 628.2383   M 267.5821 524.8163  L 277.5821 534.8163   M 261.3901 478.5616  L 271.3901 488.5616   M 597.3397 244.8102  L 607.3397 254.8102   M 216.3479 657.2261  L 226.3479 667.2261   M 202.9048 628.1832  L 212.9048 638.1832   M 533.564 246.2209  L 543.564 256.2209   M 202.0897 687.1446  L 212.0897 697.1446   M 634.3013 242.1794  L 644.3013 252.1794   M 179.4886 702.4375  L 189.4886 712.4375   M 810.3843 261.8937  L 820.3843 271.8937   M 698.3101 235.7015  L 708.3101 245.7015   M 735.7514 222.6759  L 745.7514 232.6759   M 664.7908 244.7948  L 674.7908 254.7948   M 221.5146 834.8957  L 231.5146 844.8957   M 773.4395 234.1672  L 783.4395 244.1672   M 676.9796 215.8501  L 686.9796 225.8501   M 240.6049 869.79  L 250.6049 879.79   M 869.1693 304.5301  L 879.1693 314.5301   M 850.5624 274.1653  L 860.5624 284.1653   M 206.6372 734.4337  L 216.6372 744.4337   M 261.1827 889.6238  L 271.1827 899.6238   M 892.7792 316.4889  L 902.7792 326.4889   M 465.0045 370.3312  L 475.0045 380.3312   M 420.6882 382.3725  L 430.6882 392.3725   M 396.1618 418.1695  L 406.1618 428.1695   M 483.3336 342.7311  L 493.3336 352.7311   M 533.936 322.1468  L 543.936 332.1468   M 300.9675 514.5934  L 310.9675 524.5934   M 367.8883 465.9951  L 377.8883 475.9951   M 611.0453 290.6095  L 621.0453 300.6095   M 283.632 581.3298  L 293.632 591.3298   M 580.5845 303.452  L 590.5845 313.452   M 326.0506 476.6623  L 336.0506 486.6623   M 651.1378 254.7836  L 661.1378 264.7836   M 692.3659 254.619  L 702.3659 264.619   M 642.9483 287.6896  L 652.9483 297.6896   M 265.1319 621.5298  L 275.1319 631.5298   M 231.7292 639.0416  L 241.7292 649.0416   M 693.7799 288.7923  L 703.7799 298.7923   M 332.7708 514.1849  L 342.7708 524.1849   M 301.0443 552.442  L 311.0443 562.442   M 806.7985 307.9959  L 816.7985 317.9959   M 581.9067 272.0787  L 591.9067 282.0787   M 747.0044 248.8697  L 757.0044 258.8697   M 255.1804 668.7526  L 265.1804 678.7526   M 221.1545 733.2302  L 231.1545 743.2302   M 781.9474 285.0747  L 791.9474 295.0747   M 869.7572 339.1021  L 879.7572 349.1021   M 911.6969 386.8757  L 921.6969 396.8757   M 816.4611 180.1089  L 826.4611 190.1089   M 245.6468 821.4461  L 255.6468 831.4461   M 269.0763 846.4957  L 279.0763 856.4957   M 851.1273 311.0378  L 861.1273 321.0378   M 276.5828 888.2318  L 286.5828 898.2318   M 229.8584 773.6254  L 239.8584 783.6254   M 950.8997 484.8555  L 960.8997 494.8555   M 301.7347 907.1453  L 311.7347 917.1453   M 434.3438 451.8464  L 444.3438 461.8464   M 454.1575 403.6608  L 464.1575 413.6608   M 500.4803 394.9076  L 510.4803 404.9076   M 385.2144 461.087  L 395.2144 471.087   M 380.8475 507.9166  L 390.8475 517.9166   M 340.7035 528.0867  L 350.7035 538.0867   M 523.5632 349.8372  L 533.5632 359.8372   M 321.8013 568.5227  L 331.8013 578.5227   M 564.1616 328.959  L 574.1616 338.959   M 664.3256 326.4222  L 674.3256 336.4222   M 600.9755 329.5693  L 610.9755 339.5693   M 287.5859 684.17  L 297.5859 694.17   M 283.1302 630.2138  L 293.1302 640.2138   M 281.3328 745.8687  L 291.3328 755.8687   M 916.9534 401.936  L 926.9534 411.936   M 717.0306 325.2577  L 727.0306 335.2577   M 776.502 312.9087  L 786.502 322.9087   M 840.2853 343.5526  L 850.2853 353.5526   M 267.5181 796.1672  L 277.5181 806.1672   M 812.0599 317.6953  L 822.0599 327.6953   M 324.3751 895.0708  L 334.3751 905.0708   M 261.0703 711.0422  L 271.0703 721.0422   M 301.191 860.3372  L 311.191 870.3372   M 294.4996 821.7304  L 304.4996 831.7304   M 478.3355 973.476  L 488.3355 983.476   M 415.6716 961.7773  L 425.6716 971.7773   M 546.1877 52.30722  L 556.1877 62.30722   M 62.32161 549.7054  L 72.32161 559.7054   M 507.1482 438.6288  L 517.1482 448.6288   M 613.5655 369.5439  L 623.5655 379.5439   M 661.8402 380.687  L 671.8402 390.687   M 472.5555 475.2675  L 482.5555 485.2675   M 403.54 515.1827  L 413.54 525.1827   M 906.5274 431.1308  L 916.5274 441.1308   M 915.8374 489.5656  L 925.8374 499.5656   M 737.2645 366.0964  L 747.2645 376.0964   M 828.5413 380.3095  L 838.5413 390.3095   M 781.889 352.4935  L 791.889 362.4935   M 385.6648 595.7216  L 395.6648 605.7216   M 856.4 421.8219  L 866.4 431.8219   M 941.8995 524.4267  L 951.8995 534.4267   M 353.107 643.23  L 363.107 653.23   M 338.1621 602.7739  L 348.1621 612.7739   M 373.1069 897.2377  L 383.1069 907.2377   M 419.9437 951.1271  L 429.9437 961.1271   M 331.8888 715.8592  L 341.8888 725.8592   M 309.4371 805.9747  L 319.4371 815.9747   M 336.0908 845.1115  L 346.0908 855.1115   M 495.8572 507.8895  L 505.8572 517.8895   M 425.1848 556.71  L 435.1848 566.71   M 395.5287 595.7119  L 405.5287 605.7119   M 627.9866 438.1693  L 637.9866 448.1693   M 385.3187 697.0994  L 395.3187 707.0994   M 683.3543 422.4458  L 693.3543 432.4458   M 374.4173 779.0458  L 384.4173 789.0458   M 733.7483 413.6515  L 743.7483 423.6515   M 419.2884 904.7554  L 429.2884 914.7554   M 393.4175 825.5698  L 403.4175 835.5698   M 805.5008 415.3539  L 815.5008 425.3539   M 477.5279 947.0598  L 487.5279 957.0598   M 551.2398 950.592  L 561.2398 960.592   M 928.8387 602.1884  L 938.8387 612.1884   M 914.9162 672.556  L 924.9162 682.556   M 845.7866 470.848  L 855.7866 480.848   M 910.9178 555.7754  L 920.9178 565.7754   M 887.6532 516.0567  L 897.6532 526.0567   M 651.2032 948.8698  L 661.2032 958.8698   M 596.9478 954.2695  L 606.9478 964.2695   M 443.8626 624.7286  L 453.8626 634.7286   M 404.0213 742.8612  L 414.0213 752.8612   M 841.0704 490.1994  L 851.0704 500.1994   M 661.51 461.0382  L 671.51 471.0382   M 418.2242 804.7026  L 428.2242 814.7026   M 873.7583 562.2446  L 883.7583 572.2446   M 791.3094 477.4253  L 801.3094 487.4253   M 474.7576 848.14  L 484.7576 858.14   M 814.6397 821.6723  L 824.6397 831.6723   M 625.3394 934.3747  L 635.3394 944.3747   M 490.051 902.5883  L 500.051 912.5883   M 696.3627 913.5546  L 706.3627 923.5546   M 901.7399 605.2295  L 911.7399 615.2295   M 552.9099 909.3472  L 562.9099 919.3472   M 514.7177 560.0613  L 524.7177 570.0613   M 580.2667 545.9022  L 590.2667 555.9022   M 672.8622 499.8044  L 682.8622 509.8044   M 754.5502 501.3106  L 764.5502 511.3106   M 538.3033 836.8904  L 548.3033 846.8904   M 830.6827 570.8542  L 840.6827 580.8542   M 585.7299 902.7559  L 595.7299 912.7559   M 810.2249 641.8318  L 820.2249 651.8318   M 775.2205 558.6266  L 785.2205 568.6266   M 786.6783 807.9056  L 796.6783 817.9056   M 838.3781 759.2701  L 848.3781 769.2701   M 760.0159 862.6631  L 770.0159 872.6631"/> </g></svg>
