<svg width="800" height="800"    xmlns:xlink="http://www.w3.org/1999/xlink" style="stroke:black; stroke-opacity:1; stroke-width:1;"  xmlns="http://www.w3.org/2000/svg"> <defs id = "genericDefs"/>"<g> <path style = "fill:none;" d = "   M 163.093 456.3129  L 183.093 476.3129   M 481.8472 168.7011  L 501.8472 188.7011   M 150.9973 443.1136  L 170.9973 463.1136   M 164.3491 440.2762  L 184.3491 460.2762   M 174.1213 427.1182  L 194.1213 447.1182   M 135.7406 437.5853  L 155.7406 457.5853   M 351.9826 228.327  L 371.9826 248.327   M 413.627 200.8735  L 433.627 220.8735   M 127.4563 543.1096  L 147.4563 563.1096   M 146.4996 466.1433  L 166.4996 486.1433   M 142.8651 503.1393  L 162.8651 523.1393   M 425.8548 189.7128  L 445.8548 209.7128   M 123.2233 435.7602  L 143.2233 455.7602   M 147.3824 431.0001  L 167.3824 451.0001   M 495.4134 163.589  L 515.4133 183.589   M 133.2496 518.4655  L 153.2496 538.4655   M 373.5149 223.2967  L 393.5149 243.2967   M 393.3632 200.2009  L 413.3632 220.2009   M 138.9341 486.6446  L 158.9341 506.6446   M 379.3436 211.9377  L 399.3436 231.9377   M 122.6456 501.2869  L 142.6456 521.2869   M 137.8234 418.5206  L 157.8234 438.5206   M 402.6211 205.9682  L 422.6211 225.9682   M 472.6098 161.695  L 492.6098 181.695   M 133.0826 496.6381  L 153.0826 516.6381   M 506.3876 156.2124  L 526.3876 176.2124   M 336.0518 259.9236  L 356.0518 279.9236   M 345.2826 242.186  L 365.2826 262.186   M 140.5144 451.2352  L 160.5144 471.2352   M 129.1967 446.0865  L 149.1967 466.0865   M 120.923 479.3931  L 140.923 499.3931   M 212.9051 378.9391  L 232.9051 398.9391   M 363.3744 209.5837  L 383.3744 229.5837   M 313.2219 259.9512  L 333.2219 279.9512   M 148.2137 480.1367  L 168.2137 500.1367   M 376.7931 194.242  L 396.7931 214.242   M 409.5347 187.2825  L 429.5347 207.2825   M 116.5673 554.3002  L 136.5673 574.3002   M 155.1028 418.495  L 175.1028 438.495   M 323.2191 247.7986  L 343.2191 267.7986   M 117.7574 450.8462  L 137.7574 470.8462   M 474.4726 150.4954  L 494.4726 170.4954   M 117.5519 686.6796  L 137.5519 706.6796   M 486.2991 149.8054  L 506.2991 169.8054   M 359.0331 187.2436  L 379.0331 207.2436   M 436.9298 190.8421  L 456.9298 210.8421   M 118.7657 523.2767  L 138.7657 543.2767   M 176.4096 414.0013  L 196.4096 434.0013   M 350.4806 196.6082  L 370.4806 216.6082   M 129.0748 412.31  L 149.0748 432.31   M 461.0899 147.1929  L 481.0899 167.1929   M 363.8849 230.9035  L 383.8849 250.9035   M 450.052 175.0375  L 470.052 195.0375   M 132.4992 463.8147  L 152.4992 483.8147   M 109.8926 533.5654  L 129.8926 553.5654   M 344.9839 214.6889  L 364.9839 234.6889   M 115.6096 488.8257  L 135.6096 508.8257   M 344.8059 176.3885  L 364.8059 196.3885   M 490.2309 135.7611  L 510.2309 155.7611   M 317.561 232.3278  L 337.561 252.3278   M 137.9551 475.1877  L 157.9551 495.1877   M 234.6013 358.7332  L 254.6013 378.7332   M 420.6609 172.6188  L 440.6609 192.6188   M 333.5563 234.3622  L 353.5563 254.3622   M 336.1452 196.483  L 356.1452 216.483   M 466.6062 133.9419  L 486.6062 153.9419   M 329.7621 180.2166  L 349.7621 200.2166   M 113.1579 668.3596  L 133.1579 688.3596   M 453.7327 164.9295  L 473.7327 184.9295   M 455.7441 129.9524  L 475.7441 149.9524   M 430.3966 178.9537  L 450.3966 198.9537   M 106.2273 688.8393  L 126.2273 708.8393   M 118.1484 568.9124  L 138.1484 588.9124   M 332.9442 219.1369  L 352.9442 239.1369   M 498.9971 146.5325  L 518.9971 166.5325   M 193.1478 414.3956  L 213.1478 434.3956   M 196.593 381.0642  L 216.593 401.0642   M 317.1371 168.3921  L 337.1371 188.3921   M 434.9574 164.8118  L 454.9574 184.8118   M 474.2574 124.8429  L 494.2574 144.8429   M 449.3274 141.0824  L 469.3274 161.0824   M 112.4645 437.2574  L 132.4645 457.2574   M 105.356 454.9211  L 125.356 474.9211   M 442.7336 120.7616  L 462.7336 140.7616   M 441.3774 154.9589  L 461.3774 174.9589   M 141.3081 403.6699  L 161.3081 423.6699   M 306.7397 238.7842  L 326.7397 258.7842   M 517.5609 143.958  L 537.5609 163.958   M 243.4084 322.0407  L 263.4084 342.0407   M 311.513 271.5116  L 331.513 291.5116   M 300.2686 249.5409  L 320.2686 269.5409   M 344.732 165.6327  L 364.732 185.6327   M 573.1855 129.433  L 593.1855 149.433   M 413.2094 157.1815  L 433.2094 177.1815   M 324.1779 196.4773  L 344.1779 216.4773   M 305.756 161.8102  L 325.756 181.8102   M 333.5225 207.3879  L 353.5225 227.3879   M 161.8306 428.8104  L 181.8306 448.8104   M 499.7411 128.0121  L 519.7411 148.0121   M 355.4772 173.4151  L 375.4772 193.4151   M 151.1747 455.5031  L 171.1747 475.5031   M 230.9682 308.341  L 250.9682 328.341   M 395.272 159.5486  L 415.272 179.5486   M 92.61708 681.6661  L 112.6171 701.6661   M 83.97813 454.3607  L 103.9781 474.3607   M 462.6561 118.4798  L 482.6561 138.4798   M 279.8195 308.5056  L 299.8195 328.5056   M 242.2014 339.8201  L 262.2014 359.8201   M 489.3145 124.1273  L 509.3145 144.1273   M 95.79144 428.382  L 115.7914 448.382   M 421.9149 116.3094  L 441.9149 136.3094   M 413.167 139.1995  L 433.167 159.1995   M 434.0078 146.0216  L 454.0078 166.0216   M 477.4504 135.5624  L 497.4504 155.5624   M 320.1145 147.47  L 340.1145 167.47   M 171.3824 403.7344  L 191.3824 423.7344   M 116.8692 424.8022  L 136.8692 444.8022   M 530.9448 139.4516  L 550.9448 159.4516   M 102.2205 522.5259  L 122.2205 542.5259   M 299.3311 230.5878  L 319.3311 250.5878   M 114.0429 512.0478  L 134.0429 532.0478   M 380.5257 177.4515  L 400.5257 197.4515   M 296.6492 277.5413  L 316.6492 297.5413   M 190.1748 399.796  L 210.1748 419.796   M 421.7258 149.2518  L 441.7258 169.2518   M 307.3167 175.9253  L 327.3167 195.9253   M 151.5574 397.6229  L 171.5574 417.6229   M 105.1953 708.3831  L 125.1953 728.3831   M 433.9241 128.3937  L 453.9241 148.3937   M 106.4324 570.8438  L 126.4324 590.8438   M 105.9213 467.1818  L 125.9213 487.1818   M 423.6296 133.5851  L 443.6296 153.5851   M 89.48473 532.2703  L 109.4847 552.2703   M 322.1408 219.0359  L 342.1408 239.0359   M 402.6539 149.9043  L 422.6539 169.9043   M 459.639 102.225  L 479.639 122.225   M 412.5307 126.8251  L 432.5307 146.825   M 299.6871 265.7385  L 319.6871 285.7385   M 117.7932 466.6855  L 137.7932 486.6855   M 260.5698 320.1123  L 280.5698 340.1123   M 310.3025 213.7104  L 330.3025 233.7104   M 287.9028 232.449  L 307.9028 252.449   M 312.7448 196.7025  L 332.7448 216.7025   M 405.0957 165.9219  L 425.0957 185.9219   M 393.4836 188.0128  L 413.4836 208.0128   M 328.2747 169.2741  L 348.2747 189.2741   M 159.8886 405.8295  L 179.8886 425.8295   M 94.11634 511.5387  L 114.1163 531.5387   M 342.7207 154.8039  L 362.7207 174.8039   M 76.99528 468.5546  L 96.99528 488.5546   M 321.5849 206.9956  L 341.5849 226.9956   M 287.753 152.6553  L 307.753 172.6553   M 287.9632 246.5549  L 307.9632 266.5549   M 185.1637 387.3779  L 205.1637 407.3779   M 358.9494 219.9149  L 378.9494 239.9149   M 183.0476 373.886  L 203.0476 393.886   M 229.1662 325.8424  L 249.1662 345.8424   M 167.5009 392.7547  L 187.5009 412.7547   M 361.9612 198.386  L 381.9612 218.386   M 100.6892 438.5648  L 120.6892 458.5648   M 314.7726 185.7961  L 334.7726 205.7961   M 72.90879 456.877  L 92.90879 476.877   M 288.3917 261.5333  L 308.3917 281.5333   M 402.4191 138.2946  L 422.4191 158.2946   M 470.4552 108.2772  L 490.4552 128.2772   M 159.0105 385.7792  L 179.0105 405.7792   M 341.3826 225.8362  L 361.3826 245.8362   M 280.7133 271.7902  L 300.7133 291.7902   M 268.4654 303.1956  L 288.4654 323.1956   M 334.792 247.9049  L 354.792 267.9049   M 555.7556 138.349  L 575.7556 158.349   M 541.2883 143.0306  L 561.2883 163.0306   M 108.1825 500.9012  L 128.1826 520.9012   M 403.0878 177.7763  L 423.0878 197.7763   M 355.3322 162.017  L 375.3322 182.017   M 115.5195 721.169  L 135.5195 741.169   M 86.6315 442.2836  L 106.6315 462.2836   M 326.5304 157.4689  L 346.5304 177.4689   M 483.2795 112.3518  L 503.2795 132.3518   M 513.3517 131.8738  L 533.3517 151.8738   M 99.56241 583.3341  L 119.5624 603.3341   M 504.7837 107.4432  L 524.7837 127.4432   M 334.6545 144.7089  L 354.6545 164.7089   M 103.6399 548.9781  L 123.6399 568.9781   M 88.33699 496.2957  L 108.337 516.2957   M 166.3942 419.0976  L 186.3942 439.0976   M 412.1165 107.0579  L 432.1165 127.0579   M 278.3888 288.566  L 298.3888 308.566   M 217.1266 317.3251  L 237.1266 337.3251   M 207.1163 366.4553  L 227.1163 386.4553   M 102.6796 489.0572  L 122.6796 509.0572   M 369.0565 176.3204  L 389.0565 196.3204   M 108.7473 478.4054  L 128.7473 498.4054   M 96.21527 461.8287  L 116.2153 481.8287   M 96.33432 474.2838  L 116.3343 494.2838   M 106.7977 411.8629  L 126.7977 431.8629   M 391.7222 148.873  L 411.7222 168.873   M 96.52678 448.4442  L 116.5268 468.4442   M 207.833 388.6219  L 227.833 408.6219   M 112.535 616.0716  L 132.535 636.0716   M 276.1403 256.5192  L 296.1403 276.5192   M 116.8995 407.9506  L 136.8995 427.9506   M 395.5961 124.866  L 415.5961 144.866   M 221.8364 334.6434  L 241.8364 354.6434   M 303.6748 144.1889  L 323.6748 164.1889   M 315.662 157.6881  L 335.662 177.6881   M 298.877 219.6822  L 318.877 239.6822   M 516.2104 101.9772  L 536.2104 121.9772   M 367.1597 156.8202  L 387.1597 176.8202   M 406.8278 116.6917  L 426.8278 136.6917   M 190.4414 365.5545  L 210.4414 385.5545   M 97.86684 602.455  L 117.8668 622.455   M 255.7955 309.7897  L 275.7955 329.7897   M 87.55275 576.3381  L 107.5527 596.3381   M 339.6808 186.2951  L 359.6808 206.2951   M 561.1086 127.5583  L 581.1086 147.5583   M 287.4241 213.554  L 307.4241 233.554   M 730.6338 149.4656  L 750.6338 169.4656   M 85.32832 425.625  L 105.3283 445.625   M 106.0732 677.3778  L 126.0732 697.3778   M 277.138 161.6931  L 297.138 181.6931   M 84.27805 485.1224  L 104.2781 505.1224   M 102.9292 396.809  L 122.9292 416.809   M 267.4506 278.8036  L 287.4506 298.8036   M 276.6675 244.0243  L 296.6675 264.0244   M 435.8063 101.6094  L 455.8063 121.6094   M 76.66077 503.1377  L 96.66077 523.1377   M 381.2758 129.4463  L 401.2758 149.4463   M 380.1856 143.4939  L 400.1856 163.4939   M 75.24438 420.7507  L 95.24438 440.7507   M 140.1726 382.7566  L 160.1726 402.7566   M 264.9725 266.3945  L 284.9725 286.3945   M 88.25951 543.9619  L 108.2595 563.9619   M 106.3438 632.1899  L 126.3438 652.1899   M 243.5455 310.4604  L 263.5455 330.4604   M 382.6528 160.5981  L 402.6528 180.5981   M 576.788 139.6714  L 596.788 159.6714   M 223.3149 368.9113  L 243.3149 388.9113   M 125.1295 742.1518  L 145.1295 762.1518   M 69.67471 445.6948  L 89.67471 465.6948   M 94.33082 559.7728  L 114.3308 579.7728   M 246.4029 290.0184  L 266.4029 310.0184   M 277.7851 223.105  L 297.7851 243.105   M 98.92198 537.3985  L 118.922 557.3985   M 424.1808 161.2187  L 444.1808 181.2187   M 368.2169 126.2589  L 388.2169 146.2589   M 241.1112 299.8213  L 261.1111 319.8213   M 357.9241 147.3647  L 377.9241 167.3647   M 297.9742 188.9428  L 317.9742 208.9428   M 107.5663 657.9332  L 127.5663 677.9332   M 85.41417 519.2218  L 105.4142 539.2218   M 390.2079 112.025  L 410.2079 132.025   M 97.57669 625.9156  L 117.5767 645.9156   M 80.57526 562.6041  L 100.5753 582.6041   M 368.1267 141.1515  L 388.1267 161.1515   M 91.99614 670.6008  L 111.9961 690.6008   M 682.7134 136.4837  L 702.7134 156.4837   M 476.9336 92.2216  L 496.9336 112.2216   M 231.8666 345.5148  L 251.8666 365.5148   M 667.8314 135.5941  L 687.8314 155.5941   M 545.6384 123.4158  L 565.6384 143.4158   M 101.8043 615.5775  L 121.8043 635.5775   M 288.7488 173.1599  L 308.7488 193.1599   M 128.3966 424.4958  L 148.3966 444.4958   M 212.6131 351.1797  L 232.6131 371.1797   M 199.8598 348.8164  L 219.8598 368.8164   M 93.29651 645.8079  L 113.2965 665.8079   M 71.6111 519.2374  L 91.6111 539.2374   M 533.4341 126.3243  L 553.4341 146.3243   M 251.2902 271.3798  L 271.2902 291.3798   M 425.8366 95.50384  L 445.8366 115.5038   M 171.9165 371.77  L 191.9165 391.77   M 76.7877 539.6179  L 96.7877 559.6179   M 179.6268 356.9627  L 199.6268 376.9627   M 267.9298 292.074  L 287.9298 312.074   M 90.40458 415.7073  L 110.4046 435.7073   M 398.7807 104.3278  L 418.7807 124.3278   M 255.1143 260.8462  L 275.1143 280.8462   M 433.2326 114.0615  L 453.2326 134.0615   M 552.0609 111.9864  L 572.0609 131.9864   M 223.1591 355.1584  L 243.1591 375.1584   M 451.5502 112.7976  L 471.5502 132.7976   M 70.16153 489.6155  L 90.16153 509.6155   M 302.7637 203.2175  L 322.7637 223.2175   M 505.9132 118.5721  L 525.9132 138.5721   M 91.4464 401.6779  L 111.4464 421.6779   M 520.9423 116.7829  L 540.9423 136.7829   M 696.7728 142.807  L 716.7728 162.807   M 76.43398 577.7513  L 96.43398 597.7513   M 118.7197 580.9001  L 138.7197 600.9001   M 280.6349 133.8429  L 300.6349 153.8429   M 108.021 596.5801  L 128.021 616.5801   M 232.7596 288.219  L 252.7596 308.219   M 166.3034 344.4095  L 186.3034 364.4095   M 257.5923 297.7921  L 277.5923 317.7921   M 72.48506 552.9964  L 92.48506 572.9964   M 81.88992 599.8094  L 101.8899 619.8094   M 105.7327 560.0076  L 125.7327 580.0076   M 131.6955 398.8981  L 151.6955 418.8981   M 223.7552 296.1124  L 243.7552 316.1124   M 284.4778 199.0904  L 304.4778 219.0904   M 380.918 105.2956  L 400.918 125.2956   M 65.02733 474.1671  L 85.02733 494.1671   M 292.8765 141.8814  L 312.8765 161.8814   M 587.2817 132.1286  L 607.2817 152.1286   M 393.5149 170.3701  L 413.5149 190.3701   M 161.4715 354.3114  L 181.4715 374.3114   M 210.4141 307.1609  L 230.4141 327.1609   M 530.3174 110.682  L 550.3174 130.682   M 150.6862 370.5411  L 170.6862 390.5411   M 208.2191 333.092  L 228.2191 353.092   M 271.7199 152.3418  L 291.7199 172.3418   M 271.7972 182.7145  L 291.7972 202.7145   M 119.269 392.1001  L 139.269 412.1001   M 125.8898 372.348  L 145.8898 392.348   M 597.2327 124.341  L 617.2327 144.341   M 120.8378 360.9567  L 140.8378 380.9567   M 260.5513 158.0936  L 280.5513 178.0936   M 78.05551 398.5884  L 98.05551 418.5884   M 653.4793 131.9647  L 673.4793 151.9647   M 188.2413 347.0479  L 208.2413 367.0479   M 390.5366 137.5149  L 410.5366 157.5149   M 84.60004 639.101  L 104.6 659.101   M 716.1312 144.5846  L 736.1312 164.5846   M 713.0021 124.2354  L 733.0021 144.2354   M 88.08524 386.8648  L 108.0852 406.8648   M 573.1389 115.6755  L 593.1389 135.6755   M 367.9341 109.8147  L 387.9341 129.8147   M 391.6512 94.82051  L 411.6512 114.8205   M 267.665 199.4477  L 287.665 219.4477   M 94.33426 658.5592  L 114.3343 678.5592   M 295.324 121.2542  L 315.324 141.2542   M 402.3449 90.41724  L 422.3449 110.4172   M 62.08145 511.2794  L 82.08145 531.2794   M 146.3443 785.6633  L 166.3443 805.6633   M 434.8534 87.5193  L 454.8534 107.5193   M 314.78 131.5958  L 334.78 151.5958   M 267.2802 229.7768  L 287.2802 249.7768   M 561.5874 101.3311  L 581.5874 121.3311   M 257.3215 205.0214  L 277.3215 225.0214   M 258.0723 247.6237  L 278.0723 267.6237   M 575.8508 102.8444  L 595.8508 122.8444   M 380.1084 117.5443  L 400.1084 137.5443   M 130.1991 387.2905  L 150.1991 407.2905   M 257.2924 286.0778  L 277.2924 306.0778   M 604.3087 108.6133  L 624.3087 128.6133   M 164.8803 328.0951  L 184.8803 348.0951   M 330.3051 129.0583  L 350.3051 149.0583   M 424.63 83.97263  L 444.63 103.9726   M 451.8989 93.19806  L 471.8989 113.1981   M 142.0242 356.3775  L 162.0242 376.3775   M 233.7585 275.3394  L 253.7585 295.3394   M 466.8303 83.05989  L 486.8303 103.0599   M 65.31532 542.957  L 85.31532 562.957   M 486.1073 99.66565  L 506.1073 119.6656   M 282.4114 184.2867  L 302.4114 204.2867   M 707.2039 135.2941  L 727.2039 155.2941   M 150.218 318.0833  L 170.218 338.0833   M 103.8645 643.6936  L 123.8645 663.6936   M 80.2679 620.3427  L 100.2679 640.3427   M 357.2625 114.6459  L 377.2625 134.6459   M 188.3501 334.9611  L 208.3501 354.9611   M 696.2241 127.4814  L 716.2241 147.4814   M 702.5621 116.1942  L 722.5621 136.1942   M 99.48714 379.7004  L 119.4871 399.7004   M 762.4738 157.2967  L 782.4738 177.2967   M 204.659 293.8515  L 224.659 313.8515   M 542.6948 96.48657  L 562.6948 116.4866   M 357.5645 135.5565  L 377.5645 155.5565   M 341.1331 125.6541  L 361.1331 145.6541   M 343.6988 138.6472  L 363.6988 158.6472   M 261.2441 146.0757  L 281.2441 166.0757   M 383.7904 81.09695  L 403.7904 101.097   M 687.6194 110.7828  L 707.6194 130.7828   M 725.1103 116.2504  L 745.1103 136.2504   M 311.0208 249.2832  L 331.0208 269.2833   M 90.7726 370.1647  L 110.7726 390.1647   M 375.2921 90.16292  L 395.2921 110.1629   M 629.8806 133.4797  L 649.8806 153.4797   M 739.5963 122.0179  L 759.5963 142.0179   M 91.59079 612.1684  L 111.5908 632.1684   M 266.5197 172.6497  L 286.5197 192.6497   M 135.8625 330.9581  L 155.8625 350.9581   M 88.03609 587.9067  L 108.0361 607.9067   M 743.9493 148.7149  L 763.9493 168.7149   M 63.21945 528.4944  L 83.21945 548.4944   M 502.5594 96.2518  L 522.5594 116.2518   M 154.0165 336.5457  L 174.0165 356.5457   M 640.2067 126.0449  L 660.2067 146.0449   M 193.1618 295.3347  L 213.1618 315.3347   M 495.2353 114.5368  L 515.2352 134.5368   M 308.7224 116.2439  L 328.7224 136.2439   M 237.6974 255.9802  L 257.6974 275.9802   M 174.7472 321.5867  L 194.7472 341.5867   M 577.6676 89.04353  L 597.6676 109.0435   M 174.0852 383.0033  L 194.0852 403.0033   M 617.747 125.86  L 637.747 145.86   M 320.2848 108.3539  L 340.2848 128.3539   M 199.1258 308.9713  L 219.1258 328.9713   M 551.3966 85.64903  L 571.3966 105.649   M 669.2422 121.7627  L 689.2422 141.7627   M 485.7499 83.88379  L 505.7499 103.8838   M 347.3387 104.7841  L 367.3387 124.7841   M 252.3985 175.1913  L 272.3986 195.1913   M 446.5632 103.2044  L 466.5632 123.2044   M 333.0457 94.25111  L 353.0457 114.2511   M 274.8159 207.5329  L 294.8159 227.5329   M 110.4534 355.9271  L 130.4534 375.9271   M 160.7763 366.6812  L 180.7763 386.6812   M 237.6099 244.4863  L 257.6099 264.4863   M 513.2913 87.60866  L 533.2913 107.6087   M 255.0337 191.8972  L 275.0338 211.8972   M 446.4719 71.8557  L 466.4719 91.8557   M 303.9065 128.2979  L 323.9065 148.2979   M 536.783 70.99776  L 556.783 90.99776   M 338.6452 113.3269  L 358.6452 133.3269   M 294.6138 163.1641  L 314.6138 183.1641   M 366.0617 96.86739  L 386.0617 116.8674   M 243.8777 196.5362  L 263.8777 216.5362   M 247.2545 224.4224  L 267.2545 244.4224   M 526.6761 85.16022  L 546.6761 105.1602   M 616.3502 113.7519  L 636.3502 133.7519   M 656.7978 121.3923  L 676.7978 141.3923   M 65.82685 500.2239  L 85.82685 520.2239   M 151.7018 307.465  L 171.7018 327.465   M 223.2392 282.5708  L 243.2392 302.5708   M 679.9349 123.8345  L 699.9349 143.8345   M 724.0214 134.3613  L 744.0214 154.3613   M 668.1638 108.6614  L 688.1638 128.6614   M 412.3429 96.07637  L 432.3429 116.0764   M 557.0299 75.24481  L 577.0299 95.24481   M 299.1743 108.7745  L 319.1743 128.7745   M 468.7699 64.13522  L 488.7699 84.13522   M 263.9887 215.5027  L 283.9887 235.5027   M 109.6601 369.9063  L 129.6601 389.9063   M 236.7624 170.5696  L 256.7624 190.5696   M 589.7918 111.9452  L 609.7918 131.9452   M 414.2183 79.10415  L 434.2183 99.10415   M 291.0772 131.1942  L 311.0772 151.1942   M 244.5762 213.6223  L 264.5762 233.6223   M 362.8953 83.34407  L 382.8953 103.3441   M 583.2628 121.1427  L 603.2628 141.1427   M 189.6053 323.3056  L 209.6053 343.3056   M 772.8481 150.2517  L 792.8481 170.2517   M 527.9147 96.85152  L 547.9147 116.8515   M 754.8882 143.6958  L 774.8882 163.6958   M 129.5073 348.6381  L 149.5073 368.6381   M 111.777 337.1132  L 131.7769 357.1132   M 229.1695 181.947  L 249.1695 201.947   M 319.3309 120.7067  L 339.3309 140.7067   M 521.4064 69.26488  L 541.4064 89.26488   M 229.2735 211.3566  L 249.2735 231.3566   M 140.6495 344.8709  L 160.6495 364.8709   M 245.9731 153.4878  L 265.9731 173.4878   M 698.5297 98.47357  L 718.5297 118.4736   M 811.8784 186.8141  L 831.8784 206.8141   M 138.3498 367.2621  L 158.3498 387.2621   M 208.2115 281.9025  L 228.2115 301.9025   M 627.8226 112.7017  L 647.8226 132.7017   M 493.5058 68.10428  L 513.5059 88.10428   M 78.29858 435.3257  L 98.29858 455.3257   M 713.3957 109.1981  L 733.3957 129.1981   M 224.4709 268.529  L 244.4709 288.529   M 477.1874 75.10535  L 497.1874 95.10535   M 496.4924 82.56422  L 516.4924 102.5642   M 402.9964 79.38138  L 422.9964 99.38138   M 784.772 161.5544  L 804.772 181.5544   M 539.0499 85.89116  L 559.0499 105.8912   M 735.2109 138.4427  L 755.2109 158.4427   M 403.415 65.02147  L 423.415 85.02147   M 617.8799 100.9425  L 637.8799 120.9425   M 565.8937 84.00906  L 585.8937 104.0091   M 487.4786 54.65373  L 507.4786 74.65373   M 236.7737 221.5795  L 256.7737 241.5795   M 163.1628 307.4204  L 183.1628 327.4204   M 283.6146 122.456  L 303.6146 142.456   M 510.3749 68.58501  L 530.3749 88.58501   M 745.8465 131.7003  L 765.8465 151.7003   M 207.6965 268.9061  L 227.6965 288.9061   M 572.9915 66.06168  L 592.9915 86.06168   M 183.0586 307.177  L 203.0586 327.177   M 178.846 341.5359  L 198.846 361.5359   M 115.072 380.8527  L 135.072 400.8527   M 352.7241 88.67761  L 372.7241 108.6776   M 195.5019 275.7089  L 215.5019 295.7089   M 269.4344 137.6605  L 289.4344 157.6605   M 240.7283 181.1353  L 260.7283 201.1353   M 151.242 292.3208  L 171.242 312.3208   M 201.7552 323.071  L 221.7552 343.071   M 595.1917 100.0736  L 615.1917 120.0736   M 213.0361 182.3752  L 233.0361 202.3752   M 391.3891 72.10007  L 411.3891 92.10007   M 632.6026 101.1051  L 652.6026 121.1051   M 123.4756 338.3257  L 143.4756 358.3257   M 640.7828 108.6844  L 660.7828 128.6844   M 420.0363 67.46642  L 440.0363 87.46642   M 431.4755 74.46438  L 451.4755 94.46438   M 804.4655 177.7728  L 824.4655 197.7728   M 235.501 156.9248  L 255.501 176.9248   M 508.3658 57.56521  L 528.3658 77.56522   M 133.5842 320.3059  L 153.5842 340.3059   M 212.6399 256.4483  L 232.6399 276.4483   M 117.8675 328.0652  L 137.8675 348.0652   M 655.425 104.0892  L 675.425 124.0892   M 196.4818 259.9726  L 216.4818 279.9726   M 655.0141 92.03851  L 675.0141 112.0385   M 97.06499 360.2074  L 117.065 380.2074   M 543.6139 53.65144  L 563.6139 73.65144   M 590.9629 82.5582  L 610.9629 102.5582   M 547.555 69.83589  L 567.555 89.83589   M 452.217 82.3312  L 472.217 102.3312   M 592.0472 69.16602  L 612.0472 89.16602   M 520.817 57.88345  L 540.817 77.88345   M 220.0116 165.9605  L 240.0116 185.9605   M 669.8853 93.5997  L 689.8853 113.5997   M 643.2792 95.40919  L 663.2792 115.4092   M 203.1989 239.344  L 223.1989 259.344   M 600.2635 76.02097  L 620.2635 96.02097   M 183.4418 271.4192  L 203.4418 291.4192   M 165.6776 294.0404  L 185.6776 314.0404   M 647.0866 77.63548  L 667.0866 97.63548   M 179.4806 254.9508  L 199.4806 274.9508   M 224.0868 199.8524  L 244.0868 219.8524   M 182.0548 294.5217  L 202.0548 314.5217   M 218.7328 214.9144  L 238.7328 234.9144   M 216.6778 238.1375  L 236.6778 258.1375   M 197.177 220.7796  L 217.177 240.7796   M 226.2241 225.6675  L 246.2241 245.6675   M 104.9395 422.6892  L 124.9395 442.6892   M 638.5715 85.41359  L 658.5715 105.4136   M 251.2102 141.4185  L 271.2101 161.4185   M 187.7433 239.6547  L 207.7433 259.6547   M 201.2896 207.845  L 221.2896 227.845   M 169.6091 233.3653  L 189.6091 253.3653   M 142.5902 282.4834  L 162.5902 302.4834   M 130.6159 304.5688  L 150.6159 324.5688   M 765.6578 141.1669  L 785.6578 161.1669   M 175.4366 282.5174  L 195.4366 302.5174   M 457.1126 60.50706  L 477.1126 80.50706   M 171.4203 269.9861  L 191.4203 289.9861   M 249.5995 239.9704  L 269.5995 259.9704   M 153.0899 278.7745  L 173.0899 298.7745   M 481.8033 64.26313  L 501.8033 84.26313   M 225.629 244.5958  L 245.629 264.5958   M 634.5001 71.86831  L 654.5001 91.86831   M 213.3361 199.6797  L 233.3361 219.6797   M 233.2025 192.9833  L 253.2025 212.9833   M 578.2934 75.48652  L 598.2934 95.48652   M 200.1312 182.7725  L 220.1312 202.7725   M 602.7714 92.17321  L 622.7714 112.1732   M 139.4178 297.489  L 159.4178 317.489   M 685.9718 99.70515  L 705.9718 119.7052   M 122.9825 312.9294  L 142.9825 332.9294   M 541.0334 113.6239  L 561.0334 133.6239   M 140.0955 309.9767  L 160.0955 329.9767   M 159.6835 261.2012  L 179.6835 281.2012   M 621.7882 67.07327  L 641.7882 87.07327   M 199.7329 249.6279  L 219.7329 269.6279   M 204.6759 193.1655  L 224.6759 213.1655   M 620.0601 80.87862  L 640.0601 100.8786   M 238.8481 233.396  L 258.8481 253.396   M 341.2496 86.27873  L 361.2496 106.2787   M 100.596 347.5291  L 120.596 367.5291   M 105.3 326.6765  L 125.3 346.6765   M 611.5726 73.92018  L 631.5726 93.92018   M 109.5929 307.4045  L 129.5929 327.4045   M 118.6077 348.7041  L 138.6077 368.7041   M 213.1902 226.0275  L 233.1902 246.0275   M 181.6443 206.8815  L 201.6443 226.8815   M 560.1516 64.78046  L 580.1516 84.78046   M 436.6138 59.48859  L 456.6138 79.48859   M 138.7225 271.6565  L 158.7225 291.6565   M 181.2308 230.1258  L 201.2308 250.1258   M 192.1939 198.9633  L 212.1939 218.9633   M 164.737 281.0927  L 184.737 301.0927   M 246.8284 164.9281  L 266.8284 184.9281   M 163.3908 245.9385  L 183.3908 265.9385   M 181.6828 217.8968  L 201.6828 237.8968   M 224.4094 255.5664  L 244.4094 275.5663   M 195.1508 231.7033  L 215.1508 251.7033   M 460.9766 74.07396  L 480.9766 94.07396   M 130.3571 281.8229  L 150.3571 301.8229   M 625.7301 90.56218  L 645.7301 110.5622   M 148.4402 264.6998  L 168.4402 284.6998   M 162.3042 224.4359  L 182.3042 244.4359   M 158.3207 235.6862  L 178.3207 255.6862   M 169.8574 216.16  L 189.8574 236.16   M 122.7794 293.4069  L 142.7794 313.4069   M 152.4299 348.4231  L 172.4299 368.4231   M 142.5374 254.8415  L 162.5374 274.8415   M 152.4117 246.9967  L 172.4117 266.9967   M 113.1853 318.1226  L 133.1853 338.1226   M 249.5558 392.706  L 269.5558 412.706   M 242.9543 372.3449  L 262.9543 392.3449   M 259.3564 365.62  L 279.3564 385.62   M 301.3701 336.8663  L 321.3701 356.8663   M 362.6147 263.769  L 382.6147 283.769   M 234.0076 385.8862  L 254.0076 405.8862   M 235.2952 410.9095  L 255.2952 430.9095   M 286.9357 347.9649  L 306.9357 367.9649   M 224.0457 423.3925  L 244.0457 443.3925   M 275.1396 328.6596  L 295.1396 348.6596   M 220.0312 409.012  L 240.0312 429.012   M 392.3114 259.5115  L 412.3114 279.5115   M 266.9221 349.5829  L 286.9221 369.5829   M 353.9456 251.5515  L 373.9456 271.5515   M 401.7749 244.6305  L 421.7749 264.6305   M 354.7737 282.3686  L 374.7737 302.3686   M 207.5531 423.0311  L 227.5531 443.0311   M 381.8657 243.7242  L 401.8657 263.7242   M 410.6952 222.0826  L 430.6952 242.0826   M 418.7007 250.6677  L 438.7007 270.6677   M 299.4237 310.8785  L 319.4237 330.8785   M 428.6526 232.8038  L 448.6526 252.8038   M 345.9227 301.1363  L 365.9227 321.1363   M 313.3517 320.4191  L 333.3517 340.4191   M 219.0329 450.4968  L 239.0329 470.4968   M 219.9163 393.2164  L 239.9163 413.2164   M 244.1008 356.6071  L 264.1008 376.6071   M 335.1455 270.8426  L 355.1455 290.8426   M 443.8282 234.0373  L 463.8282 254.0373   M 194.3696 466.4225  L 214.3696 486.4225   M 462.7549 201.7691  L 482.7549 221.7691   M 474.9295 211.7527  L 494.9295 231.7527   M 330.2199 292.9325  L 350.2199 312.9325   M 197.8084 442.6827  L 217.8084 462.6827   M 373.407 226.4684  L 393.407 246.4684   M 441.2682 215.7917  L 461.2682 235.7917   M 180.2354 442.7122  L 200.2354 462.7122   M 205.8617 403.7877  L 225.8617 423.7877   M 179.8932 512.6608  L 199.8932 532.6608   M 481.4837 187.8896  L 501.4837 207.8896   M 303.6854 288.7888  L 323.6854 308.7888   M 186.5301 487.9947  L 206.5301 507.9947   M 487.3372 202.1747  L 507.3372 222.1747   M 429.6571 205.7362  L 449.6571 225.7362   M 512.4786 187.6909  L 532.4786 207.6909   M 174.2965 479.097  L 194.2965 499.097   M 155.2064 539.64  L 175.2064 559.64   M 449.6127 191.9708  L 469.6127 211.9708   M 164.5172 491.2543  L 184.5172 511.2543   M 169.8797 455.3663  L 189.8797 475.3663   M 161.1839 515.6864  L 181.1839 535.6864   M 502.8333 202.3267  L 522.8333 222.3267   M 167.4226 560.043  L 187.4226 580.043   M 156.6166 472.425  L 176.6166 492.425   M 500.2545 178.2238  L 520.2545 198.2238   M 615.9747 165.6369  L 635.9747 185.6369   M 532.9111 169.3091  L 552.9111 189.3091   M 586.2126 176.8599  L 606.2126 196.8599   M 153.4641 566.3161  L 173.4641 586.3161   M 131.4637 578.0084  L 151.4637 598.0084   M 616.6873 145.9024  L 636.6873 165.9024   M 642.4852 152.8587  L 662.4852 172.8587   M 553.9805 160.262  L 573.9805 180.262   M 161.1265 582.1581  L 181.1265 602.1581   M 173.5452 529.5381  L 193.5452 549.5381   M 144.0498 551.4758  L 164.0498 571.4758   M 534.2898 189.8684  L 554.2898 209.8684   M 315.1782 302.6856  L 335.1782 322.6856   M 593.3589 143.5918  L 613.3589 163.5918   M 149.6839 502.1841  L 169.6839 522.1841   M 603.4944 157.5119  L 623.4944 177.5119   M 557.8095 182.4311  L 577.8095 202.4311   M 140.3879 591.0821  L 160.3879 611.0821   M 579.1281 162.3453  L 599.1281 182.3453   M 670.1949 152.3665  L 690.1949 172.3665   M 136.7227 640.0687  L 156.7227 660.0687   M 887.0388 278.1229  L 896.8387 287.9229   M 129.118 601.8899  L 149.118 621.8899   M 702.3488 162.6945  L 722.3488 182.6945   M 133.4731 618.826  L 153.4731 638.826   M 139.7919 655.2269  L 159.7919 675.2269   M 662.6874 136.7441  L 682.6874 156.7441   M 116.5333 634.9861  L 136.5333 654.9861   M 145.2908 607.1154  L 165.2908 627.1154   M 720.3514 162.9104  L 740.3514 182.9104   M 750.1017 183.8207  L 770.1017 203.8207   M 865.7959 252.3141  L 885.7959 272.3141   M 685.2894 159.8029  L 705.2894 179.8029   M 142.401 732.8436  L 162.401 752.8436   M 126.9373 667.384  L 146.9373 687.384   M 142.1169 680.6497  L 162.1169 700.6497   M 129.4815 717.5206  L 149.4815 737.5206   M 124.6643 649.4655  L 144.6643 669.4655   M 793.2041 194.6011  L 813.2041 214.6011   M 133.1756 698.1848  L 153.1756 718.1848   M 647.4039 138.0102  L 667.4039 158.0102   M 127.1394 683.6725  L 147.1394 703.6725   M 737.7401 163.4165  L 757.7401 183.4165   M 851.015 238.2596  L 871.015 258.2596   M 151.5956 782.3284  L 171.5956 802.3284   M 775.0504 168.312  L 795.0504 188.312   M 808.5963 194.2846  L 828.5963 214.2846   M 843.0219 222.6752  L 863.0219 242.6752   M 164.9083 805.1691  L 184.9083 825.1691   M 137.307 752.4646  L 157.307 772.4646   M 792.4255 177.9344  L 812.4255 197.9344   M 765.8038 183.0801  L 785.8038 203.0801   M 123.524 746.4728  L 143.524 766.4728   M 277.5065 429.166  L 297.5065 449.166   M 283.8794 410.549  L 303.8794 430.549   M 260.0933 411.8167  L 280.0933 431.8167   M 314.9401 355.3046  L 334.9401 375.3046   M 325.6813 329.775  L 345.6813 349.775   M 309.1429 374.0983  L 329.1429 394.0983   M 264.9391 393.3556  L 284.9391 413.3556   M 290.5277 382.5663  L 310.5277 402.5663   M 559.868 226.3535  L 579.868 246.3535   M 342.3414 358.6763  L 362.3414 378.6763   M 456.7651 262.6758  L 476.7651 282.6758   M 265.0369 447.5232  L 285.0369 467.5232   M 369.6276 329.7008  L 389.6276 349.7008   M 518.8781 230.5146  L 538.8781 250.5146   M 538.5663 230.4833  L 558.5663 250.4833   M 451.7764 243.0046  L 471.7764 263.0046   M 349.2176 338.3022  L 369.2176 358.3022   M 488.2107 254.7138  L 508.2107 274.7138   M 398.636 294.2868  L 418.636 314.2868   M 370.4965 308.0713  L 390.4965 328.0713   M 525.3313 202.7753  L 545.3313 222.7753   M 345.5413 314.072  L 365.5413 334.072   M 490.6696 233.5378  L 510.6696 253.5378   M 208.7961 539.5383  L 228.7961 559.5383   M 239.6104 437.1291  L 259.6104 457.1291   M 246.7609 475.1535  L 266.7609 495.1535   M 588.4325 194.5541  L 608.4325 214.5541   M 238.7299 494.9285  L 258.7299 514.9285   M 618.3207 206.1615  L 638.3207 226.1615   M 549.3998 203.5418  L 569.3998 223.5418   M 439.729 271.9056  L 459.729 291.9056   M 815.8405 221.714  L 835.8405 241.714   M 425.713 255.8397  L 445.713 275.8397   M 221.4265 482.6369  L 241.4265 502.6369   M 419.0097 287.5576  L 439.0097 307.5576   M 614.4101 178.7397  L 634.4101 198.7397   M 388.2137 278.0072  L 408.2137 298.0072   M 638.2542 185.194  L 658.2542 205.194   M 566.6931 192.6297  L 586.6931 212.6297   M 786.8801 211.1494  L 806.8801 231.1494   M 741.4226 200.1626  L 761.4226 220.1626   M 209.0616 503.8425  L 229.0616 523.8425   M 639.3734 204.5885  L 659.3734 224.5885   M 771.8846 198.1487  L 791.8846 218.1487   M 873.8071 275.4984  L 893.8071 295.4984   M 237.9698 457.2862  L 257.9698 477.2862   M 845.9589 248.6649  L 865.9589 268.6649   M 664.1121 195.9147  L 684.1121 215.9147   M 894.1169 296.3003  L 908.1169 310.3003   M 835.905 229.1386  L 855.905 249.1386   M 196.2928 561.4704  L 216.2928 581.4704   M 177.9685 619.0973  L 197.9685 639.0973   M 688.0387 200.1618  L 708.0387 220.1618   M 702.8313 186.7707  L 722.8313 206.7707   M 182.908 651.4098  L 202.908 671.4098   M 166.1027 592.4288  L 186.1027 612.4288   M 168.4903 636.809  L 188.4903 656.809   M 188.0327 542.9918  L 208.0327 562.9918   M 148.3951 659.3317  L 168.3951 679.3317   M 905.1088 312.0497  L 911.9688 318.9096   M 175.0959 569.8126  L 195.0959 589.8126   M 172.3116 678.7147  L 192.3116 698.7147   M 912.118 332.3593  L 921.918 342.1593   M 169.1525 714.0212  L 189.1525 734.0212   M 147.3958 693.6649  L 167.3958 713.6649   M 937.6375 394.4036  L 944.4974 401.2636   M 180.9769 793.8218  L 200.9769 813.8218   M 208.6565 835.1701  L 228.6565 855.1701   M 173.4435 763.9433  L 193.4435 783.9433   M 225.3224 872.025  L 235.1224 881.825   M 190.2192 813.6173  L 210.2192 833.6173   M 161.679 736.8555  L 181.679 756.8555   M 478.9539 307.3989  L 498.9539 327.3989   M 455.1777 308.3594  L 475.1777 328.3594   M 393.4195 349.3773  L 413.4195 369.3773   M 341.0399 411.3502  L 361.0399 431.3502   M 421.8942 333.4591  L 441.8942 353.4591   M 430.5477 309.8899  L 450.5477 329.8899   M 496.5837 280.1326  L 516.5837 300.1326   M 525.6438 262.4077  L 545.6438 282.4077   M 322.7576 391.5992  L 342.7576 411.5992   M 366.7699 368.2323  L 386.7699 388.2323   M 298.8592 468.9295  L 318.8592 488.9295   M 290.0482 443.7845  L 310.0482 463.7845   M 263.6624 531.1121  L 283.6624 551.1121   M 269.324 501.7898  L 289.324 521.7898   M 383.0325 328.4915  L 403.0325 348.4915   M 551.946 279.037  L 571.946 299.037   M 251.0878 561.0656  L 271.0878 581.0656   M 270.4625 458.5405  L 290.4625 478.5405   M 345.4767 381.1125  L 365.4767 401.1125   M 228.6971 576.4728  L 248.6971 596.4728   M 307.8342 427.0473  L 327.8342 447.0473   M 546.2686 249.0031  L 566.2686 269.0031   M 207.5413 693.4779  L 227.5413 713.4779   M 222.6965 612.0325  L 242.6965 632.0325   M 201.9197 788.8312  L 221.9197 808.8312   M 200.2458 743.1695  L 220.2458 763.1695   M 498.8564 252.968  L 518.8564 272.968   M 569.3782 258.972  L 589.3782 278.972   M 257.8202 478.5748  L 277.8202 498.5748   M 215.5626 552.0449  L 235.5626 572.0449   M 628.5884 238.4752  L 648.5884 258.4752   M 229.3151 830.5847  L 249.3151 850.5847   M 317.4987 449.5911  L 337.4987 469.5911   M 239.9476 528.1213  L 259.9476 548.1213   M 597.6946 239.2585  L 617.6946 259.2585   M 574.431 235.1811  L 594.431 255.1811   M 665.3513 241.3496  L 685.3513 261.3495   M 184.3836 709.9726  L 204.3836 729.9726   M 210.5712 669.3517  L 230.5712 689.3517   M 704.7905 235.6393  L 724.7905 255.6393   M 208.9249 637.5269  L 228.9249 657.5269   M 214.7383 720.2825  L 234.7383 740.2825   M 893.5447 309.6607  L 913.5447 329.6607   M 748.8519 245.5861  L 768.8519 265.5861   M 275.2084 907.4346  L 282.0684 914.2946   M 795.0087 248.5347  L 815.0087 268.5347   M 216.1268 808.8412  L 236.1268 828.8412   M 685.8764 220.649  L 705.8764 240.649   M 930.4182 382.9387  L 937.2782 389.7986   M 768.285 229.2495  L 788.285 249.2495   M 720.382 210.365  L 740.382 230.365   M 856.188 273.8922  L 876.188 293.8922   M 819.3386 253.0608  L 839.3386 273.0609   M 623.0734 213.4494  L 643.0734 233.4494   M 742.5324 219.3478  L 762.5324 239.3478   M 450.1214 388.217  L 470.1214 408.217   M 420.0021 391.8194  L 440.0021 411.8194   M 405.9046 424.2541  L 425.9046 444.2541   M 429.1083 358.0266  L 449.1083 378.0266   M 488.083 358.6828  L 508.083 378.6828   M 380.2682 393.2015  L 400.2682 413.2015   M 357.3394 422.5525  L 377.3394 442.5525   M 533.1388 330.428  L 553.1388 350.428   M 555.6936 302.9471  L 575.6936 322.9471   M 381.7773 442.2664  L 401.7773 462.2664   M 482.6083 324.2701  L 502.6083 344.2701   M 451.6542 334.0845  L 471.6542 354.0845   M 345.9117 497.0128  L 365.9117 517.0128   M 317.2781 488.6526  L 337.2781 508.6526   M 511.2633 309.5952  L 531.2633 329.5952   M 325.9848 519.8264  L 345.9848 539.8264   M 295.8264 511.7379  L 315.8264 531.7379   M 588.5545 287.3049  L 608.5545 307.3049   M 728.9929 279.3881  L 748.9929 299.3881   M 692.9259 280.084  L 712.9259 300.084   M 615.3717 272.0417  L 635.3717 292.0417   M 646.8414 275.2529  L 666.8414 295.2529   M 295.8493 552.9772  L 315.8493 572.9772   M 531.0176 290.0134  L 551.0176 310.0134   M 285.2634 595.0485  L 305.2634 615.0485   M 767.941 266.1733  L 787.941 286.1733   M 229.044 693.0825  L 249.044 713.0825   M 250.7157 642.3596  L 270.7157 662.3596   M 677.2758 250.8656  L 697.2758 270.8655   M 923.5395 389.2303  L 937.5395 403.2303   M 250.5722 600.2459  L 270.5722 620.2459   M 948.6679 473.7151  L 955.5279 480.5751   M 283.6311 865.2494  L 303.6311 885.2494   M 267.2205 571.4114  L 287.2205 591.4114   M 261.4559 696.8345  L 281.4559 716.8345   M 227.3858 731.0698  L 247.3858 751.0698   M 235.3376 758.9741  L 255.3376 778.9741   M 255.6071 846.9373  L 275.6071 866.9373   M 299.4072 910.4353  L 319.4072 930.4353   M 565.8509 54.60003  L 585.8509 74.60003   M 818.5331 295.4925  L 838.5331 315.4925   M 868.1987 335.9622  L 888.1987 355.9622   M 222.417 785.3593  L 242.417 805.3593   M 900.6562 353.7895  L 920.6562 373.7895   M 233.8473 810.3693  L 253.8473 830.3693   M 845.5159 301.0717  L 865.5159 321.0717   M 355.0274 514.0763  L 375.0274 534.0763   M 446.8763 439.982  L 466.8763 459.982   M 397.0462 484.21  L 417.0462 504.21   M 324.0023 552.175  L 344.0023 572.175   M 330.0478 605.4129  L 350.0478 625.4129   M 391.744 447.7086  L 411.744 467.7086   M 297.8209 574.3154  L 317.8209 594.3154   M 492.739 409.5813  L 512.739 429.5813   M 456.5872 405.03  L 476.5872 425.03   M 517.6601 373.4206  L 537.6601 393.4206   M 310.9648 645.6514  L 330.9648 665.6514   M 592.8954 357.4441  L 612.8954 377.4441   M 285.1685 623.731  L 305.1685 643.731   M 564.1068 327.0758  L 584.1068 347.0758   M 426.6201 467.7044  L 446.6201 487.7044   M 633.9156 333.1718  L 653.9156 353.1718   M 280.2884 691.2686  L 300.2884 711.2686   M 603.515 321.9727  L 623.515 341.9727   M 270.1519 746.3274  L 290.1519 766.3274   M 656.0922 302.8591  L 676.0922 322.8591   M 293.6239 792.4388  L 313.6239 812.4388   M 713.7819 335.8737  L 733.7819 355.8737   M 680.4547 329.8188  L 700.4547 349.8188   M 280.0057 823.9187  L 300.0057 843.9187   M 417.0968 964.4704  L 423.9568 971.3304   M 947.1738 580.5482  L 954.0338 587.4082   M 751.0413 323.4854  L 771.0413 343.4854   M 350.039 923.2789  L 370.039 943.2789   M 322.3456 886.4564  L 342.3456 906.4564   M 456.4849 973.1143  L 463.3449 979.9742   M 912.1464 431.6012  L 932.1464 451.6012   M 944.675 520.8713  L 951.535 527.7313   M 884.2819 397.8464  L 904.2819 417.8464   M 729.3599 289.5341  L 749.3599 309.5341   M 304.894 847.584  L 324.894 867.584   M 826.6457 352.2794  L 846.6457 372.2794   M 864.1255 354.0604  L 884.1255 374.0604   M 939.2264 486.573  L 949.0264 496.373   M 785.6604 333.0049  L 805.6604 353.0049   M 554.7652 389.0346  L 574.7652 409.0346   M 594.5441 404.015  L 614.5441 424.015   M 644.376 380.3861  L 664.376 400.3861   M 603.7618 366.9297  L 623.7618 386.9297   M 469.6242 434.3096  L 489.6242 454.3096   M 505.3104 422.7054  L 525.3104 442.7054   M 739.8404 377.8527  L 759.8404 397.8527   M 678.6812 360.8603  L 698.6812 380.8603   M 456.5997 482.8384  L 476.5997 502.8384   M 862.3248 380.71  L 882.3248 400.71   M 800.7389 394.0471  L 820.7389 414.0471   M 795.7422 355.0905  L 815.7422 375.0905   M 933.4459 500.5695  L 947.4459 514.5695   M 411.4151 537.3492  L 431.4151 557.3492   M 334.9373 732.4102  L 354.9373 752.4102   M 321.0995 665.9166  L 341.0995 685.9166   M 357.2071 625.8656  L 377.2071 645.8656   M 872.5329 416.1377  L 892.5329 436.1377   M 340.9614 590.9017  L 360.9614 610.9017   M 344.9883 830.5624  L 364.9883 850.5624   M 317.561 776.189  L 337.561 796.189   M 399.6789 921.0458  L 419.6789 941.0458   M 366.5465 892.8137  L 386.5465 912.8137   M 421.7335 500.3205  L 441.7335 520.3206   M 475.4615 962.5571  L 489.4615 976.5571   M 397.5289 963.7598  L 404.3889 970.6198   M 187.7837 837.9728  L 207.7837 857.9728   M 466.1176 546.5169  L 486.1176 566.5169   M 412.0568 572.8341  L 432.0568 592.8341   M 498.1659 470.2877  L 518.1659 490.2877   M 589.1295 449.3771  L 609.1295 469.3771   M 391.3915 612.5349  L 411.3915 632.5349   M 401.9002 729.2856  L 421.9002 749.2856   M 387.2806 677.5593  L 407.2806 697.5593   M 474.5285 505.7169  L 494.5285 525.7169   M 611.3445 415.7965  L 631.3445 435.7965   M 755.2706 438.9356  L 775.2706 458.9356   M 817.5093 463.9618  L 837.5093 483.9618   M 399.508 793.9272  L 419.508 813.9272   M 916.7903 505.1273  L 936.7903 525.1273   M 800.9407 407.5952  L 820.9407 427.5952   M 715.5817 412.0746  L 735.5817 432.0746   M 387.1017 868.2994  L 407.1017 888.2994   M 901.5695 559.2035  L 921.5695 579.2035   M 413.5996 906.4747  L 433.5996 926.4747   M 479.0894 951.6856  L 499.0894 971.6856   M 758.7439 392.462  L 778.7439 412.462   M 583.4649 958.7612  L 593.2649 968.5612   M 458.6033 908.2977  L 478.6033 928.2977   M 827.4095 834.0406  L 834.2695 840.9006   M 883.5963 477.2796  L 903.5963 497.2796   M 369.6656 765.0158  L 389.6656 785.0158   M 879.2986 523.6312  L 899.2986 543.6312   M 417.4258 649.599  L 437.4258 669.599   M 411.0479 735.8707  L 431.0479 755.8707   M 463.0904 558.6581  L 483.0904 578.6581   M 444.4742 767.5259  L 464.4742 787.5259   M 697.1623 447.1923  L 717.1623 467.1923   M 463.1375 864.4146  L 483.1375 884.4146   M 831.6764 549.6918  L 851.6764 569.6918   M 837.8425 505.3082  L 857.8425 525.3082   M 507.7689 907.2182  L 527.7689 927.2182   M 869.7505 575.2551  L 889.7505 595.2551   M 736.8758 483.0191  L 756.8758 503.0191   M 783.7294 487.3636  L 803.7294 507.3636   M 431.8969 821.8506  L 451.8969 841.8506   M 895.5789 660.7996  L 915.5789 680.7996   M 882.5452 617.9388  L 902.5452 637.9388   M 778.0666 873.0087  L 784.9266 879.8687   M 705.5684 914.7475  L 715.3683 924.5475   M 875.2633 745.2241  L 885.0633 755.024   M 554.4772 910.3372  L 574.4772 930.3372   M 558.2025 531.5034  L 578.2025 551.5034   M 514.9637 560.0843  L 534.9637 580.0843   M 494.6233 624.4973  L 501.4833 631.3573   M 636.7351 497.2319  L 656.7351 517.2319   M 802.4856 587.4393  L 822.4856 607.4393   M 453.4672 672.8975  L 473.4672 692.8975   M 769.542 530.0023  L 789.542 550.0023   M 527.4418 820.54  L 547.4418 840.54   M 722.4838 510.9551  L 742.4838 530.9551   M 563.2391 900.3123  L 583.2391 920.3123   M 863.6095 642.1425  L 883.6095 662.1425   M 826.3446 770.9937  L 846.3446 790.9937   M 813.8438 641.5494  L 833.8438 661.5494   M 808.6083 701.4427  L 828.6083 721.4427   M 714.5876 866.6085  L 734.5876 886.6085   M 627.8679 889.9735  L 647.8679 909.9735"/> </g></svg>
