<?xml version="1.0" encoding="UTF-8" standalone="no"?>
<!-- Created with Inkscape (http://www.inkscape.org/) -->

<svg
   xmlns:dc="http://purl.org/dc/elements/1.1/"
   xmlns:cc="http://creativecommons.org/ns#"
   xmlns:rdf="http://www.w3.org/1999/02/22-rdf-syntax-ns#"
   xmlns:svg="http://www.w3.org/2000/svg"
   xmlns="http://www.w3.org/2000/svg"
   xmlns:sodipodi="http://sodipodi.sourceforge.net/DTD/sodipodi-0.dtd"
   xmlns:inkscape="http://www.inkscape.org/namespaces/inkscape"
   width="210mm"
   height="297mm"
   viewBox="0 0 210 297"
   version="1.1"
   id="svg8"
   inkscape:version="0.92.4 (5da689c313, 2019-01-14)"
   sodipodi:docname="mushroom inkscape simplified.svg">
  <defs
     id="defs2" />
  <sodipodi:namedview
     id="base"
     pagecolor="#ffffff"
     bordercolor="#666666"
     borderopacity="1.0"
     inkscape:pageopacity="0.0"
     inkscape:pageshadow="2"
     inkscape:zoom="0.98994949"
     inkscape:cx="389.12375"
     inkscape:cy="393.32393"
     inkscape:document-units="mm"
     inkscape:current-layer="g38"
     showgrid="false"
     inkscape:window-width="960"
     inkscape:window-height="1360"
     inkscape:window-x="-7"
     inkscape:window-y="0"
     inkscape:window-maximized="0" />
  <metadata
     id="metadata5">
    <rdf:RDF>
      <cc:Work
         rdf:about="">
        <dc:format>image/svg+xml</dc:format>
        <dc:type
           rdf:resource="http://purl.org/dc/dcmitype/StillImage" />
        <dc:title></dc:title>
      </cc:Work>
    </rdf:RDF>
  </metadata>
  <g
     inkscape:label="Layer 1"
     inkscape:groupmode="layer"
     id="layer1">
    <g
       style="stroke:#000000;stroke-width:1;stroke-opacity:1"
       id="g38"
       transform="matrix(0.26458333,0,0,0.26458333,-5.011133,-2.4432356)">
      <g
         id="g28"
         transform="rotate(-180,461.73866,540.77905)">
        <path
           style="fill:none"
           d="m 240.4697,35.31034 c 204.0652,0 408.1304,0 612.1956,0 M 224.4384,70.62069 c 3.00587,0 6.01173,0 9.0176,0 m 29.0567,0 c 5.67777,0 11.35553,0 17.0333,0 m 9.0176,0 c 5.0098,0 10.0196,0 15.0294,0 m 7.0137,0 c 166.9928,0 333.9856,0 500.9784,0 m 14.0274,0 h 2.48736 0.51854 M 245.4794,105.931 c 7.0137,0 14.0274,0 21.0411,0 m 9.0176,0 c 3.33987,0 6.67973,0 10.0196,0 m 14.0274,0 c 9.01763,0 18.03527,0 27.0529,0 m 5.0097,0 c 7.0137,0 14.0274,0 21.0411,0 m 2.0039,0 c 22.04307,0 44.08613,0 66.1292,0 m 5.0098,0 c 77.48467,0 154.96933,0 232.454,0 m 5.0098,0 c 18.7032,0 37.4064,0 56.1096,0 m 2.0039,0 c 10.68753,0 21.37507,0 32.0626,0 m 2.0039,0 c 6.01173,0 12.02347,0 18.0352,0 m 5.0099,0 c 10.68753,0 21.37507,0 32.0626,0 m 6.0117,0 h 2.48736 1.52044 m 18.0352,0 c 2.6719,0 5.3438,0 8.0157,0 m -574.1213,35.3104 c 2.0039,0 4.0078,0 6.0117,0 m 20.0392,0 c 19.37117,0 38.74233,0 58.1135,0 m 6.0117,0 c 89.17417,0 178.34833,0 267.5225,0 m 4.0079,0 c 9.35157,0 18.70313,0 28.0547,0 m 6.0118,0 c 20.37313,0 40.74627,0 61.1194,0 m 11.0215,0 c 4.6758,0 9.3516,0 14.0274,0 m 6.0117,0 c 4.00783,0 8.01567,0 12.0235,0 m 16.0313,0 c 5.0098,0 10.0196,0 15.0294,0 m 12.0235,0 h 2.48736 0.51844 m 4.0078,0 c 3.33987,0 6.67973,0 10.0196,0 m -564.1017,35.3103 c 7.0137,0 14.0274,0 21.0411,0 m 12.0235,0 c 11.68947,0 23.37893,0 35.0684,0 m 12.0235,0 c 10.01957,0 20.03913,0 30.0587,0 m 12.0235,0 c 6.01173,0 12.02347,0 18.0352,0 m 10.0196,0 c 8.01567,0 16.03133,0 24.047,0 m 9.0176,0 c 53.4377,0 106.8754,0 160.3131,0 m 6.0118,0 c 9.68557,0 19.37113,0 29.0567,0 m 4.0078,0 c 6.67973,0 13.35947,0 20.0392,0 m 3.0058,0 c 1.66993,0 3.33987,0 5.0098,0 m 5.0098,0 c 2.67187,0 5.34373,0 8.0156,0 m 9.0177,0 c 5.67773,0 11.35547,0 17.0332,0 m 7.0137,0 c 9.6856,0 19.3712,0 29.0568,0 m 11.0215,0 c 2.67187,0 5.34373,0 8.0156,0 m 6.0118,0 c 2.67187,0 5.34373,0 8.0156,0 m 32.0627,0 h 2.48736 1.52044 m 40.0783,0 c 1.66993,0 3.33987,0 5.0098,0 m -641.2525,35.3104 c 3.00587,0 6.01173,0 9.0176,0 m 33.0646,0 c 2.3379,0 4.6758,0 7.0137,0 m 13.0255,0 c 8.6836,0 17.3672,0 26.0508,0 m 14.0274,0 c 1.66993,0 3.33987,0 5.0098,0 m 6.0117,0 c 10.68757,0 21.37513,0 32.0627,0 m 1.0019,0 h 2.48736 0.51854 m 6.0118,0 c 8.6836,0 17.3672,0 26.0508,0 m 10.0196,0 c 4.3418,0 8.6836,0 13.0254,0 m 3.0059,0 c 2.00393,0 4.00787,0 6.0118,0 m 6.0117,0 c 5.34377,0 10.68753,0 16.0313,0 m 5.0098,0 c 43.08413,0 86.16827,0 129.2524,0 m 4.0079,0 c 10.68753,0 21.37507,0 32.0626,0 m 12.0235,0 c 6.6797,0 13.3594,0 20.0391,0 m 12.0235,0 c 6.67973,0 13.35947,0 20.0392,0 m 18.0352,0 c 3.67383,0 7.34767,0 11.0215,0 m 4.0078,0 h 2.0039 m 17.0333,0 c 4.00783,0 8.01567,0 12.0235,0 m 2.0039,0 c 2.67187,0 5.34373,0 8.0156,0 m 25.049,0 c 3.67383,0 7.34767,0 11.0215,0 m -522.0196,35.3103 c 2.3379,0 4.6758,0 7.0137,0 m 8.0157,0 h 1.002 m 29.0567,0 c 3.33983,0 6.67967,0 10.0195,0 m 9.0177,0 c 8.01563,0 16.03127,0 24.0469,0 m 7.0138,0 c 3.00587,0 6.01173,0 9.0176,0 m 19.0371,0 c 2.00393,0 4.00787,0 6.0118,0 m 8.0156,0 c 2.00393,0 4.00787,0 6.0118,0 m 6.0117,0 c 6.01173,0 12.02347,0 18.0352,0 m 13.0255,0 c 2.3379,0 4.6758,0 7.0137,0 m 10.0195,0 c 40.4123,0 80.8246,0 121.2369,0 m 6.0117,0 c 2.0039,0 4.0078,0 6.0117,0 m 2.004,0 c 6.01173,0 12.02347,0 18.0352,0 m 22.043,0 c 5.67777,0 11.35553,0 17.0333,0 m 20.0391,0 c 2.3379,0 4.6758,0 7.0137,0 m 27.0529,0 c 4.67577,0 9.35153,0 14.0273,0 m 25.049,0 c 1.6699,0 3.3398,0 5.0097,0 m 14.0274,0 c 1.66993,0 3.33987,0 5.0098,0 m 31.0607,0 c 1.66993,0 3.33987,0 5.0098,0 m -532.0391,35.3104 c 5.00977,0 10.01953,0 15.0293,0 m 15.0294,0 c 1.6699,0 3.3398,0 5.0097,0 m 16.0313,0 c 4.00783,0 8.01567,0 12.0235,0 m 22.0431,0 c 2.0039,0 4.0078,0 6.0117,0 m 32.0626,0 c 1.66993,0 3.33987,0 5.0098,0 m 7.0137,0 c 3.0059,0 6.0118,0 9.0177,0 m 20.0391,0 h 2.48736 1.52044 m 18.0352,0 c 23.045,0 46.09,0 69.135,0 m 10.0196,0 c 16.03133,0 32.06267,0 48.094,0 m 3.0058,0 h 2.48736 1.52044 m 6.0118,0 c 9.01763,0 18.03527,0 27.0529,0 m 30.0586,0 h 2.48736 0.51864 m 17.0332,0 c 2.3379,0 4.6758,0 7.0137,0 m 47.092,0 c 2.3379,0 4.6758,0 7.0137,0 m 35.0685,0 h 2.48736 1.52044 m 7.0137,0 h 2.48736 1.52044 m -482.9432,35.3103 h 2.48736 0.51844 m 15.0294,0 c 4.00783,0 8.01567,0 12.0235,0 m 26.0509,0 h 2.48736 0.51844 m 18.0353,0 c 2.0039,0 4.0078,0 6.0117,0 m 15.0293,0 h 2.48736 1.52054 m 50.0978,0 c 21.70907,0 43.41813,0 65.1272,0 m 28.0548,0 c 15.02937,0 30.05873,0 45.0881,0 m 2.0039,0 c 1.66993,0 3.33987,0 5.0098,0 m 24.047,0 c 4.67577,0 9.35153,0 14.0273,0 m 114.2232,0 c 2.0039,0 4.0078,0 6.0117,0 M 347.679,353.1035 c 3.0059,0 6.0118,0 9.0177,0 m 121.2368,0 c 19.70517,0 39.41033,0 59.1155,0 m 46.0899,0 c 13.35943,0 26.71887,0 40.0783,0 m 47.092,0 c 3.33983,0 6.67967,0 10.0195,0 m 129.2525,0 h 2.0039 M 348.681,388.4138 c 2.6719,0 5.3438,0 8.0157,0 m 117.2289,0 c 19.0372,0 38.0744,0 57.1116,0 m 63.1233,0 c 11.68947,0 23.37893,0 35.0684,0 m 64.1253,0 c 2.3379,0 4.6758,0 7.0137,0 M 348.681,423.7241 c 2.0039,0 4.0078,0 6.0117,0 m 118.231,0 c 17.70123,0 35.40247,0 53.1037,0 m 76.1487,0 c 10.68757,0 21.37513,0 32.0627,0 M 348.681,459.0345 c 1.66993,0 3.33987,0 5.0098,0 m 116.227,0 c 16.69927,0 33.39853,0 50.0978,0 m 88.1723,0 c 10.68753,0 21.37507,0 32.0626,0 m -294.5754,35.3103 h 2.48736 0.51854 m 117.229,0 c 16.69927,0 33.39853,0 50.0978,0 m 96.1879,0 c 11.02153,0 22.04307,0 33.0646,0 m -182.3562,35.3104 c 16.3653,0 32.7306,0 49.0959,0 m 104.2035,0 c 11.02153,0 22.04307,0 33.0646,0 m 50.0979,0 c 27.05283,0 54.10567,0 81.1585,0 m -321.6282,35.3103 c 132.5923,0 265.1846,0 397.7769,0 m -418.818,35.3104 c 140.94193,0 281.88387,0 422.8258,0 m -434.8493,35.3103 c 135.93217,0 271.86433,0 407.7965,0 m -386.7554,35.3103 c 110.54927,0 221.09853,0 331.6478,0 m -334.6537,35.3104 c 16.0313,0 32.0626,0 48.0939,0 m 47.0921,0 c 56.44353,0 112.88707,0 169.3306,0 m -269.5264,35.3103 c 16.03133,0 32.06267,0 48.094,0 m -55.1077,35.3104 c 16.6993,0 33.3986,0 50.0979,0 m -323.6321,35.3103 c 86.1683,0 172.3366,0 258.5049,0 m 4.0078,0 c 18.7032,0 37.4064,0 56.1096,0 m -329.6438,35.3103 c 148.6236,0 297.2472,0 445.8708,0 m 3.0059,0 c 5.67773,0 11.35547,0 17.0332,0 m -430.8414,35.3104 c 169.6647,0 339.3294,0 508.9941,0 M 235.4599,918.069 c 167.99477,0 335.98953,0 503.9843,0 m -437.8551,35.3103 c 144.28177,0 288.56353,0 432.8453,0 m -378.7397,35.3103 c 68.13307,0 136.26613,0 204.3992,0 M 140,828 c 1.12624,19.16932 16.75122,33.15473 31,46 10.86349,7.04226 21.06325,15.82 33,23 8.55341,7.5238 18.98295,13.63099 29,20 19.62683,12.43533 41.98662,22.73225 63,34 16.52686,7.39472 33.28725,14.22563 48,26 8.93924,9.336 18.08094,20.06164 30,26 13.64861,8.1203 32.07886,7.916 48,5 12.82384,-4.23 26.44716,-6.5299 40,-9 15.63761,-3.20822 31.62215,-5.57888 48,-7 17.87374,-2.77623 36.75887,-3.11072 55,-5 21.08086,0.66662 40.90262,-1.7065 62,-1 10.90216,-1.56954 22.4733,-1.52401 33,-4 17.81702,-2.6942 34.86604,-7.24253 51,-14 13.23709,-5.9547 25.13998,-16.54766 32,-29 3.49205,-8.77628 -4.88304,-19.00247 -9,-27 -7.74561,-7.77859 -15.67749,-14.65084 -26,-20 -20.44981,-11.32827 -40.84652,-22.78475 -63,-30 -13.47018,-6.14103 -26.46307,-13.43433 -41,-17 -7.84134,3.71665 -11.31137,2.32133 -16,-3 -12.90606,-0.14592 -23.31502,-6.32036 -36,-7 -15.86937,-3.45345 -31.57463,-7.30308 -49,-7 -9.55255,-2.08321 -21.77925,-1.22417 -28,-9 0.73841,-18.18923 5.03875,-34.90307 6,-53 4.3271,-20.11696 4.88276,-41.79611 9,-62 -1.96138,-11.19935 10.55503,-11.67075 17,-7 16.68544,5.09276 33.53583,9.78726 51,13 16.17259,4.72141 33.86758,5.76742 49,13 10.37826,3.36294 19.82638,8.97145 32,8 9.91848,0.97939 22.129,-1.1404 31,-6 17.39712,-8.94203 35.18674,-18.76685 52,-27 9.59244,-5.74691 21.82639,-10.33885 33,-16 11.93553,-9.01889 27.97803,-14.24681 41,-23 16.72633,-9.88163 32.79616,-19.6877 48,-36 11.38083,-12.48586 19.76179,-27.84016 21,-46 -8.69698,-15.00293 -24.23651,-30.88641 -42,-34 -8.13156,-3.66059 -16.35615,-8.87971 -26,-6 -2.65042,-9.25647 -14.73823,-6.1406 -23,-8 -14.56885,-3.5123 -29.99527,-4.95423 -46,-5 -14.89455,1.78317 -28.5642,6.52352 -44,7 -11.66815,1.05361 -22.77848,3.45393 -33,8 -5.45246,-7.76521 -2.49847,-19.01248 -5,-28 -1.75104,-18.90786 -5.14517,-37.13513 -7,-56 -2.89837,-16.23736 -5.40721,-32.63606 -8,-49 -2.96184,-16.68247 -6.57431,-33.09544 -9,-50 -0.12363,-22.21297 4.69199,-42.38003 6,-64 -0.73197,-9.81461 6.89856,-10.86475 9,-1 9.04728,18.66953 18.3173,36.6438 29,54 7.91683,14.24368 16.51291,27.09108 26,41 8.13419,12.35863 16.94869,24.43547 27,36 -10.81563,-21.01918 -25.46341,-40.45103 -35,-62 -7.3751,-10.70726 -11.56251,-23.58253 -18,-36 -8.46891,-18.00103 -14.72082,-36.92038 -23,-55 -8.15752,-16.13983 -12.52514,-33.84948 -11,-54 1.56385,-6.74795 -1.49442,-16.83755 4,-21 8.27874,16.94173 18.75802,32.97197 22,52 1.79224,6.66289 7.97609,7.85039 11,16 6.10896,12.09294 12.30281,24.15072 19,36 5.02796,6.05246 -6.60038,-16.33299 -5,-13 -4.45141,-12.50338 -12.97597,-23.3196 -17,-36 9.21246,1.91351 8.77278,-5.18275 5,-12 -3.64841,-7.08407 -11.68522,-13.08198 -8,-22 4.25009,-2.19842 -1.52431,-12.09191 -2,-17 -4.09913,-12.17333 7.52964,-3.48515 9,3 12.50323,14.44666 13.78686,34.31032 26,48 3.89931,8.7816 7.86044,19.7932 5,30 -4.15163,-1.04633 -16.30979,-17.57086 -11,-6 7.21246,6.7669 15.64901,13.14699 16,24 3.053,-1.44361 -1.09434,-11.67673 0,-17 -1.4785,-11.41127 -1.68906,-23.34775 -5,-34 0.54775,-4.54205 -4.59887,-20.07699 4,-14 13.94655,8.31388 30.09354,14.70491 36,31 7.93032,9.91057 14.19921,23.06019 22,34 8.14087,10.90683 16.72096,23.64765 26,34 5.38117,7.91766 15.31946,18.85798 21,22 -11.72465,-16.34156 -25.6485,-32.29872 -36,-49 -9.71957,-13.78159 -17.74621,-28.5919 -26,-44 7.58012,-4.02911 17.01265,3.46918 25,5 13.15043,4.54785 20.19669,17.76046 32,24 5.51259,1.10119 9.46358,-17.61338 4,-11 -1.87613,11.927 -14.00803,2.87136 -17,-4 6.55396,-5.97626 -10.49719,-10.83723 -12,-18 -9.07768,-9.44069 -16.33565,-22.27386 -19,-36 5.87222,0.63499 14.01933,11.11798 19,17 3.62442,3.62406 9.41654,15.23401 12,14 -1.21677,-10.76925 -10.94731,-16.69173 -14,-27 -6.48219,-7.76143 -11.4666,-19.59739 -19,-27 -4.83288,-9.52628 -8.85716,-21.66055 -6,-33 13.72232,11.65518 20.49971,28.51375 36,41 13.61367,9.91053 22.24169,24.51751 31,38 8.30885,11.15487 14.2401,23.735 24,35 -6.18726,-15.38362 -16.50574,-27.4892 -24,-42 -8.94307,-14.4792 -17.20832,-30.41894 -26,-45 -9.05291,-18.56387 -21.58481,-35.68669 -24,-57 -0.46153,-6.31394 -5.03623,-13.03573 -3,-19 8.72415,5.10242 5.90184,17.42743 11,25 1.32456,-12.48883 9.58821,0.46007 14,5 9.06461,13.11075 21.44896,24.82306 32,36 -2.22359,-6.52056 -11.0047,-16.44104 -14,-25 -7.95884,-13.10517 -14.19247,-27.81274 -19,-43 7.0433,-1.50934 11.2716,11.17574 18,15 5.35424,6.82031 7.07984,20.48304 10,25 -1.28887,-4.66453 -4.37369,-19.39776 4,-11 14.34159,13.93132 28.24061,25.76379 44,37 11.66087,6.96485 4.17421,1.90431 -1,-5 -13.87214,-8.77227 -23.18725,-21.86446 -35,-32 -5.40158,-5.12155 -12.82248,-16.90867 -1,-9 2.09633,-5.13962 -5.27505,-12.64082 -6,-19 -5.70965,-5.77278 -8.98893,-20.704994 4,-15 10.61176,2.86336 18.56638,17.30669 27,19 -7.9863,-14.88738 -27.78315,-28.137379 -38,-42 -3.42004,-4.631836 -19.80239,-12.7371 -8,-16 6.0833,-2.465813 12.68531,11.969197 18,9 -5.03096,-4.997179 -13.63846,-15.765754 -1,-18 14.20937,-8.04168 28.52821,-15.924735 39,-28 6.77038,-3.327954 14.77301,-17.0885321 1,-14 -219.33333,0 -438.66667,0 -658,0 -3.89523,4.26654 9.46733,8.090689 13,11 6.02217,5.065772 16.84097,5.682951 20,13 -10.90981,11.710675 -25.37133,20.876021 -37,33 10.84986,-2.882794 20.29189,-19.171705 33,-11 2.08579,6.910658 -11.20117,10.519089 -14,16 -6.82846,3.402853 -16.91954,11.625102 -20,16 12.82932,-6.502295 23.33433,-14.697587 36,-22 8.53215,-4.186674 15.65461,-11.776666 25,-14 4.75227,12.470024 -6.15629,26.679516 -13,31 11.26379,-4.0093 5.68708,4.344417 2,10 -4.42869,9.60639 -11.27219,16.5832 -17,25 3.53377,2.48771 16.22606,-13.26313 17,-1 -1.19488,7.19542 -5.19412,13.22924 -5,21 9.59037,-3.16991 1.78843,-12.06709 12,-15 5.01048,-6.54186 17.21472,-11.03146 14,2 -4.7952,7.2829 -0.64371,16.30597 -3,25 1.47411,16.06824 -1.03623,31.88114 -14,41 -13.93357,11.67648 -28.87766,19.87787 -44,30 -15.4725,6.36316 -29.73428,23.73716 -48,17 -11.76852,-3.18003 -4.34247,2.00013 3,3 19.81577,3.85899 41.58693,2.99724 63,3 11.04459,-2.89234 22.64462,-4.44374 33,-9 8.35647,7.94388 8.48142,-6.61007 16,-8 5.84014,-3.81789 12.46989,-11.1713 19,-10 2.73476,10.60472 -8.92097,17.24578 -11,27 -6.2718,11.08268 -13.08214,21.94229 -17,34 9.1769,-12.39683 16.52542,-27.11566 27,-38 4.12101,10.50693 1.39539,5.742 3,-3 3.38955,-14.32929 13.64925,-24.06132 20,-37 3.25155,-4.24424 6.27633,-13.31382 13,-13 -1.62203,-15.79791 11.77376,-24.25158 16,-38 5.99925,-3.63688 6.47125,-18.32399 14,-18 -3.53888,21.37645 -11.93383,40.74145 -23,59 -7.75441,2.13542 -3.15928,15.1751 -11,20 -1.72294,4.49557 -9.19967,19.44541 -1,9 2.2622,-4.34516 7.5292,-18.0309 12,-14 -1.57217,12.7295 -6.68414,23.99276 -10,36 -4.6122,9.94879 4.64945,26.96024 -9,32 -15.74218,8.50805 -32.58921,14.34876 -52,14 -5.33922,-3.47982 -14.27571,3.47823 -20,-3 -9.74071,0.35731 13.15177,6.30693 10,5 20.08888,3.4124 39.89873,-1.93515 57,-9 13.6264,-5.46091 7.84178,13.93058 9,22 1.2305,11.31549 1.60428,24.5568 5,34 -1.71209,-18.72793 -3.08826,-38.98129 -1,-58 2.9281,-8.53532 20.72295,-16.01405 17,-1 -1.10585,25.04845 -1.62682,50.99995 0,76 0.46864,35.61062 1.4983,70.98886 1,107 0.88396,13.44703 -2.09442,25.29422 -3,38 5.39686,-9.76484 6.41537,-23.84894 6,-37 2.49628,-16.04689 1.61442,-33.49304 3,-50 0.43215,-20.62574 1.51581,-40.9816 1,-62 0.68671,-7.96276 2.66327,-17.34358 13,-16 19.65002,1.43463 39.32159,-5.77254 48,-24 7.08047,-17.11455 8.86198,-36.42401 10,-56 1.23746,-13.23498 3.271,-26.1402 3,-40 2.65609,-5.94809 -0.72463,-15.88269 4,-20 4.09055,10.59284 -0.66252,23.74788 1,36 0.6455,20.48633 -0.19307,40.35793 -4,59 -2.96341,12.9026 -6.60893,28.54392 -2,42 1.57745,-11.42074 -0.50107,-26.41158 6,-37 7.35324,-6.06563 6.18671,-17.93267 11,-26 3.55702,-10.24068 5.08618,-21.32132 10,-31 7.28778,9.98398 1.25934,-6.73927 3,-12 1.32734,-8.55477 2.65236,-17.1105 8,-24 2.87073,17.00671 -0.49347,35.01311 -1,52 -1.87123,8.68364 -6.01337,18.29461 -7,26 5.08684,9.21749 -2.92666,19.78244 -2,30 -2.80118,8.669 4.20731,-14.71912 4,-11 5.31675,-17.92599 6.77664,-37.44954 13,-55 4.00239,-11.76028 10.86182,4.98415 10,11 0.52362,25.6311 -2.73312,49.69633 -3,75 -2.86628,14.36503 -2.53197,30.0558 -4,45 1.76418,13.55857 -7.69411,27.20001 -22,26 -9.56557,1.26377 14.45965,-1.7956 11,0 7.14208,-7.02451 10.85841,0.18634 9,8 -3.32783,18.78333 -3.11168,39.03462 -6,58 -1.14327,19.88347 -4.01982,39.04898 -5,59 -1.65635,15.67094 -4.59464,30.81088 -5,47 0.81994,12.2306 -8.01833,19.33022 -17,25 -2.25109,7.00927 -15.13587,11.25975 -9,19 -2.56986,5.8227 -10.99744,6.77361 -8,16 2.0368,14.77531 5.99855,30.18501 19,38 6.78859,5.92239 1.12938,18.57757 2,27 -2.75783,14.82417 -3.84122,30.34191 -7,45 -2.12413,17.16754 -6.42717,33.43254 -10,50 -3.7616,7.34893 -1.88501,21.136 -12,23 -13.69523,-8.75947 -31.85512,-6.74029 -47,-12 -14.76873,-2.89167 -28.83477,-7.47977 -45,-7 -5.7507,-5.65274 -14.78169,-4.89168 -18,2 -6.33234,-8.34781 -18.70594,-6.09992 -29,-7 -12.15796,1.4234 -24.86683,1.51675 -37,3 -20.98417,1.62401 -41.79699,3.66167 -60,12 -14.41418,6.58775 -32.29276,8.93344 -40,24 z m 51,-589 c -1.90308,-5.73652 10.73421,-7.6258 15,-11 16.59482,-9.36873 32.77643,-19.73501 49,-30 3.12177,-3.88353 16.53358,-13.75399 14,-1 -1.31807,9.76669 2.37406,21.04533 -1,29 -12.86837,9.81288 -29.32119,10.97212 -45,14 -11.21665,0.12508 -21.36768,1.7751 -32,-1 z M 233,50 c -2.85023,-5.935576 10.43285,-8.898796 14,-14 9.4294,-3.875916 10.88775,8.703442 3,12 -4.6017,3.065302 -11.80277,6.560592 -17,2 z m 30,46 c -1.69521,-5.293589 0.60098,-18.067763 8,-20 2.00272,5.980795 -2.61374,16.655913 -8,20 z m 1,17 c -4.97125,-4.91488 11.40141,-21.50366 13,-10 -3.89609,3.31509 -6.80592,9.17443 -13,10 z m 6,-49 c -5.22127,-3.438218 6.1604,-21.302452 6,-9 0.57621,3.801746 -1.59715,9.210332 -6,9 z m 3,159 c -2.22316,-5.60577 4.11383,-13.9045 4,-21 5.70335,-13.36163 9.27672,-29.10287 21,-39 6.41703,3.2065 1.41756,15.8741 3,23 -1.16422,15.37039 -13.48875,29.05707 -26,37 h -1 z m 1,-131 c -2.55078,-8.599535 3.50346,-19.960088 8,-28 4.47531,-7.167839 13.85121,-6.917425 8,3 -4.49781,8.477111 -6.18283,21.4198 -16,25 z m 0,104 c -4.13053,-4.03136 2.96674,-21.78682 8,-14 -2.563,2.93585 -3.23119,19.89453 -8,14 z m 2,-26 c -2.80032,-9.26374 0.72504,-22.06284 2,-32 2.4721,-9.51334 15.49458,-7.61284 23,-6 -3.68061,14.72149 -11.21125,29.87719 -24,39 z m 5,-44 c -2.17728,-6.57631 1.80474,-16.87076 4,-24 4.43925,-6.748172 16.54549,-8.209059 14,3 5.85556,8.0398 4.01396,24.31663 -9,23 -3.11384,-0.45033 -7.09586,1.36121 -9,-2 z m 22,-53 c -3.89604,-5.547653 0.9771,-18.958771 10,-13 4.47212,4.696939 -5.65906,15.862377 -10,13 z m 1,19 c -4.01855,-4.531752 12.07774,-16.070254 8,-4 0.4978,6.170506 -5.97114,17.97609 -8,6 v -1 z m 13,30 c -1.37111,-6.88908 8.41401,-15.37004 11,-23 4.63708,-6.560551 8.5544,-18.515394 15,-21 -0.11532,11.720386 -11.15761,24.49068 -18,36 -2.55632,3.06887 -4.84379,6.66764 -8,8 z m 18,141 c -3.60304,-5.49767 9.53408,-13.83642 1,-20 4.31309,-4.88872 8.71102,-7.52505 13,-14 2.20294,9.00539 -0.29107,19.65091 -3,28 -3.60267,2.053 -7.2854,8.2688 -11,6 z m 7,-31 c -2.09985,-5.18428 1.17498,-15.88476 5,-20 2.88925,6.31381 -2.07444,14.69938 -5,20 z m 6,-24 c -2.13849,-6.63765 6.187,-15.21061 7,-23 5.9081,-10.77639 2.64065,4.28224 1,9 -3.18474,3.77313 -2.15566,13.48316 -8,14 z m 3,-97 c -4.37986,-5.26182 8.45796,-15.931717 2,-4 1.95368,0.33312 -0.53543,4.67346 -2,4 z m 7,219 c -2.17374,-11.73364 -0.93384,-28.20324 0,-41 2.23175,-13.45629 -3.26973,-30.11579 10,-39 4.8339,-6.43313 14.53387,-9.70538 12,2 -0.92956,23.60399 2.09752,45.56908 4,68 1.22129,12.61535 -16.3571,12.24108 -25,11 z m 8,-90 c -2.11616,-6.6194 0.33615,-17.59125 2,-25 2.98194,-9.35927 16.67319,1.72576 4,-6 -5.5555,-9.98592 3.1676,-20.92606 4,-31 4.00489,-12.60745 7.23619,-25.53533 14,-37 4.24736,4.98946 -0.78923,15.33157 1,23 -1.23043,13.51403 -1.71951,27.33513 -5,40 -5.58992,7.03577 -1.82442,10.22281 -3,18 -1.8602,8.47211 -9.07698,15.01923 -17,18 z m 19,-140 c -4.12157,-5.647181 10.1252,-14.916027 4,-3 -1.45661,1.342607 -1.06551,3.86229 -4,3 z m 1,208 c -3.09935,-12.46076 0.97824,-28.05938 0,-42 2.76519,-12.48779 0.0164,-27.25955 7,-38 3.61137,5.57551 8.97809,9.70364 14,16 2.83952,9.3868 1.59968,9.8696 10,9 8.68792,7.96793 0.58221,19.90638 2,30 -3.74862,13.59922 -4.18758,28.56934 -18,38 -6.23462,7.10808 -17.95109,3.75018 -15,-7 0,-2 0,-4 0,-6 z m 14,-104 c -2.28407,-6.76337 2.58496,-16.82617 5,-24 4.43017,-4.90927 5.74704,-17.5172 13,-17 1.32929,16.26135 -2.84931,33.09866 -17,41 z m 1,24 c -3.30567,-8.11407 7.69887,-23.28341 17,-22 -1.71777,11.58831 -3.36048,23.20771 -7,34 -3.92834,2.65999 -9.69219,-8.76657 -10,-12 z m 8,-92 c -2.59683,-7.00924 4.41401,-16.35018 6,-24 2.57625,-3.99559 9.37159,-19.549827 10,-7 -2.99442,11.2413 -6.39622,23.4511 -16,31 z m 5,112 c -2.87857,-6.87665 3.69258,-16.06311 4,-24 2.56391,-10.4311 6.52886,-6.47116 5,3 -2.98314,7.14864 2.37678,19.2144 -4,24 -3.12952,0.69397 -3.64521,-0.786 -5,-3 z m 10,-76 c -2.52397,-6.23774 -0.0518,-18.10697 4,-23 2.12444,6.74889 1.64195,19.2311 -4,23 z m 15,59 c -2.89196,-10.03353 1.4219,-23.20784 0,-35 3.56921,-11.76422 -2.76499,-27.63058 9,-36 6.33209,11.2625 0.78235,25.47866 1,38 -4.30585,10.53997 -4.1632,23.09466 -10,33 z m 70,322 c -2.13831,-7.99599 2.66518,-19.25627 2,-29 2.6543,-16.39565 5.12383,-32.86783 6,-50 2.48893,-18.74029 5.86162,-37.11451 8,-56 3.39899,-15.36333 4.79066,-31.55812 8,-47 2.27029,-14.69278 4.98367,-29.20203 7,-44 4.91546,-14.88657 4.52776,-0.21342 9,3 -2.97866,-11.41681 -9.35424,-26.95372 -1,-38 6.46105,-1.20562 1.38815,-13.94519 3,-20 -2.38989,-10.52986 5.70553,-11.59886 8,-2 5.03569,14.01872 6.69954,29.4341 8,45 1.99842,-11.60198 8.23119,3.17275 8,8 0,7.01586 0,19.31215 0,23 5.59865,-10.05301 7.98472,5.40909 9,10 6.06016,15.75613 10.29629,32.2678 14,49 3.39215,15.50423 7.25548,30.8133 9,47 3.6281,19.13036 5.24691,39.09299 7,59 -0.19265,9.48213 5.93331,21.71245 -1,30 -13.12164,1.51107 -27.29961,0.47194 -40,3 -16.45778,3.17098 -34.34954,2.88 -50,8 -3.59305,1.05997 -11.53725,6.14344 -14,1 z m 88,-340 c -3.72355,-9.70074 8.67319,-2.01817 5,6 -3.68558,7.9683 -5.75518,-2.16267 -5,-6 z m 2,-93 c -5.22614,-6.76114 6.21812,-12.79815 4,-1 1.74113,8.35019 -3.96736,11.82922 -4,1 z m 5,137 c -1.15208,-7.24604 -3.14253,-21.0184 2,-28 4.48523,13.30392 4.67038,28.38898 6,43 2.353,5.21415 0.85114,23.26405 -3,10 -2.90245,-7.76777 -3.46483,-16.6659 -5,-25 z m 7,-81 c -1.6827,-6.87903 -1.64015,-19.14363 0,-27 6.38744,-1.39516 3.69587,11.10801 5,16 1.54447,4.58178 5.10062,18.90558 -4,16 -1.90122,-0.9646 -0.63383,-3.37773 -1,-5 z m 5,21 c -5.06591,-6.12192 4.80527,-13.71242 4,-2 1.21275,6.11258 -2.45682,10.62359 -4,2 z m 0,63 c -1.72001,-1.91886 -2.28926,-20.61205 2,-13 8.09824,21.58722 4.66139,48.56298 3,72 -4.68098,7.88298 -3.42058,-20.13506 -4,-13 0.65483,-15.77626 -1.70955,-30.22213 -1,-46 z m 12,-132 c 1.11032,-7.03935 4.53217,7.87189 6,12 -1.61121,4.66437 6.06994,18.87554 -2,14 -2.70932,-7.99944 -4.41769,-16.70932 -4,-26 z m 16,39 c -0.92686,-10.40898 5.99812,1.64081 7,7 0.58528,7.61644 5.86176,16.76655 1,24 -4.48786,-9.56774 -5.74427,-20.52765 -8,-31 z m 13,-55 c -5.43493,-6.06172 8.70014,-13.807916 7,-2 3.47521,4.94325 -0.77246,21.90393 -6,15 0.405,-4.70727 -1.7766,-8.14557 -1,-13 z m 5,36 c -5.42124,-4.15012 5.06878,-17.81596 6,-6 1.70406,13.12258 5.73835,25.27995 6,39 -5.11592,-1.26069 -6.61114,-12.31229 -9,-18 -0.85649,-5.03603 -2.64819,-9.76792 -3,-15 z m 16,16 c -3.5758,-8.91465 4.76451,-7.60569 4,2 2.563,12.14144 6.19619,27.18515 8,41 -8.22058,2.21095 -7.07943,-11.87007 -10,-17 -0.63309,-8.72636 -2.88388,-16.61703 -2,-26 z m 11,62 c -4.39437,-10.34437 8.53177,-1.54039 6,5 -1.48909,6.3813 -5.76566,-3.56203 -6,-5 z m 1,-58 c -3.31321,-10.67031 8.42557,-1.13845 10,5 7.80074,16.19692 13.43027,33.29318 20,50 2.89635,5.62807 8.50734,16.90311 -2,10 -14.33601,-8.36875 -26.43651,-21.63763 -24,-40 -0.76101,-8.55448 -2.76162,-16.60554 -4,-25 z m 26,-40 c -4.05793,-4.65456 1.67766,-18.0582 5,-6 3.54501,4.84765 -1.27066,18.05304 -5,6 z m 1,-25 c -4.75593,-7.189045 4.40679,-12.211565 4,-1 1.21984,5.40388 -2.58051,6.0861 -4,1 z m 1,81 c -1.84224,-2.15881 -2.4109,-21.74974 3,-13 5.64499,7.13796 10.22045,19.87958 4,28 -4.26307,1.88409 -6.83653,-10.70193 -7,-15 z m 5,22 c -3.98221,-9.67417 9.75058,0.2742 7,7 -3.44127,5.49145 -5.75466,-5.19465 -7,-7 z m 6,-62 c -3.18514,-3.58476 -0.35476,-24.11894 6,-13 6.30817,13.7066 17.33544,27.67307 14,44 -6.68928,0.54221 -10.43715,-10.69048 -14,-15 -2.96614,-4.86621 -5.53067,-10.14003 -6,-16 z m 3,68 c -1.42157,-5.10354 0.92937,-14.74451 0,-22 5.56243,-2.49402 10.22458,8.95538 13,14 7.47684,12.13372 12.80046,23.74025 19,36 4.26823,6.8889 8.77718,13.67808 12,21 -10.2049,2.02295 -19.38062,-7.26166 -29,-10 -12.76426,-8.92313 -15.47811,-23.19816 -15,-39 z m 18,-80 c -3.51173,-10.71782 5.96445,-2.7721 8,4 8.4568,19.68701 20.37083,36.53139 30,56 7.77517,6.46058 5.16619,16.0649 -1,4 -11.29631,-12.35184 -19.211,-28.63383 -28,-43 -3.62119,-6.71056 -8.01978,-13.2057 -9,-21 z m 2,-27 c -3.23966,-9.726122 6.08941,2.72188 6,8 4.78987,13.80783 -6.52341,-4.60584 -6,-8 z m 6,102 c -0.947,-8.62922 12.09502,15.38514 0,2 v -1 z m 4,-123 c -5.02965,-8.867841 9.22353,-5.009119 8,3 5.72983,15.19279 13.24271,29.64701 21,44 6.83822,11.89438 -3.31359,5.33994 -7,-2 -8.25926,-14.62937 -14.30206,-30.1393 -22,-45 z m 46,18 c -3.18674,-10.537792 8.13566,-1.45354 9,5 5.05702,6.84255 4.35475,16.91103 -4,6 -2.85082,-3.02577 -3.54846,-7.39167 -5,-11 z m 4,-14 c -3.93946,-10.290022 10.50485,0.742483 12,6 -1.4438,5.690147 -11.32489,-2.996149 -12,-6 z m 0,268 c -0.51625,3.0712 3.0712,-0.51625 0,0 z"
           id="path26"
           inkscape:connector-curvature="0" />
      </g>
    </g>
  </g>
</svg>
