<svg width="800" height="800"    xmlns:xlink="http://www.w3.org/1999/xlink" style="stroke:black; stroke-opacity:1; stroke-width:1;"  xmlns="http://www.w3.org/2000/svg"> <defs id = "genericDefs"/>
                                        <g> <path style = "fill:none;" d = "M 293.0931 32.1608  L 472.4725 32.1608M 142.5425 48.2412  L 630.2302 48.2412M 225.025 52.26131  L 535.7358 52.26131M 297.8979 56.28141  L 473.2733 56.28141M 311.5115 60.30151  L 461.2613 60.30151M 73.67367 64.32161  L 699.0991 64.32161M 168.969 68.34171  L 598.999 68.34171M 240.2402 72.36181  L 531.7317 72.36181M 285.0851 76.38191  L 505.3053 76.38191M 73.67367 80.40201  L 686.2863 80.40201M 198.5986 84.42211  L 586.987 84.42211M 266.6667 88.44221  L 530.9309 88.44221M 289.8899 92.46231  L 504.5045 92.46231M 98.4985 96.48241  L 111.3113 96.48241M 126.5265 96.48241  L 136.9369 96.48241M 156.957 96.48241  L 643.043 96.48241M 236.2362 100.5025  L 561.3614 100.5025M 235.4354 104.5226  L 562.1622 104.5226M 261.8618 108.5427  L 509.3093 108.5427M 209.8098 112.5628  L 623.8239 112.5628M 209.009 116.5829  L 589.3893 116.5829M 210.6106 120.603  L 586.987 120.603M 235.4354 124.6231  L 534.9349 124.6231M 184.985 128.6432  L 612.6126 128.6432M 623.023 128.6432  L 636.6367 128.6432M 188.1882 132.6633  L 611.8118 132.6633M 188.1882 136.6834  L 603.003 136.6834M 209.009 140.7035  L 511.7117 140.7035M 166.5666 144.7236  L 631.8318 144.7236M 635.8358 144.7236  L 655.8558 144.7236M 168.1682 148.7437  L 631.8318 148.7437M 170.5706 152.7638  L 615.8159 152.7638M 189.7898 156.7839  L 519.7197 156.7839M 523.7237 156.7839  L 529.3293 156.7839M 147.3473 160.804  L 649.4495 160.804M 653.4534 160.804  L 661.4614 160.804M 150.5505 164.8241  L 647.8478 164.8241M 150.5505 168.8442  L 627.027 168.8442M 171.3714 172.8643  L 499.6997 172.8643M 519.7197 172.8643  L 524.5245 172.8643M 134.5345 176.8844  L 663.063 176.8844M 673.4734 176.8844  L 683.0831 176.8844M 136.1361 180.9045  L 663.063 180.9045M 137.7377 184.9246  L 624.6246 184.9246M 157.7578 188.9447  L 434.034 188.9447M 435.6356 188.9447  L 461.2613 188.9447M 122.5225 192.9648  L 678.2783 192.9648M 685.4855 192.9648  L 695.0951 192.9648M 122.5225 196.9849  L 675.8759 196.9849M 124.9249 201.005  L 127.3273 201.005M 132.1321 201.005  L 635.035 201.005M 141.7417 205.0251  L 408.4084 205.0251M 412.4124 205.0251  L 434.034 205.0251M 110.5105 209.0452  L 690.2903 209.0452M 692.6927 209.0452  L 695.8959 209.0452M 111.3113 213.0653  L 687.087 213.0653M 112.9129 217.0854  L 587.7878 217.0854M 594.995 217.0854  L 599.7998 217.0854M 607.8078 217.0854  L 617.4174 217.0854M 129.7297 221.1055  L 379.5796 221.1055M 384.3844 221.1055  L 389.99 221.1055M 392.3924 221.1055  L 402.002 221.1055M 408.4084 221.1055  L 414.8148 221.1055M 100.9009 225.1256  L 699.8999 225.1256M 101.7017 229.1457  L 696.6967 229.1457M 103.3033 233.1658  L 560.5605 233.1658M 566.1661 233.1658  L 574.975 233.1658M 121.7217 237.1859  L 361.1612 237.1859M 365.1652 237.1859  L 373.974 237.1859M 91.29129 241.206  L 708.7087 241.206M 93.6937 245.2261  L 706.3063 245.2261M 96.09609 249.2462  L 521.3213 249.2462M 113.7137 253.2663  L 341.9419 253.2663M 346.7467 253.2663  L 347.5475 253.2663M 84.88488 257.2864  L 715.9159 257.2864M 85.68568 261.3065  L 714.3143 261.3065M 87.28729 265.3266  L 90.49049 265.3266M 95.2953 265.3266  L 461.2613 265.3266M 465.2653 265.3266  L 466.8669 265.3266M 473.2733 265.3266  L 486.0861 265.3266M 105.7057 269.3467  L 334.7347 269.3467M 78.47848 273.3668  L 723.924 273.3668M 79.27928 277.3869  L 719.9199 277.3869M 81.68168 281.407  L 455.6557 281.407M 458.0581 281.407  L 466.0661 281.407M 98.4985 285.4272  L 295.4955 285.4272M 305.1051 285.4272  L 307.5075 285.4272M 69.66967 289.4472  L 728.7287 289.4472M 72.87287 293.4673  L 724.7247 293.4673M 75.27527 297.4874  L 436.4364 297.4874M 440.4404 297.4874  L 444.4444 297.4874M 91.29129 301.5075  L 286.6867 301.5075M 292.2923 301.5075  L 295.4955 301.5075M 66.46646 305.5276  L 731.9319 305.5276M 68.06807 309.5477  L 730.3303 309.5477M 71.27127 313.5678  L 74.47447 313.5678M 79.27928 313.5678  L 393.994 313.5678M 397.1972 313.5678  L 411.6116 313.5678M 414.8148 313.5678  L 423.6236 313.5678M 88.88889 317.588  L 265.0651 317.588M 273.0731 317.588  L 280.2803 317.588M 284.2843 317.588  L 296.2963 317.588M 60.86086 321.608  L 736.7368 321.608M 64.06406 325.6281  L 733.5335 325.6281M 65.66566 329.6482  L 387.5876 329.6482M 394.7948 329.6482  L 401.2012 329.6482M 409.2092 329.6482  L 411.6116 329.6482M 83.28328 333.6683  L 246.6466 333.6683M 264.2643 333.6683  L 269.8699 333.6683M 56.85686 337.6884  L 740.7407 337.6884M 60.86086 341.7085  L 736.7368 341.7085M 64.06406 345.7286  L 68.06807 345.7286M 69.66967 345.7286  L 364.3643 345.7286M 370.7708 345.7286  L 376.3764 345.7286M 391.5916 345.7286  L 394.7948 345.7286M 79.27928 349.7487  L 241.8418 349.7487M 56.85686 353.7689  L 740.7407 353.7689M 58.45846 357.7889  L 739.9399 357.7889M 61.66166 361.8091  L 64.86486 361.8091M 68.06807 361.8091  L 352.3524 361.8091M 357.1572 361.8091  L 360.3604 361.8091M 76.07607 365.8291  L 222.6226 365.8291M 233.033 365.8291  L 237.037 365.8291M 54.45445 369.8492  L 743.9439 369.8492M 56.85686 373.8694  L 741.5415 373.8694M 59.25926 377.8894  L 61.66166 377.8894M 66.46646 377.8894  L 323.5235 377.8894M 329.9299 377.8894  L 339.5395 377.8894M 76.07607 381.9095  L 206.6066 381.9095M 53.65365 385.9296  L 746.3463 385.9296M 55.25525 389.9497  L 742.3423 389.9497M 59.25926 393.9698  L 60.86086 393.9698M 64.06406 393.9698  L 311.5115 393.9698M 76.07607 397.9899  L 192.993 397.9899M 48.04805 402.0101  L 746.3463 402.0101M 55.25525 406.0301  L 657.4575 406.0301M 666.2662 406.0301  L 742.3423 406.0301M 59.25926 410.0503  L 61.66166 410.0503M 65.66566 410.0503  L 297.8979 410.0503M 76.07607 414.0704  L 183.3834 414.0704M 48.04805 418.0905  L 746.3463 418.0905M 55.25525 422.1106  L 576.5765 422.1106M 580.5806 422.1106  L 594.995 422.1106M 599.7998 422.1106  L 600.6006 422.1106M 609.4094 422.1106  L 619.019 422.1106M 631.031 422.1106  L 641.4415 422.1106M 650.2502 422.1106  L 651.051 422.1106M 659.8599 422.1106  L 742.3423 422.1106M 59.25926 426.1306  L 60.06006 426.1306M 65.66566 426.1306  L 284.2843 426.1306M 76.07607 430.1508  L 167.3674 430.1508M 53.65365 434.1709  L 743.9439 434.1709M 55.25525 438.1909  L 511.7117 438.1909M 518.1181 438.1909  L 528.5285 438.1909M 533.3334 438.1909  L 560.5605 438.1909M 661.4614 438.1909  L 740.7407 438.1909M 59.25926 442.2111  L 60.86086 442.2111M 66.46646 442.2111  L 267.4675 442.2111M 76.87688 446.2312  L 164.1642 446.2312M 54.45445 450.2513  L 743.9439 450.2513M 57.65766 454.2714  L 494.8949 454.2714M 498.0981 454.2714  L 506.9069 454.2714M 678.2783 454.2714  L 738.3383 454.2714M 62.46246 458.2914  L 64.06406 458.2914M 67.26727 458.2914  L 257.8578 458.2914M 79.27928 462.3116  L 156.957 462.3116M 56.85686 466.3317  L 740.7407 466.3317M 60.06006 470.3517  L 482.0821 470.3517M 493.2933 470.3517  L 494.8949 470.3517M 678.2783 470.3517  L 679.8799 470.3517M 687.087 470.3517  L 688.6887 470.3517M 693.4935 470.3517  L 735.9359 470.3517M 62.46246 474.3719  L 233.8338 474.3719M 236.2362 474.3719  L 245.8458 474.3719M 79.27928 478.3919  L 148.9489 478.3919M 60.06006 482.412  L 737.5375 482.412M 62.46246 486.4322  L 450.8508 486.4322M 689.4894 486.4322  L 732.7327 486.4322M 65.66566 490.4522  L 213.8138 490.4522M 217.8178 490.4522  L 229.029 490.4522M 82.48248 494.4724  L 144.1441 494.4724M 61.66166 498.4925  L 734.3344 498.4925M 66.46646 502.5125  L 431.6316 502.5125M 432.4324 502.5125  L 435.6356 502.5125M 687.8879 502.5125  L 710.3103 502.5125M 713.5135 502.5125  L 728.7287 502.5125M 72.07207 506.5327  L 73.67367 506.5327M 76.87688 506.5327  L 211.4114 506.5327M 227.4274 506.5327  L 229.029 506.5327M 86.48648 510.5527  L 133.7337 510.5527M 66.46646 514.5729  L 731.1311 514.5729M 71.27127 518.593  L 401.2012 518.593M 412.4124 518.593  L 422.8228 518.593M 687.087 518.593  L 691.0911 518.593M 699.8999 518.593  L 700.7007 518.593M 709.5095 518.593  L 710.3103 518.593M 717.5175 518.593  L 723.1231 518.593M 77.67768 522.613  L 201.8018 522.613M 209.8098 522.613  L 217.8178 522.613M 93.6937 526.6332  L 136.9369 526.6332M 60.86086 530.6533  L 67.26727 530.6533M 72.87287 530.6533  L 724.7247 530.6533M 76.87688 534.6733  L 383.5836 534.6733M 387.5876 534.6733  L 397.998 534.6733M 415.6156 534.6733  L 416.4164 534.6733M 687.8879 534.6733  L 694.2943 534.6733M 713.5135 534.6733  L 716.7167 534.6733M 84.08408 538.6935  L 203.4034 538.6935M 100.1001 542.7136  L 120.9209 542.7136M 78.47848 546.7336  L 715.9159 546.7336M 84.08408 550.7538  L 373.1732 550.7538M 707.9079 550.7538  L 710.3103 550.7538M 90.49049 554.7739  L 92.09209 554.7739M 95.2953 554.7739  L 192.993 554.7739M 118.5185 558.7939  L 124.1241 558.7939M 88.08809 562.814  L 709.5095 562.814M 92.09209 566.8342  L 370.7708 566.8342M 699.0991 566.8342  L 701.5015 566.8342M 96.8969 570.8543  L 194.5946 570.8543M 94.49449 578.8945  L 702.3023 578.8945M 100.1001 582.9146  L 355.5556 582.9146M 106.5065 586.9347  L 176.1762 586.9347M 103.3033 594.9749  L 691.0911 594.9749M 110.5105 598.995  L 336.3363 598.995M 116.1161 603.0151  L 176.1762 603.0151M 110.5105 611.0553  L 680.6807 611.0553M 120.9209 615.0754  L 335.5355 615.0754M 137.7377 619.0955  L 180.1802 619.0955M 125.7257 627.1357  L 668.6686 627.1357M 133.7337 631.1558  L 322.7227 631.1558M 140.9409 643.2161  L 655.0551 643.2161M 148.1481 647.2361  L 321.1211 647.2361M 325.1251 647.2361  L 325.9259 647.2361M 331.5315 647.2361  L 334.7347 647.2361M 156.957 659.2964  L 638.2382 659.2964M 164.965 663.3166  L 332.3323 663.3166M 175.3754 675.3769  L 622.2222 675.3769M 184.985 679.397  L 323.5235 679.397M 194.5946 691.4573  L 603.003 691.4573M 206.6066 695.4774  L 322.7227 695.4774M 219.4194 707.5377  L 574.975 707.5377M 235.4354 711.5577  L 343.5435 711.5577M 250.6507 723.6181  L 544.5446 723.6181M 272.2723 727.6382  L 341.9419 727.6382M 297.0971 739.6985  L 507.7077 739.6985M 373.974 755.7789  L 426.026 755.7789"/> </g> </svg>
