<svg width="800" height="800"    xmlns:xlink="http://www.w3.org/1999/xlink" style="stroke:black; stroke-opacity:1; stroke-width:1;"  xmlns="http://www.w3.org/2000/svg"> <defs id = "genericDefs"/>
                                        <g> <path style = "fill:none;" d = "M 374.7748 56.28141  L 410.01 56.28141M 311.5115 60.30151  L 461.2613 60.30151M 295.4955 64.32161  L 485.2853 64.32161M 281.8819 68.34171  L 496.4965 68.34171M 278.6787 72.36181  L 505.3053 72.36181M 285.0851 76.38191  L 505.3053 76.38191M 284.2843 80.40201  L 508.5085 80.40201M 280.2803 84.42211  L 499.6997 84.42211M 294.6947 88.44221  L 510.1101 88.44221M 289.8899 92.46231  L 504.5045 92.46231M 284.2843 96.48241  L 506.9069 96.48241M 279.4795 100.5025  L 507.7077 100.5025M 267.4675 104.5226  L 507.7077 104.5226M 261.8618 108.5427  L 509.3093 108.5427M 257.057 112.5628  L 519.7197 112.5628M 249.8498 116.5829  L 526.9269 116.5829M 241.8418 120.603  L 529.3293 120.603M 235.4354 124.6231  L 534.9349 124.6231M 228.2282 128.6432  L 531.7317 128.6432M 221.8218 132.6633  L 494.8949 132.6633M 501.3013 132.6633  L 526.1261 132.6633M 217.017 136.6834  L 505.3053 136.6834M 209.009 140.7035  L 511.7117 140.7035M 205.005 144.7236  L 518.1181 144.7236M 197.7978 148.7437  L 519.7197 148.7437M 193.7938 152.7638  L 519.7197 152.7638M 523.7237 152.7638  L 532.5325 152.7638M 189.7898 156.7839  L 519.7197 156.7839M 523.7237 156.7839  L 529.3293 156.7839M 184.985 160.804  L 512.5125 160.804M 514.1141 160.804  L 535.7358 160.804M 182.5826 164.8241  L 512.5125 164.8241M 513.3133 164.8241  L 520.5205 164.8241M 524.5245 164.8241  L 533.3334 164.8241M 176.1762 168.8442  L 501.3013 168.8442M 506.1061 168.8442  L 510.1101 168.8442M 521.3213 168.8442  L 530.1301 168.8442M 171.3714 172.8643  L 499.6997 172.8643M 519.7197 172.8643  L 524.5245 172.8643M 167.3674 176.8844  L 499.6997 176.8844M 163.3634 180.9045  L 476.4765 180.9045M 483.6837 180.9045  L 501.3013 180.9045M 160.1602 184.9246  L 464.4645 184.9246M 467.6677 184.9246  L 470.8709 184.9246M 486.8869 184.9246  L 490.8909 184.9246M 157.7578 188.9447  L 434.034 188.9447M 435.6356 188.9447  L 461.2613 188.9447M 152.9529 192.9648  L 458.8589 192.9648M 477.2773 192.9648  L 483.6837 192.9648M 149.7497 196.9849  L 429.2292 196.9849M 434.034 196.9849  L 446.046 196.9849M 450.05 196.9849  L 454.0541 196.9849M 145.7457 201.005  L 448.4484 201.005M 141.7417 205.0251  L 408.4084 205.0251M 412.4124 205.0251  L 434.034 205.0251M 140.1401 209.0452  L 414.014 209.0452M 418.018 209.0452  L 426.8268 209.0452M 136.1361 213.0653  L 423.6236 213.0653M 134.5345 217.0854  L 380.3804 217.0854M 382.7828 217.0854  L 408.4084 217.0854M 410.01 217.0854  L 418.018 217.0854M 129.7297 221.1055  L 379.5796 221.1055M 384.3844 221.1055  L 389.99 221.1055M 392.3924 221.1055  L 402.002 221.1055M 408.4084 221.1055  L 414.8148 221.1055M 128.1281 225.1256  L 386.7868 225.1256M 128.1281 229.1457  L 370.7708 229.1457M 373.1732 229.1457  L 379.5796 229.1457M 124.9249 233.1658  L 365.966 233.1658M 370.7708 233.1658  L 378.7788 233.1658M 121.7217 237.1859  L 361.1612 237.1859M 365.1652 237.1859  L 373.974 237.1859M 117.7177 241.206  L 360.3604 241.206M 365.966 241.206  L 369.1692 241.206M 116.9169 245.2261  L 345.9459 245.2261M 361.962 245.2261  L 363.5636 245.2261M 116.1161 249.2462  L 348.3483 249.2462M 113.7137 253.2663  L 341.9419 253.2663M 346.7467 253.2663  L 347.5475 253.2663M 111.3113 257.2864  L 331.5315 257.2864M 340.3403 257.2864  L 345.1451 257.2864M 108.9089 261.3065  L 330.7307 261.3065M 337.1371 261.3065  L 345.1451 261.3065M 105.7057 265.3266  L 338.7387 265.3266M 105.7057 269.3467  L 334.7347 269.3467M 101.7017 273.3668  L 324.3243 273.3668M 100.9009 277.3869  L 322.7227 277.3869M 100.9009 281.407  L 299.4995 281.407M 302.7027 281.407  L 319.5195 281.407M 98.4985 285.4272  L 295.4955 285.4272M 305.1051 285.4272  L 307.5075 285.4272M 96.09609 289.4472  L 293.0931 289.4472M 298.6987 289.4472  L 305.1051 289.4472M 95.2953 293.4673  L 289.0891 293.4673M 298.6987 293.4673  L 304.3043 293.4673M 94.49449 297.4874  L 287.4875 297.4874M 297.0971 297.4874  L 298.6987 297.4874M 91.29129 301.5075  L 286.6867 301.5075M 292.2923 301.5075  L 295.4955 301.5075M 91.29129 305.5276  L 274.6747 305.5276M 280.2803 305.5276  L 286.6867 305.5276M 293.0931 305.5276  L 297.8979 305.5276M 88.08809 309.5477  L 265.0651 309.5477M 267.4675 309.5477  L 276.2763 309.5477M 281.0811 309.5477  L 286.6867 309.5477M 88.88889 313.5678  L 266.6667 313.5678M 273.0731 313.5678  L 281.0811 313.5678M 281.8819 313.5678  L 293.8939 313.5678M 88.88889 317.588  L 265.0651 317.588M 273.0731 317.588  L 280.2803 317.588M 284.2843 317.588  L 296.2963 317.588M 88.08809 321.608  L 258.6587 321.608M 274.6747 321.608  L 279.4795 321.608M 284.2843 321.608  L 289.8899 321.608M 85.68568 325.6281  L 273.0731 325.6281M 83.28328 329.6482  L 256.2563 329.6482M 257.8578 329.6482  L 271.4715 329.6482M 83.28328 333.6683  L 246.6466 333.6683M 264.2643 333.6683  L 269.8699 333.6683M 80.88088 337.6884  L 251.4514 337.6884M 255.4554 337.6884  L 257.8578 337.6884M 80.88088 341.7085  L 241.041 341.7085M 248.2482 341.7085  L 260.2603 341.7085M 80.88088 345.7286  L 238.6386 345.7286M 249.8498 345.7286  L 261.8618 345.7286M 79.27928 349.7487  L 241.8418 349.7487M 79.27928 353.7689  L 238.6386 353.7689M 79.27928 357.7889  L 223.4234 357.7889M 233.8338 357.7889  L 239.4394 357.7889M 76.87688 361.8091  L 221.021 361.8091M 231.4314 361.8091  L 237.037 361.8091M 76.07607 365.8291  L 222.6226 365.8291M 233.033 365.8291  L 237.037 365.8291M 76.07607 369.8492  L 215.4154 369.8492M 224.2242 369.8492  L 231.4314 369.8492M 232.2322 369.8492  L 235.4354 369.8492M 76.07607 373.8694  L 214.6146 373.8694M 225.8258 373.8694  L 229.029 373.8694M 76.07607 377.8894  L 222.6226 377.8894M 76.07607 381.9095  L 206.6066 381.9095M 76.07607 385.9296  L 204.2042 385.9296M 76.07607 389.9497  L 204.2042 389.9497M 76.07607 393.9698  L 196.1962 393.9698M 199.3994 393.9698  L 201.001 393.9698M 76.07607 397.9899  L 192.993 397.9899M 76.07607 402.0101  L 189.7898 402.0101M 76.07607 406.0301  L 191.3914 406.0301M 76.07607 410.0503  L 191.3914 410.0503M 76.07607 414.0704  L 183.3834 414.0704M 76.07607 418.0905  L 179.3794 418.0905M 76.07607 422.1106  L 176.1762 422.1106M 76.07607 426.1306  L 168.969 426.1306M 76.07607 430.1508  L 167.3674 430.1508M 76.07607 434.1709  L 165.7658 434.1709M 76.87688 438.1909  L 166.5666 438.1909M 76.87688 442.2111  L 164.965 442.2111M 76.87688 446.2312  L 164.1642 446.2312M 76.87688 450.2513  L 160.1602 450.2513M 76.87688 454.2714  L 155.3554 454.2714M 76.87688 458.2914  L 154.5546 458.2914M 79.27928 462.3116  L 156.957 462.3116M 79.27928 466.3317  L 152.1521 466.3317M 79.27928 470.3517  L 151.3513 470.3517M 159.3594 470.3517  L 160.1602 470.3517M 79.27928 474.3719  L 148.9489 474.3719M 79.27928 478.3919  L 148.9489 478.3919M 79.27928 482.412  L 148.9489 482.412M 81.68168 486.4322  L 144.9449 486.4322M 82.48248 490.4522  L 141.7417 490.4522M 82.48248 494.4724  L 144.1441 494.4724M 84.08408 498.4925  L 137.7377 498.4925M 85.68568 502.5125  L 134.5345 502.5125M 85.68568 506.5327  L 134.5345 506.5327M 86.48648 510.5527  L 133.7337 510.5527M 88.08809 514.5729  L 135.3353 514.5729M 89.68969 518.593  L 135.3353 518.593M 92.09209 522.613  L 136.1361 522.613M 93.6937 526.6332  L 136.9369 526.6332M 95.2953 530.6533  L 129.7297 530.6533M 133.7337 530.6533  L 136.1361 530.6533M 98.4985 534.6733  L 128.9289 534.6733M 98.4985 538.6935  L 121.7217 538.6935M 100.1001 542.7136  L 120.9209 542.7136M 102.5025 546.7336  L 120.9209 546.7336M 107.3073 550.7538  L 124.1241 550.7538M 116.9169 554.7739  L 124.1241 554.7739M 118.5185 558.7939  L 124.1241 558.7939M 262.6627 56.56565  L 510.1101 56.56565M 225.025 64.64646  L 539.7397 64.64646M 217.8178 72.72727  L 554.955 72.72727M 237.037 80.80808  L 539.7397 80.80808M 261.8618 88.88889  L 534.9349 88.88889M 247.4474 96.9697  L 551.7518 96.9697M 230.6306 105.0505  L 566.1661 105.0505M 218.6186 113.1313  L 578.9789 113.1313M 205.8058 121.2121  L 591.7917 121.2121M 195.3954 129.2929  L 603.003 129.2929M 184.1842 137.3737  L 615.015 137.3737M 174.5746 145.4545  L 623.8239 145.4545M 166.5666 153.5354  L 633.4334 153.5354M 156.1562 161.6162  L 640.6406 161.6162M 148.9489 169.697  L 648.6486 169.697M 140.1401 177.7778  L 656.6566 177.7778M 133.7337 185.8586  L 663.063 185.8586M 127.3273 193.9394  L 670.2703 193.9394M 121.7217 202.0202  L 675.8759 202.0202M 116.1161 210.101  L 670.2703 210.101M 673.4734 210.101  L 681.4814 210.101M 111.3113 218.1818  L 677.4775 218.1818M 105.7057 226.2626  L 676.6766 226.2626M 101.7017 234.3434  L 675.8759 234.3434M 96.8969 242.4243  L 677.4775 242.4243M 92.89289 250.505  L 662.2623 250.505M 671.071 250.505  L 679.8799 250.505M 89.68969 258.5858  L 665.4655 258.5858M 85.68568 266.6667  L 618.2183 266.6667M 619.8198 266.6667  L 655.8558 266.6667M 82.48248 274.7475  L 598.999 274.7475M 604.6046 274.7475  L 611.8118 274.7475M 614.2142 274.7475  L 619.8198 274.7475M 624.6246 274.7475  L 630.2302 274.7475M 632.6326 274.7475  L 636.6367 274.7475M 648.6486 274.7475  L 654.2543 274.7475M 664.6647 274.7475  L 674.2742 274.7475M 78.47848 282.8283  L 580.5806 282.8283M 582.1822 282.8283  L 598.999 282.8283M 623.023 282.8283  L 628.6287 282.8283M 640.6406 282.8283  L 642.2422 282.8283M 667.8679 282.8283  L 671.8718 282.8283M 76.07607 290.9091  L 570.1702 290.9091M 582.983 290.9091  L 586.1862 290.9091M 615.015 290.9091  L 623.8239 290.9091M 630.2302 290.9091  L 632.6326 290.9091M 73.67367 298.9899  L 530.9309 298.9899M 532.5325 298.9899  L 548.5486 298.9899M 551.7518 298.9899  L 556.5566 298.9899M 71.27127 307.0707  L 518.1181 307.0707M 529.3293 307.0707  L 532.5325 307.0707M 550.9509 307.0707  L 555.7557 307.0707M 68.06807 315.1515  L 499.6997 315.1515M 513.3133 315.1515  L 517.3173 315.1515M 66.46646 323.2323  L 494.8949 323.2323M 64.86486 331.3131  L 476.4765 331.3131M 496.4965 331.3131  L 498.0981 331.3131M 62.46246 339.394  L 468.4685 339.394M 477.2773 339.394  L 488.4885 339.394M 61.66166 347.4747  L 465.2653 347.4747M 60.86086 355.5556  L 451.6517 355.5556M 59.25926 363.6364  L 446.046 363.6364M 59.25926 371.7172  L 398.7988 371.7172M 409.2092 371.7172  L 419.6196 371.7172M 424.4244 371.7172  L 430.8308 371.7172M 434.034 371.7172  L 436.4364 371.7172M 442.8428 371.7172  L 445.2452 371.7172M 58.45846 379.798  L 398.7988 379.798M 404.4044 379.798  L 407.6076 379.798M 429.2292 379.798  L 432.4324 379.798M 57.65766 387.8788  L 395.5956 387.8788M 397.998 387.8788  L 405.2052 387.8788M 57.65766 395.9596  L 387.5876 395.9596M 393.1932 395.9596  L 394.7948 395.9596M 399.5996 395.9596  L 400.4004 395.9596M 56.85686 404.0404  L 382.7828 404.0404M 386.7868 404.0404  L 392.3924 404.0404M 56.85686 412.1212  L 365.966 412.1212M 366.7668 412.1212  L 377.978 412.1212M 56.85686 420.202  L 361.1612 420.202M 364.3643 420.202  L 370.7708 420.202M 57.65766 428.2828  L 336.3363 428.2828M 339.5395 428.2828  L 352.3524 428.2828M 354.7548 428.2828  L 357.1572 428.2828M 57.65766 436.3636  L 338.7387 436.3636M 345.9459 436.3636  L 350.7508 436.3636M 58.45846 444.4445  L 329.1291 444.4445M 343.5435 444.4445  L 344.3443 444.4445M 59.25926 452.5252  L 311.5115 452.5252M 316.3163 452.5252  L 333.1331 452.5252M 59.25926 460.606  L 306.7067 460.606M 317.9179 460.606  L 322.7227 460.606M 333.9339 460.606  L 334.7347 460.606M 61.66166 468.6869  L 301.1011 468.6869M 305.9059 468.6869  L 310.7107 468.6869M 326.7267 468.6869  L 329.1291 468.6869M 62.46246 476.7677  L 309.1091 476.7677M 64.86486 484.8485  L 286.6867 484.8485M 289.8899 484.8485  L 297.8979 484.8485M 66.46646 492.9293  L 276.2763 492.9293M 283.4835 492.9293  L 289.0891 492.9293M 68.06807 501.0101  L 287.4875 501.0101M 71.27127 509.0909  L 277.0771 509.0909M 73.67367 517.1717  L 270.6707 517.1717M 278.6787 517.1717  L 281.8819 517.1717M 76.07607 525.2526  L 261.061 525.2526M 78.47848 533.3334  L 251.4514 533.3334M 255.4554 533.3334  L 265.0651 533.3334M 83.28328 541.4141  L 241.8418 541.4141M 247.4474 541.4141  L 260.2603 541.4141M 86.48648 549.4949  L 245.8458 549.4949M 89.68969 557.5757  L 244.2442 557.5757M 92.89289 565.6566  L 245.8458 565.6566M 97.6977 573.7374  L 238.6386 573.7374M 101.7017 581.8182  L 237.8378 581.8182M 107.3073 589.899  L 230.6306 589.899M 112.1121 597.9798  L 229.8298 597.9798M 116.9169 606.0606  L 233.033 606.0606M 123.3233 614.1414  L 222.6226 614.1414M 129.7297 622.2222  L 224.2242 622.2222M 136.1361 630.303  L 215.4154 630.303M 143.3433 638.3838  L 212.2122 638.3838M 150.5505 646.4647  L 216.2162 646.4647M 159.3594 654.5455  L 216.2162 654.5455M 168.1682 662.6263  L 222.6226 662.6263M 177.7778 670.7071  L 184.1842 670.7071M 189.7898 670.7071  L 207.4074 670.7071M 188.989 678.7879  L 198.5986 678.7879M 207.4074 678.7879  L 214.6146 678.7879M 374.7748 27.11864  L 382.7828 27.11864M 402.8028 27.11864  L 404.4044 27.11864M 412.4124 27.11864  L 414.014 27.11864M 421.2212 27.11864  L 436.4364 27.11864M 160.961 40.67796  L 176.977 40.67796M 180.1802 40.67796  L 186.5866 40.67796M 189.7898 40.67796  L 198.5986 40.67796M 225.8258 40.67796  L 552.5526 40.67796M 92.09209 54.23729  L 96.8969 54.23729M 104.1041 54.23729  L 662.2623 54.23729M 73.67367 67.79662  L 699.0991 67.79662M 73.67367 81.35593  L 686.2863 81.35593M 98.4985 94.91525  L 112.1121 94.91525M 118.5185 94.91525  L 654.2543 94.91525M 111.3113 108.4746  L 136.1361 108.4746M 192.1922 108.4746  L 199.3994 108.4746M 216.2162 108.4746  L 617.4174 108.4746M 636.6367 108.4746  L 648.6486 108.4746M 195.3954 122.0339  L 603.003 122.0339M 604.6046 122.0339  L 623.8239 122.0339M 173.7738 135.5932  L 622.2222 135.5932M 623.8239 135.5932  L 637.4374 135.5932M 160.1602 149.1525  L 637.4374 149.1525M 640.6406 149.1525  L 660.6606 149.1525M 147.3473 162.7119  L 650.2502 162.7119M 661.4614 162.7119  L 673.4734 162.7119M 134.5345 176.2712  L 663.063 176.2712M 673.4734 176.2712  L 683.0831 176.2712M 122.5225 189.8305  L 675.0751 189.8305M 686.2863 189.8305  L 689.4894 189.8305M 116.1161 203.3898  L 687.087 203.3898M 689.4894 203.3898  L 695.8959 203.3898M 106.5065 216.9492  L 693.4935 216.9492M 98.4985 230.5085  L 703.1031 230.5085M 91.29129 244.0678  L 709.5095 244.0678M 84.08408 257.6271  L 715.9159 257.6271M 79.27928 271.1865  L 722.3223 271.1865M 72.87287 284.7458  L 726.3263 284.7458M 68.86887 298.3051  L 731.1311 298.3051M 60.06006 311.8644  L 734.3344 311.8644M 60.86086 325.4237  L 737.5375 325.4237M 743.1431 325.4237  L 749.5496 325.4237M 56.85686 338.9831  L 740.7407 338.9831M 56.85686 352.5424  L 740.7407 352.5424M 54.45445 366.1017  L 743.9439 366.1017M 53.65365 379.661  L 743.9439 379.661M 53.65365 393.2203  L 746.3463 393.2203M 48.04805 406.7797  L 746.3463 406.7797M 48.04805 420.339  L 746.3463 420.339M 53.65365 433.8983  L 743.9439 433.8983M 53.65365 447.4576  L 743.9439 447.4576M 54.45445 461.0169  L 740.7407 461.0169M 57.65766 474.5763  L 739.1391 474.5763M 60.06006 488.1356  L 736.7368 488.1356M 63.26326 501.6949  L 734.3344 501.6949M 67.26727 515.2543  L 729.5295 515.2543M 60.86086 528.8135  L 66.46646 528.8135M 72.87287 528.8135  L 725.5255 528.8135M 78.47848 542.3729  L 719.1191 542.3729M 83.28328 555.9322  L 712.7127 555.9322M 91.29129 569.4915  L 706.3063 569.4915M 97.6977 583.0508  L 699.8999 583.0508M 104.9049 596.6102  L 691.0911 596.6102M 110.5105 610.1695  L 681.4814 610.1695M 123.3233 623.7288  L 674.2742 623.7288M 136.9369 637.2881  L 659.8599 637.2881M 148.1481 650.8474  L 647.0471 650.8474M 160.961 664.4068  L 634.2343 664.4068M 177.7778 677.9661  L 619.019 677.9661M 194.5946 691.5254  L 603.003 691.5254M 216.2162 705.0848  L 580.5806 705.0848M 228.2282 718.644  L 232.2322 718.644M 241.8418 718.644  L 553.3533 718.644M 273.0731 732.2034  L 524.5245 732.2034M 286.6867 745.7628  L 295.4955 745.7628M 313.9139 745.7628  L 483.6837 745.7628"/> </g> </svg>
