<svg width="800" height="800"    xmlns:xlink="http://www.w3.org/1999/xlink" style="stroke:black; stroke-opacity:1; stroke-width:1;"  xmlns="http://www.w3.org/2000/svg"> <defs id = "genericDefs"/>
                                        <g> <path style = "fill:none;" d = "M 132 836  L 132 837L 132 837  L 132 838L 132 838  L 132 839L 132 839  L 133 840L 133 840  L 133 841L 133 841  L 134 842L 134 842  L 134 843L 134 843  L 134 844L 134 844  L 134 845L 134 845  L 135 846L 135 846  L 135 847L 135 847  L 136 848L 136 848  L 136 849L 136 849  L 136 850L 136 850  L 137 851L 137 851  L 138 851L 138 851  L 139 852L 139 852  L 139 853L 139 853  L 140 854L 140 854  L 140 855L 140 855  L 141 856L 141 856  L 141 857L 141 857  L 142 858L 142 858  L 143 859L 143 859  L 143 860L 143 860  L 144 861L 144 861  L 144 862L 144 862  L 145 863L 145 863  L 146 863L 146 863  L 147 864L 147 864  L 148 865L 148 865  L 148 866L 148 866  L 149 867L 149 867  L 150 867L 150 867  L 151 868L 151 868  L 152 869L 152 869  L 152 870L 152 870  L 153 871L 153 871  L 154 871L 154 871  L 155 872L 155 872  L 156 873L 156 873  L 156 874L 156 874  L 157 875L 157 875  L 158 875L 158 875  L 159 876L 159 876  L 160 877L 160 877  L 160 878L 160 878  L 161 879L 161 879  L 162 879L 162 879  L 163 880L 163 880  L 164 880L 164 880  L 165 881L 165 881  L 166 882L 166 882  L 167 883L 167 883  L 168 884L 168 884  L 169 885L 169 885  L 170 885L 170 885  L 171 886L 171 886  L 172 887L 172 887  L 173 887L 173 887  L 174 888L 174 888  L 175 889L 175 889  L 176 890L 176 890  L 177 891L 177 891  L 178 891L 178 891  L 179 892L 179 892  L 180 892L 180 892  L 181 893L 181 893  L 182 894L 182 894  L 183 894L 183 894  L 184 895L 184 895  L 184 896L 184 896  L 185 896L 185 896  L 186 897L 186 897  L 187 898L 187 898  L 188 899L 188 899  L 189 899L 189 899  L 190 900L 190 900  L 191 900L 191 900  L 192 901L 192 901  L 192 902L 192 902  L 193 903L 193 903  L 194 903L 194 903  L 195 904L 195 904  L 196 904L 196 904  L 197 905L 197 905  L 198 906L 198 906  L 199 906L 199 906  L 200 907L 200 907  L 200 908L 200 908  L 201 908L 201 908  L 202 909L 202 909  L 203 910L 203 910  L 204 910L 204 910  L 205 911L 205 911  L 206 911L 206 911  L 207 912L 207 912  L 208 912L 208 912  L 209 913L 209 913  L 210 914L 210 914  L 211 914L 211 914  L 212 915L 212 915  L 212 916L 212 916  L 213 916L 213 916  L 214 917L 214 917  L 215 918L 215 918  L 216 918L 216 918  L 217 919L 217 919  L 218 919L 218 919  L 219 920L 219 920  L 220 920L 220 920  L 221 921L 221 921  L 222 922L 222 922  L 223 922L 223 922  L 224 923L 224 923  L 225 923L 225 923  L 226 924L 226 924  L 227 924L 227 924  L 228 925L 228 925  L 228 926L 228 926  L 229 926L 229 926  L 230 927L 230 927  L 231 927L 231 927  L 232 928L 232 928  L 233 929L 233 929  L 234 929L 234 929  L 235 930L 235 930  L 236 930L 236 930  L 237 931L 237 931  L 238 931L 238 931  L 239 932L 239 932  L 240 932L 240 932  L 241 933L 241 933  L 242 934L 242 934  L 243 934L 243 934  L 244 935L 244 935  L 245 935L 245 935  L 246 936L 246 936  L 247 936L 247 936  L 248 937L 248 937  L 248 938L 248 938  L 249 938L 249 938  L 250 939L 250 939  L 251 939L 251 939  L 252 940L 252 940  L 253 940L 253 940  L 254 941L 254 941  L 255 941L 255 941  L 256 942L 256 942  L 257 942L 257 942  L 258 943L 258 943  L 259 943L 259 943  L 260 944L 260 944  L 261 944L 261 944  L 262 945L 262 945  L 263 945L 263 945  L 264 946L 264 946  L 265 946L 265 946  L 266 947L 266 947  L 267 947L 267 947  L 268 948L 268 948  L 269 949L 269 949  L 270 949L 270 949  L 271 950L 271 950  L 272 950L 272 950  L 273 951L 273 951  L 274 951L 274 951  L 275 951L 275 951  L 276 952L 276 952  L 277 953L 277 953  L 278 953L 278 953  L 279 954L 279 954  L 280 954L 280 954  L 281 955L 281 955  L 282 955L 282 955  L 283 955L 283 955  L 284 956L 284 956  L 285 956L 285 956  L 286 957L 286 957  L 287 958L 287 958  L 288 958L 288 958  L 289 959L 289 959  L 290 959L 290 959  L 291 959L 291 959  L 292 960L 292 960  L 293 961L 293 961  L 294 961L 294 961  L 295 961L 295 961  L 296 962L 296 962  L 297 962L 297 962  L 298 963L 298 963  L 299 963L 299 963  L 300 964L 300 964  L 301 964L 301 964  L 302 965L 302 965  L 303 965L 303 965  L 304 966L 304 966  L 305 966L 305 966  L 306 967L 306 967  L 307 967L 307 967  L 308 967L 308 967  L 309 967L 309 967  L 310 968L 310 968  L 311 968L 311 968  L 312 969L 312 969  L 313 969L 313 969  L 314 970L 314 970  L 315 970L 315 970  L 316 971L 316 971  L 317 971L 317 971  L 318 972L 318 972  L 319 972L 319 972  L 320 973L 320 973  L 321 973L 321 973  L 322 974L 322 974  L 323 974L 323 974  L 324 975L 324 975  L 324 976L 324 976  L 325 976L 325 976  L 326 977L 326 977  L 327 977L 327 977  L 328 978L 328 978  L 329 978L 329 978  L 330 979L 330 979  L 331 980L 331 980  L 332 980L 332 980  L 333 981L 333 981  L 334 982L 334 982  L 335 982L 335 982  L 336 983L 336 983  L 336 984L 336 984  L 337 984L 337 984  L 338 985L 338 985  L 339 986L 339 986  L 340 987L 340 987  L 341 988L 341 988  L 342 989L 342 989  L 343 990L 343 990  L 344 990L 344 990  L 345 991L 345 991  L 345 992L 345 992  L 346 993L 346 993  L 347 994L 347 994  L 348 995L 348 995  L 349 996L 349 996  L 350 997L 350 997  L 351 998L 351 998  L 352 998L 352 998  L 353 999L 353 999  L 353 1000L 353 1000  L 354 1001L 354 1001  L 355 1002L 355 1002  L 356 1003L 356 1003  L 357 1003L 357 1003  L 358 1004L 358 1004  L 359 1004L 359 1004  L 360 1005L 360 1005  L 360 1006L 360 1006  L 361 1007L 361 1007  L 362 1007L 362 1007  L 363 1008L 363 1008  L 364 1008L 364 1008  L 365 1009L 365 1009  L 366 1010L 366 1010  L 367 1010L 367 1010  L 368 1011L 368 1011  L 368 1012L 368 1012  L 369 1012L 369 1012  L 370 1013L 370 1013  L 371 1013L 371 1013  L 372 1014L 372 1014  L 373 1014L 373 1014  L 374 1015L 374 1015  L 375 1015L 375 1015  L 376 1015L 376 1015  L 377 1015L 377 1015  L 378 1016L 378 1016  L 379 1016L 379 1016  L 380 1017L 380 1017  L 381 1017L 381 1017  L 382 1017L 382 1017  L 383 1018L 383 1018  L 384 1018L 384 1018  L 385 1018L 385 1018  L 386 1019L 386 1019  L 387 1019L 387 1019  L 388 1019L 388 1019  L 389 1019L 389 1019  L 390 1019L 390 1019  L 391 1019L 391 1019  L 392 1020L 392 1020  L 393 1020L 393 1020  L 394 1020L 394 1020  L 395 1020L 395 1020  L 396 1020L 396 1020  L 397 1020L 397 1020  L 398 1021L 398 1021  L 399 1021L 399 1021  L 400 1021L 400 1021  L 401 1021L 401 1021  L 402 1021L 402 1021  L 403 1021L 403 1021  L 404 1021L 404 1021  L 405 1020L 405 1020  L 406 1020L 406 1020  L 407 1020L 407 1020  L 408 1020L 408 1020  L 409 1020L 409 1020  L 410 1020L 410 1020  L 411 1019L 411 1019  L 412 1019L 412 1019  L 413 1019L 413 1019  L 414 1019L 414 1019  L 415 1019L 415 1019  L 416 1019L 416 1019  L 417 1018L 417 1018  L 418 1018L 418 1018  L 419 1018L 419 1018  L 420 1018L 420 1018  L 421 1017L 421 1017  L 422 1017L 422 1017  L 423 1017L 423 1017  L 424 1017L 424 1017  L 425 1017L 425 1017  L 426 1017L 426 1017  L 427 1016L 427 1016  L 428 1016L 428 1016  L 429 1016L 429 1016  L 430 1015L 430 1015  L 431 1015L 431 1015  L 432 1015L 432 1015  L 433 1014L 433 1014  L 434 1014L 434 1014  L 435 1014L 435 1014  L 436 1013L 436 1013  L 437 1013L 437 1013  L 438 1013L 438 1013  L 439 1013L 439 1013  L 440 1013L 440 1013  L 441 1013L 441 1013  L 442 1013L 442 1013  L 443 1012L 443 1012  L 444 1012L 444 1012  L 445 1012L 445 1012  L 446 1012L 446 1012  L 447 1011L 447 1011  L 448 1011L 448 1011  L 449 1011L 449 1011  L 450 1011L 450 1011  L 451 1011L 451 1011  L 452 1010L 452 1010  L 453 1010L 453 1010  L 454 1010L 454 1010  L 455 1010L 455 1010  L 456 1009L 456 1009  L 457 1009L 457 1009  L 458 1009L 458 1009  L 459 1009L 459 1009  L 460 1009L 460 1009  L 461 1009L 461 1009  L 462 1009L 462 1009  L 463 1009L 463 1009  L 464 1008L 464 1008  L 465 1008L 465 1008  L 466 1008L 466 1008  L 467 1007L 467 1007  L 468 1007L 468 1007  L 469 1007L 469 1007  L 470 1007L 470 1007  L 471 1007L 471 1007  L 472 1006L 472 1006  L 473 1006L 473 1006  L 474 1006L 474 1006  L 475 1006L 475 1006  L 476 1006L 476 1006  L 477 1006L 477 1006  L 478 1006L 478 1006  L 479 1006L 479 1006  L 480 1005L 480 1005  L 481 1005L 481 1005  L 482 1005L 482 1005  L 483 1005L 483 1005  L 484 1005L 484 1005  L 485 1005L 485 1005  L 486 1005L 486 1005  L 487 1005L 487 1005  L 488 1004L 488 1004  L 489 1004L 489 1004  L 490 1004L 490 1004  L 491 1004L 491 1004  L 492 1004L 492 1004  L 493 1004L 493 1004  L 494 1004L 494 1004  L 495 1004L 495 1004  L 496 1003L 496 1003  L 497 1003L 497 1003  L 498 1003L 498 1003  L 499 1003L 499 1003  L 500 1003L 500 1003  L 501 1003L 501 1003  L 502 1003L 502 1003  L 503 1003L 503 1003  L 504 1002L 504 1002  L 505 1002L 505 1002  L 506 1002L 506 1002  L 507 1002L 507 1002  L 508 1001L 508 1001  L 509 1001L 509 1001  L 510 1001L 510 1001  L 511 1001L 511 1001  L 512 1001L 512 1001  L 513 1001L 513 1001  L 514 1001L 514 1001  L 515 1001L 515 1001  L 516 1001L 516 1001  L 517 1001L 517 1001  L 518 1001L 518 1001  L 519 1001L 519 1001  L 520 1000L 520 1000  L 521 1000L 521 1000  L 522 1000L 522 1000  L 523 1000L 523 1000  L 524 1000L 524 1000  L 525 1000L 525 1000  L 526 1000L 526 1000  L 527 1000L 527 1000  L 528 999L 528 999  L 529 999L 529 999  L 530 999L 530 999  L 531 999L 531 999  L 532 999L 532 999  L 533 999L 533 999  L 534 999L 534 999  L 535 999L 535 999  L 536 999L 536 999  L 537 999L 537 999  L 538 999L 538 999  L 539 999L 539 999  L 540 999L 540 999  L 541 999L 541 999  L 542 999L 542 999  L 543 999L 543 999  L 544 998L 544 998  L 545 998L 545 998  L 546 998L 546 998  L 547 998L 547 998  L 548 998L 548 998  L 549 998L 549 998  L 550 998L 550 998  L 551 998L 551 998  L 552 998L 552 998  L 553 998L 553 998  L 554 998L 554 998  L 555 998L 555 998  L 556 998L 556 998  L 557 998L 557 998  L 558 998L 558 998  L 559 998L 559 998  L 560 997L 560 997  L 561 997L 561 997  L 562 997L 562 997  L 563 997L 563 997  L 564 997L 564 997  L 565 997L 565 997  L 566 997L 566 997  L 567 997L 567 997  L 568 997L 568 997  L 569 997L 569 997  L 570 997L 570 997  L 571 997L 571 997  L 572 997L 572 997  L 573 997L 573 997  L 574 997L 574 997  L 575 997L 575 997  L 576 997L 576 997  L 577 997L 577 997  L 578 997L 578 997  L 579 997L 579 997  L 580 997L 580 997  L 581 997L 581 997  L 582 997L 582 997  L 583 997L 583 997  L 584 996L 584 996  L 585 996L 585 996  L 586 996L 586 996  L 587 996L 587 996  L 588 996L 588 996  L 589 996L 589 996  L 590 996L 590 996  L 591 996L 591 996  L 592 996L 592 996  L 593 996L 593 996  L 594 996L 594 996  L 595 996L 595 996  L 596 996L 596 996  L 597 996L 597 996  L 598 996L 598 996  L 599 996L 599 996  L 600 996L 600 996  L 601 996L 601 996  L 602 996L 602 996  L 603 996L 603 996  L 604 996L 604 996  L 605 996L 605 996  L 606 996L 606 996  L 607 996L 607 996  L 608 996L 608 996  L 609 996L 609 996  L 610 996L 610 996  L 611 996L 611 996  L 612 996L 612 996  L 613 996L 613 996  L 614 996L 614 996  L 615 996L 615 996  L 616 996L 616 996  L 617 996L 617 996  L 618 996L 618 996  L 619 996L 619 996  L 620 995L 620 995  L 621 995L 621 995  L 622 995L 622 995  L 623 995L 623 995  L 624 995L 624 995  L 625 995L 625 995  L 626 995L 626 995  L 627 995L 627 995  L 628 995L 628 995  L 629 995L 629 995  L 630 995L 630 995  L 631 995L 631 995  L 632 995L 632 995  L 633 995L 633 995  L 634 995L 634 995  L 635 995L 635 995  L 636 995L 636 995  L 637 995L 637 995  L 638 995L 638 995  L 639 995L 639 995  L 640 994L 640 994  L 641 994L 641 994  L 642 994L 642 994  L 643 994L 643 994  L 644 994L 644 994  L 645 994L 645 994  L 646 994L 646 994  L 647 994L 647 994  L 648 993L 648 993  L 649 993L 649 993  L 650 993L 650 993  L 651 993L 651 993  L 652 993L 652 993  L 653 993L 653 993  L 654 993L 654 993  L 655 993L 655 993  L 656 992L 656 992  L 657 992L 657 992  L 658 992L 658 992  L 659 992L 659 992  L 660 992L 660 992  L 661 992L 661 992  L 662 992L 662 992  L 663 992L 663 992  L 664 991L 664 991  L 665 991L 665 991  L 666 991L 666 991  L 667 991L 667 991  L 668 991L 668 991  L 669 990L 669 990  L 670 990L 670 990  L 671 990L 671 990  L 672 990L 672 990  L 673 990L 673 990  L 674 990L 674 990  L 675 990L 675 990  L 676 989L 676 989  L 677 989L 677 989  L 678 989L 678 989  L 679 989L 679 989  L 680 988L 680 988  L 681 988L 681 988  L 682 988L 682 988  L 683 987L 683 987  L 684 987L 684 987  L 685 987L 685 987  L 686 987L 686 987  L 687 987L 687 987  L 688 987L 688 987  L 689 986L 689 986  L 690 986L 690 986  L 691 986L 691 986  L 692 985L 692 985  L 693 985L 693 985  L 694 985L 694 985  L 695 985L 695 985  L 696 984L 696 984  L 697 984L 697 984  L 698 983L 698 983  L 699 983L 699 983  L 700 983L 700 983  L 701 983L 701 983  L 702 982L 702 982  L 703 982L 703 982  L 704 982L 704 982  L 705 981L 705 981  L 706 981L 706 981  L 707 981L 707 981  L 708 980L 708 980  L 709 980L 709 980  L 710 979L 710 979  L 711 979L 711 979  L 712 979L 712 979  L 713 979L 713 979  L 714 978L 714 978  L 715 978L 715 978  L 715 977L 715 977  L 716 976L 716 976  L 717 976L 717 976  L 718 975L 718 975  L 719 975L 719 975  L 720 975L 720 975  L 721 975L 721 975  L 722 974L 722 974  L 723 974L 723 974  L 723 973L 723 973  L 724 972L 724 972  L 725 971L 725 971  L 726 971L 726 971  L 727 970L 727 970  L 728 970L 728 970  L 729 969L 729 969  L 730 968L 730 968  L 731 967L 731 967  L 732 966L 732 966  L 733 965L 733 965  L 734 965L 734 965  L 735 964L 735 964  L 736 963L 736 963  L 737 962L 737 962  L 738 961L 738 961  L 739 960L 739 960  L 740 959L 740 959  L 740 958L 740 958  L 741 957L 741 957  L 742 956L 742 956  L 743 955L 743 955  L 744 955L 744 955  L 744 954L 744 954  L 745 953L 745 953  L 746 952L 746 952  L 746 951L 746 951  L 747 950L 747 950  L 748 949L 748 949  L 748 948L 748 948  L 748 947L 748 947  L 748 946L 748 946  L 748 945L 748 945  L 748 944L 748 944  L 748 943L 748 943  L 748 942L 748 942  L 748 941L 748 941  L 748 940L 748 940  L 748 939L 748 939  L 748 938L 748 938  L 747 937L 747 937  L 747 936L 747 936  L 746 935L 746 935  L 746 934L 746 934  L 745 933L 745 933  L 745 932L 745 932  L 744 931L 744 931  L 744 930L 744 930  L 743 929L 743 929  L 743 928L 743 928  L 742 927L 742 927  L 742 926L 742 926  L 741 925L 741 925  L 740 924L 740 924  L 740 923L 740 923  L 739 922L 739 922  L 739 921L 739 921  L 738 920L 738 920  L 738 919L 738 919  L 737 918L 737 918  L 736 917L 736 917  L 735 916L 735 916  L 734 915L 734 915  L 733 914L 733 914  L 732 913L 732 913  L 731 912L 731 912  L 730 911L 730 911  L 729 910L 729 910  L 728 910L 728 910  L 727 909L 727 909  L 726 908L 726 908  L 725 908L 725 908  L 724 907L 724 907  L 723 907L 723 907  L 722 906L 722 906  L 721 905L 721 905  L 720 905L 720 905  L 719 904L 719 904  L 719 903L 719 903  L 718 903L 718 903  L 717 902L 717 902  L 716 902L 716 902  L 715 901L 715 901  L 714 901L 714 901  L 713 900L 713 900  L 712 900L 712 900  L 711 899L 711 899  L 710 899L 710 899  L 709 898L 709 898  L 708 898L 708 898  L 707 897L 707 897  L 706 897L 706 897  L 705 896L 705 896  L 704 896L 704 896  L 703 895L 703 895  L 702 895L 702 895  L 701 894L 701 894  L 700 894L 700 894  L 699 893L 699 893  L 698 892L 698 892  L 697 892L 697 892  L 696 891L 696 891  L 695 891L 695 891  L 694 890L 694 890  L 693 889L 693 889  L 692 889L 692 889  L 691 888L 691 888  L 690 888L 690 888  L 689 887L 689 887  L 688 887L 688 887  L 687 886L 687 886  L 687 885L 687 885  L 686 885L 686 885  L 685 884L 685 884  L 684 884L 684 884  L 683 884L 683 884  L 682 884L 682 884  L 681 883L 681 883  L 680 883L 680 883  L 679 882L 679 882  L 679 881L 679 881  L 678 881L 678 881  L 677 880L 677 880  L 676 880L 676 880  L 675 880L 675 880  L 674 880L 674 880  L 673 879L 673 879  L 672 879L 672 879  L 671 878L 671 878  L 670 878L 670 878  L 669 878L 669 878  L 668 877L 668 877  L 667 876L 667 876  L 666 876L 666 876  L 665 876L 665 876  L 664 876L 664 876  L 663 875L 663 875  L 662 874L 662 874  L 661 874L 661 874  L 660 874L 660 874  L 659 873L 659 873  L 658 873L 658 873  L 657 872L 657 872  L 656 872L 656 872  L 655 872L 655 872  L 654 872L 654 872  L 653 871L 653 871  L 652 871L 652 871  L 651 871L 651 871  L 650 870L 650 870  L 649 870L 649 870  L 648 869L 648 869  L 647 868L 647 868  L 646 868L 646 868  L 645 868L 645 868  L 644 868L 644 868  L 643 867L 643 867  L 642 866L 642 866  L 641 866L 641 866  L 640 865L 640 865  L 639 865L 639 865  L 638 865L 638 865  L 637 864L 637 864  L 636 864L 636 864  L 635 863L 635 863  L 634 863L 634 863  L 633 862L 633 862  L 632 862L 632 862  L 631 861L 631 861  L 630 861L 630 861  L 629 860L 629 860  L 628 860L 628 860  L 627 859L 627 859  L 626 859L 626 859  L 625 858L 625 858  L 624 858L 624 858  L 623 858L 623 858  L 622 858L 622 858  L 621 857L 621 857  L 620 857L 620 857  L 619 856L 619 856  L 618 856L 618 856  L 617 855L 617 855  L 616 855L 616 855  L 615 855L 615 855  L 614 854L 614 854  L 613 854L 613 854  L 612 853L 612 853  L 611 852L 611 852  L 610 852L 610 852  L 609 852L 609 852  L 608 852L 608 852  L 607 852L 607 852  L 606 852L 606 852  L 605 852L 605 852  L 604 852L 604 852  L 603 852L 603 852  L 602 853L 602 853  L 601 853L 601 853  L 600 853L 600 853  L 599 854L 599 854  L 598 854L 598 854  L 597 855L 597 855  L 596 855L 596 855  L 595 855L 595 855  L 594 854L 594 854  L 594 853L 594 853  L 594 852L 594 852  L 594 851L 594 851  L 593 850L 593 850  L 592 849L 592 849  L 591 849L 591 849  L 590 849L 590 849  L 589 849L 589 849  L 588 849L 588 849  L 587 849L 587 849  L 586 849L 586 849  L 585 849L 585 849  L 584 849L 584 849  L 583 848L 583 848  L 582 848L 582 848  L 581 848L 581 848  L 580 848L 580 848  L 579 848L 579 848  L 578 848L 578 848  L 577 847L 577 847  L 576 847L 576 847  L 575 846L 575 846  L 574 846L 574 846  L 573 846L 573 846  L 572 846L 572 846  L 571 845L 571 845  L 570 845L 570 845  L 569 844L 569 844  L 568 844L 568 844  L 567 844L 567 844  L 566 844L 566 844  L 565 844L 565 844  L 564 844L 564 844  L 563 844L 563 844  L 562 843L 562 843  L 561 843L 561 843  L 560 843L 560 843  L 559 842L 559 842  L 558 842L 558 842  L 557 842L 557 842  L 556 842L 556 842  L 555 842L 555 842  L 554 842L 554 842  L 553 842L 553 842  L 552 841L 552 841  L 551 841L 551 841  L 550 841L 550 841  L 549 841L 549 841  L 548 840L 548 840  L 547 840L 547 840  L 546 840L 546 840  L 545 839L 545 839  L 544 839L 544 839  L 543 839L 543 839  L 542 839L 542 839  L 541 839L 541 839  L 540 839L 540 839  L 539 838L 539 838  L 538 838L 538 838  L 537 838L 537 838  L 536 838L 536 838  L 535 837L 535 837  L 534 837L 534 837  L 533 837L 533 837  L 532 837L 532 837  L 531 837L 531 837  L 530 837L 530 837  L 529 837L 529 837  L 528 837L 528 837  L 527 836L 527 836  L 526 836L 526 836  L 525 836L 525 836  L 524 836L 524 836  L 523 836L 523 836  L 522 836L 522 836  L 521 836L 521 836  L 520 836L 520 836  L 519 835L 519 835  L 518 835L 518 835  L 517 835L 517 835  L 516 835L 516 835  L 515 835L 515 835  L 514 835L 514 835  L 513 835L 513 835  L 512 835L 512 835  L 511 835L 511 835  L 510 835L 510 835  L 509 835L 509 835  L 508 835L 508 835  L 507 834L 507 834  L 506 834L 506 834  L 505 834L 505 834  L 504 834L 504 834  L 503 834L 503 834  L 502 834L 502 834  L 501 834L 501 834  L 500 834L 500 834  L 499 834L 499 834  L 498 834L 498 834  L 497 834L 497 834  L 496 834L 496 834  L 495 833L 495 833  L 494 833L 494 833  L 493 833L 493 833  L 492 833L 492 833  L 491 833L 491 833  L 490 833L 490 833  L 489 832L 489 832  L 488 832L 488 832  L 487 832L 487 832  L 486 832L 486 832  L 485 831L 485 831  L 484 831L 484 831  L 483 831L 483 831  L 482 830L 482 830  L 481 830L 481 830  L 480 830L 480 830  L 479 829L 479 829  L 478 829L 478 829  L 477 828L 477 828  L 476 828L 476 828  L 475 827L 475 827  L 475 826L 475 826  L 474 825L 474 825  L 474 824L 474 824  L 474 823L 474 823  L 474 822L 474 822  L 474 821L 474 821  L 474 820L 474 820  L 474 819L 474 819  L 474 818L 474 818  L 474 817L 474 817  L 474 816L 474 816  L 475 815L 475 815  L 475 814L 475 814  L 475 813L 475 813  L 475 812L 475 812  L 476 811L 476 811  L 476 810L 476 810  L 476 809L 476 809  L 476 808L 476 808  L 476 807L 476 807  L 476 806L 476 806  L 476 805L 476 805  L 476 804L 476 804  L 477 803L 477 803  L 477 802L 477 802  L 477 801L 477 801  L 477 800L 477 800  L 477 799L 477 799  L 477 798L 477 798  L 477 797L 477 797  L 477 796L 477 796  L 478 795L 478 795  L 478 794L 478 794  L 478 793L 478 793  L 478 792L 478 792  L 478 791L 478 791  L 478 790L 478 790  L 478 789L 478 789  L 478 788L 478 788  L 479 787L 479 787  L 479 786L 479 786  L 479 785L 479 785  L 479 784L 479 784  L 479 783L 479 783  L 479 782L 479 782  L 480 781L 480 781  L 480 780L 480 780  L 480 779L 480 779  L 480 778L 480 778  L 480 777L 480 777  L 480 776L 480 776  L 481 775L 481 775  L 481 774L 481 774  L 481 773L 481 773  L 481 772L 481 772  L 481 771L 481 771  L 481 770L 481 770  L 481 769L 481 769  L 481 768L 481 768  L 482 767L 482 767  L 482 766L 482 766  L 482 765L 482 765  L 482 764L 482 764  L 482 763L 482 763  L 482 762L 482 762  L 482 761L 482 761  L 482 760L 482 760  L 483 759L 483 759  L 483 758L 483 758  L 483 757L 483 757  L 483 756L 483 756  L 483 755L 483 755  L 483 754L 483 754  L 483 753L 483 753  L 483 752L 483 752  L 484 751L 484 751  L 484 750L 484 750  L 484 749L 484 749  L 484 748L 484 748  L 484 747L 484 747  L 484 746L 484 746  L 484 745L 484 745  L 484 744L 484 744  L 485 743L 485 743  L 485 742L 485 742  L 485 741L 485 741  L 485 740L 485 740  L 485 739L 485 739  L 485 738L 485 738  L 485 737L 485 737  L 485 736L 485 736  L 486 735L 486 735  L 486 734L 486 734  L 486 733L 486 733  L 486 732L 486 732  L 486 731L 486 731  L 486 730L 486 730  L 486 729L 486 729  L 486 728L 486 728  L 487 727L 487 727  L 487 726L 487 726  L 487 725L 487 725  L 487 724L 487 724  L 487 723L 487 723  L 488 722L 488 722  L 488 721L 488 721  L 488 720L 488 720  L 488 719L 488 719  L 488 718L 488 718  L 488 717L 488 717  L 488 716L 488 716  L 489 715L 489 715  L 489 714L 489 714  L 489 713L 489 713  L 489 712L 489 712  L 489 711L 489 711  L 489 710L 489 710  L 489 709L 489 709  L 489 708L 489 708  L 490 707L 490 707  L 490 706L 490 706  L 490 705L 490 705  L 490 704L 490 704  L 490 703L 490 703  L 490 702L 490 702  L 491 701L 491 701  L 491 700L 491 700  L 492 699L 492 699  L 493 699L 493 699  L 494 698L 494 698  L 495 698L 495 698  L 496 698L 496 698  L 497 698L 497 698  L 498 698L 498 698  L 499 699L 499 699  L 500 699L 500 699  L 501 699L 501 699  L 502 699L 502 699  L 503 699L 503 699  L 504 699L 504 699  L 505 700L 505 700  L 506 700L 506 700  L 507 700L 507 700  L 508 701L 508 701  L 509 701L 509 701  L 510 701L 510 701  L 511 702L 511 702  L 512 703L 512 703  L 513 703L 513 703  L 514 703L 514 703  L 515 703L 515 703  L 516 703L 516 703  L 517 703L 517 703  L 518 704L 518 704  L 519 704L 519 704  L 520 705L 520 705  L 521 705L 521 705  L 522 705L 522 705  L 523 705L 523 705  L 524 706L 524 706  L 525 706L 525 706  L 526 707L 526 707  L 527 707L 527 707  L 528 707L 528 707  L 529 707L 529 707  L 530 708L 530 708  L 531 708L 531 708  L 532 708L 532 708  L 533 709L 533 709  L 534 709L 534 709  L 535 709L 535 709  L 536 709L 536 709  L 537 709L 537 709  L 538 709L 538 709  L 539 709L 539 709  L 540 710L 540 710  L 541 710L 541 710  L 542 710L 542 710  L 543 711L 543 711  L 544 711L 544 711  L 545 711L 545 711  L 546 712L 546 712  L 547 712L 547 712  L 548 712L 548 712  L 549 712L 549 712  L 550 712L 550 712  L 551 712L 551 712  L 552 713L 552 713  L 553 713L 553 713  L 554 713L 554 713  L 555 713L 555 713  L 556 714L 556 714  L 557 714L 557 714  L 558 714L 558 714  L 559 715L 559 715  L 560 715L 560 715  L 561 715L 561 715  L 562 715L 562 715  L 563 715L 563 715  L 564 715L 564 715  L 565 716L 565 716  L 566 716L 566 716  L 567 716L 567 716  L 568 717L 568 717  L 569 717L 569 717  L 570 717L 570 717  L 571 717L 571 717  L 572 718L 572 718  L 573 718L 573 718  L 574 718L 574 718  L 575 718L 575 718  L 576 718L 576 718  L 577 718L 577 718  L 578 718L 578 718  L 579 719L 579 719  L 580 719L 580 719  L 581 719L 581 719  L 582 719L 582 719  L 583 719L 583 719  L 584 719L 584 719  L 585 720L 585 720  L 586 720L 586 720  L 587 720L 587 720  L 588 721L 588 721  L 589 721L 589 721  L 590 721L 590 721  L 591 721L 591 721  L 592 722L 592 722  L 593 722L 593 722  L 594 723L 594 723  L 595 723L 595 723  L 596 723L 596 723  L 597 723L 597 723  L 598 723L 598 723  L 599 723L 599 723  L 600 724L 600 724  L 601 724L 601 724  L 602 725L 602 725  L 603 725L 603 725  L 604 725L 604 725  L 605 725L 605 725  L 606 726L 606 726  L 607 726L 607 726  L 608 727L 608 727  L 609 727L 609 727  L 610 728L 610 728  L 611 728L 611 728  L 612 729L 612 729  L 613 729L 613 729  L 614 729L 614 729  L 615 730L 615 730  L 616 730L 616 730  L 617 730L 617 730  L 618 731L 618 731  L 619 731L 619 731  L 620 732L 620 732  L 621 732L 621 732  L 622 733L 622 733  L 623 733L 623 733  L 624 733L 624 733  L 625 733L 625 733  L 626 733L 626 733  L 627 734L 627 734  L 628 734L 628 734  L 629 734L 629 734  L 630 735L 630 735  L 631 735L 631 735  L 632 735L 632 735  L 633 735L 633 735  L 634 735L 634 735  L 635 735L 635 735  L 636 736L 636 736  L 637 736L 637 736  L 638 736L 638 736  L 639 736L 639 736  L 640 736L 640 736  L 641 736L 641 736  L 642 736L 642 736  L 643 736L 643 736  L 644 736L 644 736  L 645 736L 645 736  L 646 736L 646 736  L 647 736L 647 736  L 648 736L 648 736  L 649 736L 649 736  L 650 736L 650 736  L 651 736L 651 736  L 652 736L 652 736  L 653 736L 653 736  L 654 736L 654 736  L 655 735L 655 735  L 656 735L 656 735  L 657 735L 657 735  L 658 735L 658 735  L 659 735L 659 735  L 660 735L 660 735  L 661 734L 661 734  L 662 734L 662 734  L 663 734L 663 734  L 664 733L 664 733  L 665 733L 665 733  L 666 733L 666 733  L 667 732L 667 732  L 668 732L 668 732  L 669 732L 669 732  L 670 731L 670 731  L 671 731L 671 731  L 672 730L 672 730  L 673 729L 673 729  L 674 729L 674 729  L 675 728L 675 728  L 676 728L 676 728  L 677 727L 677 727  L 678 727L 678 727  L 679 726L 679 726  L 680 726L 680 726  L 681 725L 681 725  L 682 725L 682 725  L 683 724L 683 724  L 684 723L 684 723  L 685 723L 685 723  L 686 723L 686 723  L 687 722L 687 722  L 688 722L 688 722  L 689 721L 689 721  L 690 721L 690 721  L 691 720L 691 720  L 692 719L 692 719  L 693 719L 693 719  L 694 719L 694 719  L 695 718L 695 718  L 696 717L 696 717  L 697 717L 697 717  L 698 716L 698 716  L 699 716L 699 716  L 700 715L 700 715  L 701 715L 701 715  L 702 714L 702 714  L 703 714L 703 714  L 704 713L 704 713  L 705 713L 705 713  L 706 712L 706 712  L 707 712L 707 712  L 708 711L 708 711  L 709 711L 709 711  L 710 710L 710 710  L 711 710L 711 710  L 712 709L 712 709  L 713 709L 713 709  L 714 708L 714 708  L 715 708L 715 708  L 716 707L 716 707  L 717 707L 717 707  L 718 706L 718 706  L 719 706L 719 706  L 719 705L 719 705  L 720 704L 720 704  L 721 704L 721 704  L 722 703L 722 703  L 723 703L 723 703  L 724 702L 724 702  L 725 702L 725 702  L 726 701L 726 701  L 727 701L 727 701  L 728 700L 728 700  L 729 700L 729 700  L 730 699L 730 699  L 731 699L 731 699  L 732 699L 732 699  L 733 699L 733 699  L 734 698L 734 698  L 735 698L 735 698  L 735 697L 735 697  L 736 696L 736 696  L 737 696L 737 696  L 738 695L 738 695  L 739 695L 739 695  L 740 695L 740 695  L 741 695L 741 695  L 742 694L 742 694  L 743 694L 743 694  L 744 693L 744 693  L 745 693L 745 693  L 746 692L 746 692  L 747 692L 747 692  L 748 691L 748 691  L 749 691L 749 691  L 750 690L 750 690  L 751 690L 751 690  L 751 689L 751 689  L 752 688L 752 688  L 753 688L 753 688  L 754 687L 754 687  L 755 687L 755 687  L 756 687L 756 687  L 757 687L 757 687  L 758 686L 758 686  L 759 686L 759 686  L 759 685L 759 685  L 760 684L 760 684  L 761 684L 761 684  L 762 683L 762 683  L 763 683L 763 683  L 764 682L 764 682  L 765 682L 765 682  L 766 681L 766 681  L 767 681L 767 681  L 768 680L 768 680  L 769 679L 769 679  L 770 679L 770 679  L 771 679L 771 679  L 772 678L 772 678  L 773 678L 773 678  L 774 677L 774 677  L 775 677L 775 677  L 776 676L 776 676  L 777 676L 777 676  L 778 675L 778 675  L 779 675L 779 675  L 780 674L 780 674  L 781 674L 781 674  L 782 673L 782 673  L 783 672L 783 672  L 784 672L 784 672  L 785 671L 785 671  L 786 671L 786 671  L 787 670L 787 670  L 788 670L 788 670  L 789 669L 789 669  L 790 669L 790 669  L 791 668L 791 668  L 792 667L 792 667  L 793 667L 793 667  L 794 667L 794 667  L 795 666L 795 666  L 796 666L 796 666  L 797 665L 797 665  L 798 664L 798 664  L 799 664L 799 664  L 800 663L 800 663  L 801 663L 801 663  L 802 662L 802 662  L 803 662L 803 662  L 803 661L 803 661  L 804 660L 804 660  L 805 660L 805 660  L 806 659L 806 659  L 807 659L 807 659  L 808 658L 808 658  L 809 657L 809 657  L 810 657L 810 657  L 811 656L 811 656  L 812 656L 812 656  L 813 655L 813 655  L 814 655L 814 655  L 815 654L 815 654  L 816 654L 816 654  L 817 653L 817 653  L 818 652L 818 652  L 819 652L 819 652  L 819 651L 819 651  L 820 650L 820 650  L 821 650L 821 650  L 822 649L 822 649  L 823 648L 823 648  L 824 648L 824 648  L 825 647L 825 647  L 826 647L 826 647  L 827 646L 827 646  L 828 646L 828 646  L 829 645L 829 645  L 830 644L 830 644  L 831 644L 831 644  L 831 643L 831 643  L 832 642L 832 642  L 833 641L 833 641  L 834 641L 834 641  L 835 640L 835 640  L 836 639L 836 639  L 837 639L 837 639  L 838 638L 838 638  L 839 637L 839 637  L 840 636L 840 636  L 841 635L 841 635  L 842 635L 842 635  L 843 634L 843 634  L 843 633L 843 633  L 844 632L 844 632  L 845 631L 845 631  L 846 631L 846 631  L 847 630L 847 630  L 847 629L 847 629  L 848 628L 848 628  L 849 627L 849 627  L 850 627L 850 627  L 851 626L 851 626  L 851 625L 851 625  L 852 624L 852 624  L 853 623L 853 623  L 854 623L 854 623  L 854 622L 854 622  L 855 621L 855 621  L 855 620L 855 620  L 856 619L 856 619  L 857 618L 857 618  L 857 617L 857 617  L 858 616L 858 616  L 859 615L 859 615  L 859 614L 859 614  L 860 613L 860 613  L 860 612L 860 612  L 861 611L 861 611  L 862 611L 862 611  L 862 610L 862 610  L 863 609L 863 609  L 863 608L 863 608  L 864 607L 864 607  L 864 606L 864 606  L 865 605L 865 605  L 865 604L 865 604  L 866 603L 866 603  L 866 602L 866 602  L 867 601L 867 601  L 867 600L 867 600  L 867 599L 867 599  L 867 598L 867 598  L 868 597L 868 597  L 868 596L 868 596  L 869 595L 869 595  L 869 594L 869 594  L 869 593L 869 593  L 870 592L 870 592  L 870 591L 870 591  L 870 590L 870 590  L 871 589L 871 589  L 871 588L 871 588  L 871 587L 871 587  L 872 586L 872 586  L 872 585L 872 585  L 872 584L 872 584  L 872 583L 872 583  L 872 582L 872 582  L 872 581L 872 581  L 872 580L 872 580  L 872 579L 872 579  L 872 578L 872 578  L 872 577L 872 577  L 871 576L 871 576  L 870 575L 870 575  L 870 574L 870 574  L 869 573L 869 573  L 868 572L 868 572  L 868 571L 868 571  L 867 570L 867 570  L 866 569L 866 569  L 866 568L 866 568  L 865 568L 865 568  L 864 567L 864 567  L 863 566L 863 566  L 863 565L 863 565  L 862 564L 862 564  L 861 564L 861 564  L 860 563L 860 563  L 859 562L 859 562  L 859 561L 859 561  L 858 560L 858 560  L 857 560L 857 560  L 856 559L 856 559  L 855 558L 855 558  L 855 557L 855 557  L 854 556L 854 556  L 853 556L 853 556  L 852 555L 852 555  L 851 555L 851 555  L 850 554L 850 554  L 849 553L 849 553  L 848 552L 848 552  L 847 551L 847 551  L 846 550L 846 550  L 845 550L 845 550  L 844 549L 844 549  L 843 549L 843 549  L 842 548L 842 548  L 841 548L 841 548  L 840 548L 840 548  L 839 547L 839 547  L 838 546L 838 546  L 837 546L 837 546  L 836 546L 836 546  L 835 545L 835 545  L 834 545L 834 545  L 833 544L 833 544  L 832 544L 832 544  L 831 544L 831 544  L 830 544L 830 544  L 829 543L 829 543  L 828 543L 828 543  L 827 542L 827 542  L 826 542L 826 542  L 825 542L 825 542  L 824 541L 824 541  L 823 541L 823 541  L 822 541L 822 541  L 821 540L 821 540  L 820 540L 820 540  L 819 539L 819 539  L 818 539L 818 539  L 817 538L 817 538  L 816 538L 816 538  L 815 537L 815 537  L 814 537L 814 537  L 813 536L 813 536  L 812 536L 812 536  L 811 536L 811 536  L 810 536L 810 536  L 809 536L 809 536  L 808 536L 808 536  L 807 537L 807 537  L 806 537L 806 537  L 805 538L 805 538  L 804 538L 804 538  L 803 538L 803 538  L 802 538L 802 538  L 801 537L 801 537  L 801 536L 801 536  L 801 535L 801 535  L 801 534L 801 534  L 801 533L 801 533  L 800 532L 800 532  L 799 532L 799 532  L 798 531L 798 531  L 797 531L 797 531  L 796 531L 796 531  L 795 531L 795 531  L 794 531L 794 531  L 793 531L 793 531  L 792 531L 792 531  L 791 530L 791 530  L 790 530L 790 530  L 789 530L 789 530  L 788 530L 788 530  L 787 530L 787 530  L 786 530L 786 530  L 785 530L 785 530  L 784 530L 784 530  L 783 529L 783 529  L 782 529L 782 529  L 781 529L 781 529  L 780 529L 780 529  L 779 529L 779 529  L 778 529L 778 529  L 777 529L 777 529  L 776 529L 776 529  L 775 528L 775 528  L 774 528L 774 528  L 773 528L 773 528  L 772 528L 772 528  L 771 527L 771 527  L 770 527L 770 527  L 769 527L 769 527  L 768 527L 768 527  L 767 527L 767 527  L 766 527L 766 527  L 765 527L 765 527  L 764 527L 764 527  L 763 526L 763 526  L 762 526L 762 526  L 761 526L 761 526  L 760 526L 760 526  L 759 526L 759 526  L 758 526L 758 526  L 757 526L 757 526  L 756 526L 756 526  L 755 525L 755 525  L 754 525L 754 525  L 753 525L 753 525  L 752 525L 752 525  L 751 525L 751 525  L 750 525L 750 525  L 749 525L 749 525  L 748 525L 748 525  L 747 525L 747 525  L 746 525L 746 525  L 745 525L 745 525  L 744 525L 744 525  L 743 524L 743 524  L 742 524L 742 524  L 741 524L 741 524  L 740 524L 740 524  L 739 524L 739 524  L 738 524L 738 524  L 737 524L 737 524  L 736 524L 736 524  L 735 525L 735 525  L 734 525L 734 525  L 733 525L 733 525  L 732 525L 732 525  L 731 525L 731 525  L 730 525L 730 525  L 729 525L 729 525  L 728 525L 728 525  L 727 525L 727 525  L 726 525L 726 525  L 725 525L 725 525  L 724 525L 724 525  L 723 526L 723 526  L 722 526L 722 526  L 721 526L 721 526  L 720 526L 720 526  L 719 526L 719 526  L 718 526L 718 526  L 717 526L 717 526  L 716 526L 716 526  L 715 527L 715 527  L 714 527L 714 527  L 713 527L 713 527  L 712 528L 712 528  L 711 528L 711 528  L 710 528L 710 528  L 709 528L 709 528  L 708 528L 708 528  L 707 529L 707 529  L 706 529L 706 529  L 705 529L 705 529  L 704 529L 704 529  L 703 530L 703 530  L 702 530L 702 530  L 701 530L 701 530  L 700 530L 700 530  L 699 530L 699 530  L 698 530L 698 530  L 697 530L 697 530  L 696 530L 696 530  L 695 531L 695 531  L 694 531L 694 531  L 693 531L 693 531  L 692 532L 692 532  L 691 532L 691 532  L 690 532L 690 532  L 689 532L 689 532  L 688 532L 688 532  L 687 532L 687 532  L 686 532L 686 532  L 685 532L 685 532  L 684 532L 684 532  L 683 532L 683 532  L 682 532L 682 532  L 681 532L 681 532  L 680 532L 680 532  L 679 533L 679 533  L 678 533L 678 533  L 677 533L 677 533  L 676 533L 676 533  L 675 533L 675 533  L 674 533L 674 533  L 673 533L 673 533  L 672 533L 672 533  L 671 534L 671 534  L 670 534L 670 534  L 669 534L 669 534  L 668 534L 668 534  L 667 535L 667 535  L 666 535L 666 535  L 665 536L 665 536  L 664 536L 664 536  L 663 536L 663 536  L 662 536L 662 536  L 661 537L 661 537  L 660 537L 660 537  L 659 538L 659 538  L 658 538L 658 538  L 657 539L 657 539  L 656 539L 656 539  L 655 539L 655 539  L 654 539L 654 539  L 653 538L 653 538  L 652 537L 652 537  L 652 536L 652 536  L 651 535L 651 535  L 651 534L 651 534  L 651 533L 651 533  L 651 532L 651 532  L 651 531L 651 531  L 651 530L 651 530  L 651 529L 651 529  L 651 528L 651 528  L 650 527L 650 527  L 650 526L 650 526  L 650 525L 650 525  L 650 524L 650 524  L 650 523L 650 523  L 650 522L 650 522  L 650 521L 650 521  L 650 520L 650 520  L 649 519L 649 519  L 649 518L 649 518  L 649 517L 649 517  L 649 516L 649 516  L 649 515L 649 515  L 649 514L 649 514  L 649 513L 649 513  L 649 512L 649 512  L 649 511L 649 511  L 649 510L 649 510  L 649 509L 649 509  L 649 508L 649 508  L 648 507L 648 507  L 648 506L 648 506  L 648 505L 648 505  L 648 504L 648 504  L 648 503L 648 503  L 648 502L 648 502  L 648 501L 648 501  L 648 500L 648 500  L 647 499L 647 499  L 647 498L 647 498  L 647 497L 647 497  L 647 496L 647 496  L 647 495L 647 495  L 647 494L 647 494  L 647 493L 647 493  L 647 492L 647 492  L 646 491L 646 491  L 646 490L 646 490  L 646 489L 646 489  L 646 488L 646 488  L 646 487L 646 487  L 646 486L 646 486  L 646 485L 646 485  L 646 484L 646 484  L 645 483L 645 483  L 645 482L 645 482  L 645 481L 645 481  L 645 480L 645 480  L 645 479L 645 479  L 645 478L 645 478  L 645 477L 645 477  L 645 476L 645 476  L 644 475L 644 475  L 644 474L 644 474  L 644 473L 644 473  L 644 472L 644 472  L 644 471L 644 471  L 644 470L 644 470  L 644 469L 644 469  L 644 468L 644 468  L 643 467L 643 467  L 643 466L 643 466  L 643 465L 643 465  L 643 464L 643 464  L 642 463L 642 463  L 642 462L 642 462  L 642 461L 642 461  L 642 460L 642 460  L 642 459L 642 459  L 642 458L 642 458  L 642 457L 642 457  L 642 456L 642 456  L 641 455L 641 455  L 641 454L 641 454  L 641 453L 641 453  L 641 452L 641 452  L 641 451L 641 451  L 641 450L 641 450  L 641 449L 641 449  L 641 448L 641 448  L 640 447L 640 447  L 640 446L 640 446  L 640 445L 640 445  L 640 444L 640 444  L 640 443L 640 443  L 640 442L 640 442  L 640 441L 640 441  L 639 440L 639 440  L 639 439L 639 439  L 639 438L 639 438  L 639 437L 639 437  L 639 436L 639 436  L 638 435L 638 435  L 638 434L 638 434  L 638 433L 638 433  L 638 432L 638 432  L 637 431L 637 431  L 637 430L 637 430  L 637 429L 637 429  L 637 428L 637 428  L 637 427L 637 427  L 637 426L 637 426  L 637 425L 637 425  L 637 424L 637 424  L 636 423L 636 423  L 636 422L 636 422  L 636 421L 636 421  L 636 420L 636 420  L 636 419L 636 419  L 636 418L 636 418  L 636 417L 636 417  L 636 416L 636 416  L 635 415L 635 415  L 635 414L 635 414  L 635 413L 635 413  L 635 412L 635 412  L 634 411L 634 411  L 634 410L 634 410  L 634 409L 634 409  L 634 408L 634 408  L 634 407L 634 407  L 634 406L 634 406  L 634 405L 634 405  L 634 404L 634 404  L 633 403L 633 403  L 633 402L 633 402  L 633 401L 633 401  L 633 400L 633 400  L 632 399L 632 399  L 632 398L 632 398  L 632 397L 632 397  L 632 396L 632 396  L 631 395L 631 395  L 631 394L 631 394  L 631 393L 631 393  L 631 392L 631 392  L 631 391L 631 391  L 631 390L 631 390  L 631 389L 631 389  L 631 388L 631 388  L 630 387L 630 387  L 630 386L 630 386  L 630 385L 630 385  L 630 384L 630 384  L 629 383L 629 383  L 629 382L 629 382  L 629 381L 629 381  L 629 380L 629 380  L 629 379L 629 379  L 629 378L 629 378  L 629 377L 629 377  L 629 376L 629 376  L 628 375L 628 375  L 628 374L 628 374  L 628 373L 628 373  L 627 372L 627 372  L 627 371L 627 371  L 627 370L 627 370  L 627 369L 627 369  L 627 368L 627 368  L 627 367L 627 367  L 626 366L 626 366  L 626 365L 626 365  L 626 364L 626 364  L 626 363L 626 363  L 625 362L 625 362  L 625 361L 625 361  L 625 360L 625 360  L 625 359L 625 359  L 625 358L 625 358  L 625 357L 625 357  L 625 356L 625 356  L 624 355L 624 355  L 624 354L 624 354  L 624 353L 624 353  L 624 352L 624 352  L 624 351L 624 351  L 624 350L 624 350  L 624 349L 624 349  L 624 348L 624 348  L 624 347L 624 347  L 624 346L 624 346  L 624 345L 624 345  L 624 344L 624 344  L 624 343L 624 343  L 624 342L 624 342  L 624 341L 624 341  L 624 340L 624 340  L 625 339L 625 339  L 625 338L 625 338  L 625 337L 625 337  L 625 336L 625 336  L 625 335L 625 335  L 625 334L 625 334  L 625 333L 625 333  L 625 332L 625 332  L 626 331L 626 331  L 626 330L 626 330  L 626 329L 626 329  L 626 328L 626 328  L 626 327L 626 327  L 626 326L 626 326  L 626 325L 626 325  L 626 324L 626 324  L 627 323L 627 323  L 627 322L 627 322  L 627 321L 627 321  L 627 320L 627 320  L 627 319L 627 319  L 627 318L 627 318  L 627 317L 627 317  L 627 316L 627 316  L 628 315L 628 315  L 628 314L 628 314  L 628 313L 628 313  L 628 312L 628 312  L 628 311L 628 311  L 628 310L 628 310  L 628 309L 628 309  L 628 308L 628 308  L 629 307L 629 307  L 629 306L 629 306  L 629 305L 629 305  L 629 304L 629 304  L 629 303L 629 303  L 629 302L 629 302  L 629 301L 629 301  L 629 300L 629 300  L 629 299L 629 299  L 629 298L 629 298  L 629 297L 629 297  L 629 296L 629 296  L 630 295L 630 295  L 630 294L 630 294  L 630 293L 630 293  L 630 292L 630 292  L 630 291L 630 291  L 630 290L 630 290  L 630 289L 630 289  L 631 288L 631 288  L 631 287L 631 287  L 631 286L 631 286  L 631 285L 631 285  L 631 284L 631 284  L 631 283L 631 283  L 632 282L 632 282  L 632 281L 632 281  L 632 280L 632 280  L 632 279L 632 279  L 633 278L 633 278  L 634 278L 634 278  L 635 278L 635 278  L 636 279L 636 279  L 637 280L 637 280  L 637 281L 637 281  L 638 282L 638 282  L 638 283L 638 283  L 639 284L 639 284  L 639 285L 639 285  L 640 286L 640 286  L 640 287L 640 287  L 640 288L 640 288  L 640 289L 640 289  L 641 290L 641 290  L 641 291L 641 291  L 642 292L 642 292  L 642 293L 642 293  L 643 294L 643 294  L 643 295L 643 295  L 644 296L 644 296  L 644 297L 644 297  L 645 298L 645 298  L 645 299L 645 299  L 646 299L 646 299  L 647 300L 647 300  L 647 301L 647 301  L 648 302L 648 302  L 648 303L 648 303  L 648 304L 648 304  L 648 305L 648 305  L 649 306L 649 306  L 649 307L 649 307  L 650 307L 650 307  L 651 308L 651 308  L 651 309L 651 309  L 652 310L 652 310  L 652 311L 652 311  L 653 312L 653 312  L 653 313L 653 313  L 654 314L 654 314  L 654 315L 654 315  L 655 316L 655 316  L 655 317L 655 317  L 656 318L 656 318  L 656 319L 656 319  L 657 320L 657 320  L 657 321L 657 321  L 658 322L 658 322  L 659 323L 659 323  L 659 324L 659 324  L 660 325L 660 325  L 660 326L 660 326  L 661 327L 661 327  L 661 328L 661 328  L 662 329L 662 329  L 662 330L 662 330  L 663 331L 663 331  L 664 332L 664 332  L 664 333L 664 333  L 664 334L 664 334  L 665 335L 665 335  L 665 336L 665 336  L 666 337L 666 337  L 667 338L 667 338  L 667 339L 667 339  L 668 340L 668 340  L 668 341L 668 341  L 669 342L 669 342  L 669 343L 669 343  L 670 343L 670 343  L 671 344L 671 344  L 671 345L 671 345  L 672 346L 672 346  L 672 347L 672 347  L 673 348L 673 348  L 674 349L 674 349  L 674 350L 674 350  L 675 351L 675 351  L 675 352L 675 352  L 676 353L 676 353  L 676 354L 676 354  L 677 355L 677 355  L 677 356L 677 356  L 678 357L 678 357  L 679 358L 679 358  L 679 359L 679 359  L 680 359L 680 359  L 681 360L 681 360  L 681 361L 681 361  L 682 362L 682 362  L 683 363L 683 363  L 683 364L 683 364  L 684 365L 684 365  L 684 366L 684 366  L 684 367L 684 367  L 685 368L 685 368  L 686 369L 686 369  L 686 370L 686 370  L 687 371L 687 371  L 688 372L 688 372  L 688 373L 688 373  L 689 374L 689 374  L 689 375L 689 375  L 690 375L 690 375  L 691 376L 691 376  L 692 377L 692 377  L 692 378L 692 378  L 692 379L 692 379  L 693 380L 693 380  L 694 381L 694 381  L 694 382L 694 382  L 695 383L 695 383  L 696 384L 696 384  L 696 385L 696 385  L 697 386L 697 386  L 697 387L 697 387  L 698 387L 698 387  L 699 388L 699 388  L 700 389L 700 389  L 700 390L 700 390  L 700 391L 700 391  L 701 392L 701 392  L 702 393L 702 393  L 703 394L 703 394  L 703 395L 703 395  L 704 396L 704 396  L 705 397L 705 397  L 706 398L 706 398  L 707 399L 707 399  L 707 400L 707 400  L 708 401L 708 401  L 708 402L 708 402  L 709 403L 709 403  L 710 404L 710 404  L 710 405L 710 405  L 711 406L 711 406  L 712 407L 712 407  L 713 408L 713 408  L 714 409L 714 409  L 714 410L 714 410  L 715 411L 715 411  L 716 412L 716 412  L 717 413L 717 413  L 717 414L 717 414  L 718 415L 718 415  L 719 416L 719 416  L 720 417L 720 417  L 721 418L 721 418  L 722 419L 722 419  L 722 420L 722 420  L 723 421L 723 421  L 724 422L 724 422  L 725 423L 725 423  L 726 423L 726 423  L 725 422L 725 422  L 724 421L 724 421  L 724 420L 724 420  L 723 419L 723 419  L 723 418L 723 418  L 722 417L 722 417  L 722 416L 722 416  L 721 415L 721 415  L 720 414L 720 414  L 719 413L 719 413  L 719 412L 719 412  L 719 411L 719 411  L 718 410L 718 410  L 717 409L 717 409  L 717 408L 717 408  L 716 407L 716 407  L 715 406L 715 406  L 715 405L 715 405  L 714 404L 714 404  L 714 403L 714 403  L 713 402L 713 402  L 712 401L 712 401  L 712 400L 712 400  L 711 399L 711 399  L 710 398L 710 398  L 709 397L 709 397  L 709 396L 709 396  L 708 395L 708 395  L 708 394L 708 394  L 707 393L 707 393  L 707 392L 707 392  L 706 391L 706 391  L 705 390L 705 390  L 705 389L 705 389  L 704 388L 704 388  L 703 387L 703 387  L 703 386L 703 386  L 703 385L 703 385  L 702 384L 702 384  L 702 383L 702 383  L 701 382L 701 382  L 700 381L 700 381  L 700 380L 700 380  L 699 379L 699 379  L 699 378L 699 378  L 698 377L 698 377  L 698 376L 698 376  L 697 376L 697 376  L 696 375L 696 375  L 696 374L 696 374  L 695 373L 695 373  L 695 372L 695 372  L 694 371L 694 371  L 694 370L 694 370  L 693 369L 693 369  L 693 368L 693 368  L 692 367L 692 367  L 692 366L 692 366  L 691 365L 691 365  L 691 364L 691 364  L 690 363L 690 363  L 689 362L 689 362  L 689 361L 689 361  L 688 360L 688 360  L 688 359L 688 359  L 687 358L 687 358  L 687 357L 687 357  L 687 356L 687 356  L 686 355L 686 355  L 685 354L 685 354  L 685 353L 685 353  L 684 352L 684 352  L 684 351L 684 351  L 683 350L 683 350  L 683 349L 683 349  L 682 348L 682 348  L 682 347L 682 347  L 681 346L 681 346  L 681 345L 681 345  L 680 344L 680 344  L 680 343L 680 343  L 679 342L 679 342  L 679 341L 679 341  L 678 340L 678 340  L 678 339L 678 339  L 677 338L 677 338  L 677 337L 677 337  L 676 336L 676 336  L 676 335L 676 335  L 676 334L 676 334  L 675 333L 675 333  L 675 332L 675 332  L 674 331L 674 331  L 673 330L 673 330  L 673 329L 673 329  L 672 328L 672 328  L 672 327L 672 327  L 672 326L 672 326  L 671 325L 671 325  L 671 324L 671 324  L 670 323L 670 323  L 670 322L 670 322  L 669 321L 669 321  L 669 320L 669 320  L 668 319L 668 319  L 668 318L 668 318  L 667 317L 667 317  L 667 316L 667 316  L 667 315L 667 315  L 667 314L 667 314  L 666 313L 666 313  L 666 312L 666 312  L 665 311L 665 311  L 665 310L 665 310  L 664 309L 664 309  L 664 308L 664 308  L 663 307L 663 307  L 663 306L 663 306  L 662 305L 662 305  L 662 304L 662 304  L 662 303L 662 303  L 661 302L 661 302  L 661 301L 661 301  L 660 300L 660 300  L 660 299L 660 299  L 660 298L 660 298  L 659 297L 659 297  L 659 296L 659 296  L 658 295L 658 295  L 658 294L 658 294  L 657 293L 657 293  L 657 292L 657 292  L 657 291L 657 291  L 657 290L 657 290  L 656 289L 656 289  L 656 288L 656 288  L 655 287L 655 287  L 655 286L 655 286  L 654 285L 654 285  L 654 284L 654 284  L 654 283L 654 283  L 653 282L 653 282  L 653 281L 653 281  L 653 280L 653 280  L 652 279L 652 279  L 652 278L 652 278  L 651 277L 651 277  L 651 276L 651 276  L 651 275L 651 275  L 651 274L 651 274  L 650 273L 650 273  L 650 272L 650 272  L 649 271L 649 271  L 649 270L 649 270  L 648 269L 648 269  L 648 268L 648 268  L 647 267L 647 267  L 647 266L 647 266  L 646 265L 646 265  L 646 264L 646 264  L 645 263L 645 263  L 645 262L 645 262  L 644 261L 644 261  L 644 260L 644 260  L 643 259L 643 259  L 643 258L 643 258  L 642 257L 642 257  L 642 256L 642 256  L 642 255L 642 255  L 641 254L 641 254  L 641 253L 641 253  L 640 252L 640 252  L 640 251L 640 251  L 640 250L 640 250  L 639 249L 639 249  L 639 248L 639 248  L 639 247L 639 247  L 639 246L 639 246  L 638 245L 638 245  L 638 244L 638 244  L 637 243L 637 243  L 637 242L 637 242  L 637 241L 637 241  L 636 240L 636 240  L 636 239L 636 239  L 636 238L 636 238  L 636 237L 636 237  L 635 236L 635 236  L 635 235L 635 235  L 635 234L 635 234  L 635 233L 635 233  L 635 232L 635 232  L 635 231L 635 231  L 635 230L 635 230  L 635 229L 635 229  L 635 228L 635 228  L 634 227L 634 227  L 634 226L 634 226  L 634 225L 634 225  L 634 224L 634 224  L 634 223L 634 223  L 634 222L 634 222  L 634 221L 634 221  L 634 220L 634 220  L 634 219L 634 219  L 634 218L 634 218  L 634 217L 634 217  L 634 216L 634 216  L 634 215L 634 215  L 634 214L 634 214  L 634 213L 634 213  L 634 212L 634 212  L 635 211L 635 211  L 635 210L 635 210  L 635 209L 635 209  L 635 208L 635 208  L 635 207L 635 207  L 635 206L 635 206  L 635 205L 635 205  L 635 204L 635 204  L 635 203L 635 203  L 635 202L 635 202  L 635 201L 635 201  L 635 200L 635 200  L 635 199L 635 199  L 635 198L 635 198  L 635 197L 635 197  L 635 196L 635 196  L 635 195L 635 195  L 635 194L 635 194  L 635 193L 635 193  L 635 192L 635 192  L 635 191L 635 191  L 635 190L 635 190  L 636 189L 636 189  L 636 188L 636 188  L 637 187L 637 187  L 638 187L 638 187  L 639 188L 639 188  L 640 189L 640 189  L 640 190L 640 190  L 640 191L 640 191  L 641 192L 641 192  L 642 193L 642 193  L 642 194L 642 194  L 643 195L 643 195  L 643 196L 643 196  L 644 197L 644 197  L 644 198L 644 198  L 644 199L 644 199  L 645 200L 645 200  L 645 201L 645 201  L 646 202L 646 202  L 646 203L 646 203  L 647 204L 647 204  L 648 205L 648 205  L 648 206L 648 206  L 648 207L 648 207  L 649 208L 649 208  L 650 209L 650 209  L 650 210L 650 210  L 651 211L 651 211  L 651 212L 651 212  L 651 213L 651 213  L 652 214L 652 214  L 652 215L 652 215  L 653 216L 653 216  L 653 217L 653 217  L 654 218L 654 218  L 654 219L 654 219  L 655 220L 655 220  L 655 221L 655 221  L 656 222L 656 222  L 656 223L 656 223  L 656 224L 656 224  L 656 225L 656 225  L 657 226L 657 226  L 657 227L 657 227  L 658 228L 658 228  L 658 229L 658 229  L 658 230L 658 230  L 659 231L 659 231  L 659 232L 659 232  L 659 233L 659 233  L 660 234L 660 234  L 660 235L 660 235  L 660 236L 660 236  L 660 237L 660 237  L 661 238L 661 238  L 661 239L 661 239  L 661 240L 661 240  L 661 241L 661 241  L 661 242L 661 242  L 661 243L 661 243  L 661 244L 661 244  L 662 245L 662 245  L 662 246L 662 246  L 662 247L 662 247  L 663 247L 663 247  L 664 246L 664 246  L 665 246L 665 246  L 666 247L 666 247  L 667 248L 667 248  L 668 249L 668 249  L 668 250L 668 250  L 669 251L 669 251  L 669 252L 669 252  L 670 253L 670 253  L 670 254L 670 254  L 671 255L 671 255  L 672 256L 672 256  L 672 257L 672 257  L 672 258L 672 258  L 673 259L 673 259  L 673 260L 673 260  L 674 261L 674 261  L 674 262L 674 262  L 675 263L 675 263  L 676 264L 676 264  L 676 265L 676 265  L 676 266L 676 266  L 677 267L 677 267  L 677 268L 677 268  L 678 269L 678 269  L 678 270L 678 270  L 679 271L 679 271  L 680 272L 680 272  L 680 273L 680 273  L 681 274L 681 274  L 682 275L 682 275  L 682 276L 682 276  L 682 277L 682 277  L 683 278L 683 278  L 683 279L 683 279  L 684 280L 684 280  L 685 281L 685 281  L 685 282L 685 282  L 686 283L 686 283  L 686 284L 686 284  L 687 285L 687 285  L 687 286L 687 286  L 688 287L 688 287  L 688 288L 688 288  L 689 289L 689 289  L 689 290L 689 290  L 690 291L 690 291  L 690 292L 690 292  L 691 293L 691 293  L 692 294L 692 294  L 692 295L 692 295  L 693 296L 693 296  L 694 296L 694 296  L 694 295L 694 295  L 693 294L 693 294  L 693 293L 693 293  L 692 292L 692 292  L 692 291L 692 291  L 692 290L 692 290  L 691 289L 691 289  L 691 288L 691 288  L 690 287L 690 287  L 690 286L 690 286  L 689 285L 689 285  L 689 284L 689 284  L 688 283L 688 283  L 688 282L 688 282  L 687 281L 687 281  L 687 280L 687 280  L 686 279L 686 279  L 686 278L 686 278  L 685 277L 685 277  L 685 276L 685 276  L 684 275L 684 275  L 683 274L 683 274  L 683 273L 683 273  L 683 272L 683 272  L 682 271L 682 271  L 682 270L 682 270  L 681 269L 681 269  L 681 268L 681 268  L 680 267L 680 267  L 680 266L 680 266  L 679 265L 679 265  L 679 264L 679 264  L 678 263L 678 263  L 678 262L 678 262  L 677 261L 677 261  L 677 260L 677 260  L 676 259L 676 259  L 676 258L 676 258  L 675 257L 675 257  L 675 256L 675 256  L 674 255L 674 255  L 674 254L 674 254  L 673 253L 673 253  L 673 252L 673 252  L 672 251L 672 251  L 672 250L 672 250  L 671 249L 671 249  L 671 248L 671 248  L 670 247L 670 247  L 669 246L 669 246  L 669 245L 669 245  L 669 244L 669 244  L 670 243L 670 243  L 671 243L 671 243  L 672 243L 672 243  L 673 243L 673 243  L 674 244L 674 244  L 675 244L 675 244  L 676 244L 676 244  L 677 244L 677 244  L 677 243L 677 243  L 677 242L 677 242  L 677 241L 677 241  L 677 240L 677 240  L 677 239L 677 239  L 677 238L 677 238  L 676 237L 676 237  L 676 236L 676 236  L 675 235L 675 235  L 675 234L 675 234  L 675 233L 675 233  L 674 232L 674 232  L 673 231L 673 231  L 673 230L 673 230  L 672 229L 672 229  L 672 228L 672 228  L 671 227L 671 227  L 671 226L 671 226  L 670 225L 670 225  L 670 224L 670 224  L 669 224L 669 224  L 668 223L 668 223  L 668 222L 668 222  L 667 221L 667 221  L 667 220L 667 220  L 667 219L 667 219  L 667 218L 667 218  L 666 217L 666 217  L 666 216L 666 216  L 665 215L 665 215  L 665 214L 665 214  L 665 213L 665 213  L 664 212L 664 212  L 664 211L 664 211  L 664 210L 664 210  L 665 209L 665 209  L 666 208L 666 208  L 667 208L 667 208  L 668 209L 668 209  L 668 208L 668 208  L 668 207L 668 207  L 668 206L 668 206  L 668 205L 668 205  L 667 204L 667 204  L 667 203L 667 203  L 667 202L 667 202  L 666 201L 666 201  L 666 200L 666 200  L 666 199L 666 199  L 665 198L 665 198  L 665 197L 665 197  L 665 196L 665 196  L 665 195L 665 195  L 665 194L 665 194  L 665 193L 665 193  L 664 192L 664 192  L 664 191L 664 191  L 664 190L 664 190  L 664 189L 664 189  L 663 188L 663 188  L 663 187L 663 187  L 663 186L 663 186  L 663 185L 663 185  L 664 184L 664 184  L 665 184L 665 184  L 666 185L 666 185  L 667 186L 667 186  L 668 187L 668 187  L 669 188L 669 188  L 670 189L 670 189  L 670 190L 670 190  L 671 191L 671 191  L 672 192L 672 192  L 673 193L 673 193  L 674 194L 674 194  L 675 195L 675 195  L 675 196L 675 196  L 676 197L 676 197  L 676 198L 676 198  L 677 199L 677 199  L 677 200L 677 200  L 678 201L 678 201  L 678 202L 678 202  L 679 203L 679 203  L 680 204L 680 204  L 680 205L 680 205  L 681 206L 681 206  L 681 207L 681 207  L 682 208L 682 208  L 682 209L 682 209  L 683 210L 683 210  L 683 211L 683 211  L 684 212L 684 212  L 684 213L 684 213  L 684 214L 684 214  L 685 215L 685 215  L 685 216L 685 216  L 686 217L 686 217  L 686 218L 686 218  L 687 219L 687 219  L 687 220L 687 220  L 687 221L 687 221  L 688 222L 688 222  L 688 223L 688 223  L 689 224L 689 224  L 689 225L 689 225  L 690 226L 690 226  L 690 227L 690 227  L 691 228L 691 228  L 691 229L 691 229  L 692 230L 692 230  L 692 231L 692 231  L 693 232L 693 232  L 693 233L 693 233  L 694 234L 694 234  L 694 235L 694 235  L 695 236L 695 236  L 695 237L 695 237  L 696 238L 696 238  L 696 239L 696 239  L 697 240L 697 240  L 698 241L 698 241  L 698 242L 698 242  L 699 243L 699 243  L 700 244L 700 244  L 700 245L 700 245  L 701 246L 701 246  L 701 247L 701 247  L 702 248L 702 248  L 702 249L 702 249  L 703 250L 703 250  L 703 251L 703 251  L 703 252L 703 252  L 703 253L 703 253  L 704 254L 704 254  L 704 255L 704 255  L 704 256L 704 256  L 705 257L 705 257  L 705 258L 705 258  L 705 259L 705 259  L 705 260L 705 260  L 705 261L 705 261  L 705 262L 705 262  L 705 263L 705 263  L 706 264L 706 264  L 706 265L 706 265  L 706 266L 706 266  L 706 267L 706 267  L 706 268L 706 268  L 706 269L 706 269  L 706 270L 706 270  L 706 271L 706 271  L 705 272L 705 272  L 704 273L 704 273  L 703 274L 703 274  L 702 273L 702 273  L 701 272L 701 272  L 700 271L 700 271  L 699 270L 699 270  L 698 269L 698 269  L 697 268L 697 268  L 696 267L 696 267  L 695 266L 695 266  L 695 265L 695 265  L 694 264L 694 264  L 693 263L 693 263  L 692 263L 692 263  L 691 263L 691 263  L 692 264L 692 264  L 692 265L 692 265  L 692 266L 692 266  L 693 267L 693 267  L 694 268L 694 268  L 695 269L 695 269  L 696 270L 696 270  L 697 271L 697 271  L 698 272L 698 272  L 699 273L 699 273  L 700 274L 700 274  L 701 275L 701 275  L 702 276L 702 276  L 703 277L 703 277  L 704 278L 704 278  L 705 279L 705 279  L 705 280L 705 280  L 706 281L 706 281  L 706 282L 706 282  L 707 283L 707 283  L 708 284L 708 284  L 708 285L 708 285  L 708 286L 708 286  L 709 287L 709 287  L 709 288L 709 288  L 709 289L 709 289  L 709 290L 709 290  L 710 291L 710 291  L 710 292L 710 292  L 710 293L 710 293  L 711 294L 711 294  L 711 293L 711 293  L 711 292L 711 292  L 711 291L 711 291  L 711 290L 711 290  L 711 289L 711 289  L 711 288L 711 288  L 711 287L 711 287  L 711 286L 711 286  L 711 285L 711 285  L 710 284L 710 284  L 710 283L 710 283  L 710 282L 710 282  L 710 281L 710 281  L 710 280L 710 280  L 710 279L 710 279  L 710 278L 710 278  L 710 277L 710 277  L 710 276L 710 276  L 709 275L 709 275  L 709 274L 709 274  L 709 273L 709 273  L 709 272L 709 272  L 709 271L 709 271  L 709 270L 709 270  L 709 269L 709 269  L 709 268L 709 268  L 709 267L 709 267  L 709 266L 709 266  L 709 265L 709 265  L 709 264L 709 264  L 709 263L 709 263  L 709 262L 709 262  L 709 261L 709 261  L 709 260L 709 260  L 708 259L 708 259  L 708 258L 708 258  L 708 257L 708 257  L 708 256L 708 256  L 708 255L 708 255  L 708 254L 708 254  L 707 253L 707 253  L 707 252L 707 252  L 707 251L 707 251  L 707 250L 707 250  L 707 249L 707 249  L 707 248L 707 248  L 706 247L 706 247  L 706 246L 706 246  L 706 245L 706 245  L 706 244L 706 244  L 705 243L 705 243  L 705 242L 705 242  L 705 241L 705 241  L 705 240L 705 240  L 705 239L 705 239  L 705 238L 705 238  L 705 237L 705 237  L 705 236L 705 236  L 704 235L 704 235  L 704 234L 704 234  L 704 233L 704 233  L 704 232L 704 232  L 704 231L 704 231  L 704 230L 704 230  L 704 229L 704 229  L 704 228L 704 228  L 704 227L 704 227  L 704 226L 704 226  L 705 225L 705 225  L 706 225L 706 225  L 707 225L 707 225  L 708 225L 708 225  L 709 226L 709 226  L 710 226L 710 226  L 711 227L 711 227  L 712 228L 712 228  L 713 229L 713 229  L 714 229L 714 229  L 715 230L 715 230  L 716 231L 716 231  L 717 231L 717 231  L 718 231L 718 231  L 719 232L 719 232  L 720 232L 720 232  L 721 233L 721 233  L 722 233L 722 233  L 723 234L 723 234  L 724 235L 724 235  L 725 236L 725 236  L 726 237L 726 237  L 727 237L 727 237  L 728 238L 728 238  L 729 239L 729 239  L 730 239L 730 239  L 731 240L 731 240  L 732 240L 732 240  L 733 241L 733 241  L 734 242L 734 242  L 735 243L 735 243  L 736 244L 736 244  L 737 245L 737 245  L 738 245L 738 245  L 739 246L 739 246  L 739 247L 739 247  L 740 248L 740 248  L 741 249L 741 249  L 742 250L 742 250  L 743 251L 743 251  L 743 252L 743 252  L 744 253L 744 253  L 745 254L 745 254  L 745 255L 745 255  L 745 256L 745 256  L 746 257L 746 257  L 747 258L 747 258  L 747 259L 747 259  L 748 260L 748 260  L 748 261L 748 261  L 749 262L 749 262  L 749 263L 749 263  L 750 263L 750 263  L 751 264L 751 264  L 751 265L 751 265  L 752 266L 752 266  L 752 267L 752 267  L 753 268L 753 268  L 753 269L 753 269  L 754 270L 754 270  L 755 271L 755 271  L 755 272L 755 272  L 756 273L 756 273  L 756 274L 756 274  L 756 275L 756 275  L 757 276L 757 276  L 758 277L 758 277  L 758 278L 758 278  L 759 279L 759 279  L 760 280L 760 280  L 761 281L 761 281  L 762 282L 762 282  L 762 283L 762 283  L 763 284L 763 284  L 763 285L 763 285  L 764 286L 764 286  L 764 287L 764 287  L 765 288L 765 288  L 766 289L 766 289  L 766 290L 766 290  L 767 291L 767 291  L 768 292L 768 292  L 769 293L 769 293  L 770 294L 770 294  L 770 295L 770 295  L 771 296L 771 296  L 772 297L 772 297  L 772 298L 772 298  L 773 299L 773 299  L 773 300L 773 300  L 774 301L 774 301  L 775 302L 775 302  L 775 303L 775 303  L 776 303L 776 303  L 777 304L 777 304  L 777 305L 777 305  L 778 306L 778 306  L 779 307L 779 307  L 779 308L 779 308  L 780 309L 780 309  L 780 310L 780 310  L 781 311L 781 311  L 782 311L 782 311  L 783 312L 783 312  L 784 313L 784 313  L 784 314L 784 314  L 784 315L 784 315  L 785 316L 785 316  L 786 317L 786 317  L 787 318L 787 318  L 787 319L 787 319  L 788 319L 788 319  L 789 320L 789 320  L 789 321L 789 321  L 790 322L 790 322  L 791 323L 791 323  L 792 324L 792 324  L 793 325L 793 325  L 794 326L 794 326  L 794 327L 794 327  L 795 328L 795 328  L 796 329L 796 329  L 797 330L 797 330  L 798 331L 798 331  L 799 332L 799 332  L 800 333L 800 333  L 800 334L 800 334  L 801 335L 801 335  L 802 336L 802 336  L 803 337L 803 337  L 804 338L 804 338  L 804 339L 804 339  L 805 340L 805 340  L 806 341L 806 341  L 807 342L 807 342  L 807 343L 807 343  L 808 343L 808 343  L 809 344L 809 344  L 810 345L 810 345  L 811 346L 811 346  L 812 347L 812 347  L 813 348L 813 348  L 814 349L 814 349  L 815 350L 815 350  L 816 351L 816 351  L 816 352L 816 352  L 817 353L 817 353  L 818 354L 818 354  L 819 355L 819 355  L 819 354L 819 354  L 819 353L 819 353  L 818 352L 818 352  L 817 351L 817 351  L 817 350L 817 350  L 816 349L 816 349  L 815 348L 815 348  L 814 347L 814 347  L 813 346L 813 346  L 812 345L 812 345  L 811 344L 811 344  L 811 343L 811 343  L 811 342L 811 342  L 810 341L 810 341  L 809 340L 809 340  L 808 339L 808 339  L 807 338L 807 338  L 807 337L 807 337  L 806 336L 806 336  L 805 335L 805 335  L 804 334L 804 334  L 803 333L 803 333  L 802 332L 802 332  L 802 331L 802 331  L 801 330L 801 330  L 800 329L 800 329  L 800 328L 800 328  L 799 327L 799 327  L 798 326L 798 326  L 797 325L 797 325  L 796 324L 796 324  L 796 323L 796 323  L 795 322L 795 322  L 795 321L 795 321  L 794 320L 794 320  L 793 319L 793 319  L 792 318L 792 318  L 792 317L 792 317  L 791 316L 791 316  L 790 315L 790 315  L 789 314L 789 314  L 789 313L 789 313  L 788 312L 788 312  L 787 311L 787 311  L 786 310L 786 310  L 785 309L 785 309  L 785 308L 785 308  L 784 307L 784 307  L 783 306L 783 306  L 783 305L 783 305  L 782 304L 782 304  L 782 303L 782 303  L 781 302L 781 302  L 780 301L 780 301  L 780 300L 780 300  L 779 300L 779 300  L 778 299L 778 299  L 778 298L 778 298  L 777 297L 777 297  L 776 296L 776 296  L 776 295L 776 295  L 775 294L 775 294  L 775 293L 775 293  L 774 292L 774 292  L 774 291L 774 291  L 773 290L 773 290  L 772 289L 772 289  L 772 288L 772 288  L 771 287L 771 287  L 770 286L 770 286  L 769 285L 769 285  L 769 284L 769 284  L 769 283L 769 283  L 768 282L 768 282  L 768 281L 768 281  L 767 280L 767 280  L 766 279L 766 279  L 765 278L 765 278  L 765 277L 765 277  L 764 276L 764 276  L 764 275L 764 275  L 763 274L 763 274  L 763 273L 763 273  L 763 272L 763 272  L 762 271L 762 271  L 761 270L 761 270  L 761 269L 761 269  L 760 268L 760 268  L 759 267L 759 267  L 759 266L 759 266  L 758 265L 758 265  L 758 264L 758 264  L 758 263L 758 263  L 757 262L 757 262  L 757 261L 757 261  L 756 260L 756 260  L 755 259L 755 259  L 755 258L 755 258  L 754 257L 754 257  L 754 256L 754 256  L 754 255L 754 255  L 754 254L 754 254  L 755 253L 755 253  L 756 253L 756 253  L 757 253L 757 253  L 758 253L 758 253  L 759 253L 759 253  L 760 254L 760 254  L 761 254L 761 254  L 762 255L 762 255  L 763 255L 763 255  L 764 255L 764 255  L 765 255L 765 255  L 766 256L 766 256  L 767 256L 767 256  L 768 257L 768 257  L 769 257L 769 257  L 770 257L 770 257  L 771 258L 771 258  L 772 258L 772 258  L 773 258L 773 258  L 774 259L 774 259  L 775 259L 775 259  L 776 259L 776 259  L 777 259L 777 259  L 778 260L 778 260  L 779 260L 779 260  L 780 261L 780 261  L 781 261L 781 261  L 782 262L 782 262  L 783 262L 783 262  L 784 263L 784 263  L 785 263L 785 263  L 786 263L 786 263  L 787 264L 787 264  L 788 265L 788 265  L 788 266L 788 266  L 789 266L 789 266  L 790 267L 790 267  L 791 267L 791 267  L 792 268L 792 268  L 793 269L 793 269  L 794 270L 794 270  L 795 271L 795 271  L 795 272L 795 272  L 796 273L 796 273  L 797 274L 797 274  L 798 275L 798 275  L 799 276L 799 276  L 800 277L 800 277  L 801 278L 801 278  L 802 279L 802 279  L 803 279L 803 279  L 804 280L 804 280  L 805 281L 805 281  L 806 282L 806 282  L 807 283L 807 283  L 808 283L 808 283  L 809 283L 809 283  L 810 284L 810 284  L 811 284L 811 284  L 812 284L 812 284  L 813 284L 813 284  L 814 284L 814 284  L 815 283L 815 283  L 815 282L 815 282  L 816 281L 816 281  L 816 280L 816 280  L 817 279L 817 279  L 817 278L 817 278  L 817 277L 817 277  L 817 276L 817 276  L 817 275L 817 275  L 818 274L 818 274  L 818 273L 818 273  L 818 272L 818 272  L 818 271L 818 271  L 817 271L 817 271  L 816 272L 816 272  L 816 273L 816 273  L 815 274L 815 274  L 814 275L 814 275  L 813 276L 813 276  L 813 277L 813 277  L 812 278L 812 278  L 812 279L 812 279  L 811 280L 811 280  L 810 280L 810 280  L 809 280L 809 280  L 808 280L 808 280  L 807 279L 807 279  L 806 278L 806 278  L 805 277L 805 277  L 804 276L 804 276  L 803 275L 803 275  L 802 274L 802 274  L 801 273L 801 273  L 800 272L 800 272  L 799 271L 799 271  L 798 270L 798 270  L 798 269L 798 269  L 798 268L 798 268  L 799 267L 799 267  L 800 266L 800 266  L 799 265L 799 265  L 798 264L 798 264  L 797 264L 797 264  L 796 263L 796 263  L 795 262L 795 262  L 795 261L 795 261  L 794 260L 794 260  L 793 260L 793 260  L 792 259L 792 259  L 791 258L 791 258  L 791 257L 791 257  L 790 256L 790 256  L 789 256L 789 256  L 788 255L 788 255  L 787 254L 787 254  L 787 253L 787 253  L 786 252L 786 252  L 785 252L 785 252  L 784 251L 784 251  L 784 250L 784 250  L 783 249L 783 249  L 783 248L 783 248  L 782 247L 782 247  L 781 246L 781 246  L 780 245L 780 245  L 780 244L 780 244  L 779 243L 779 243  L 778 242L 778 242  L 777 241L 777 241  L 777 240L 777 240  L 776 239L 776 239  L 776 238L 776 238  L 775 237L 775 237  L 775 236L 775 236  L 774 235L 774 235  L 773 234L 773 234  L 773 233L 773 233  L 772 232L 772 232  L 772 231L 772 231  L 772 230L 772 230  L 771 229L 771 229  L 771 228L 771 228  L 770 227L 770 227  L 769 226L 769 226  L 769 225L 769 225  L 769 224L 769 224  L 768 223L 768 223  L 768 222L 768 222  L 767 221L 767 221  L 767 220L 767 220  L 767 219L 767 219  L 767 218L 767 218  L 766 217L 766 217  L 766 216L 766 216  L 766 215L 766 215  L 766 214L 766 214  L 767 213L 767 213  L 768 213L 768 213  L 769 214L 769 214  L 769 215L 769 215  L 770 216L 770 216  L 771 217L 771 217  L 772 218L 772 218  L 773 219L 773 219  L 774 219L 774 219  L 775 220L 775 220  L 776 221L 776 221  L 776 222L 776 222  L 777 223L 777 223  L 778 223L 778 223  L 779 224L 779 224  L 780 225L 780 225  L 780 226L 780 226  L 781 227L 781 227  L 782 227L 782 227  L 783 228L 783 228  L 784 229L 784 229  L 784 230L 784 230  L 785 231L 785 231  L 786 232L 786 232  L 786 233L 786 233  L 787 234L 787 234  L 788 235L 788 235  L 789 236L 789 236  L 790 237L 790 237  L 790 238L 790 238  L 791 239L 791 239  L 792 240L 792 240  L 793 241L 793 241  L 793 242L 793 242  L 794 243L 794 243  L 795 244L 795 244  L 796 245L 796 245  L 796 246L 796 246  L 797 247L 797 247  L 798 247L 798 247  L 799 247L 799 247  L 799 246L 799 246  L 799 245L 799 245  L 798 244L 798 244  L 798 243L 798 243  L 797 242L 797 242  L 797 241L 797 241  L 796 240L 796 240  L 795 239L 795 239  L 795 238L 795 238  L 795 237L 795 237  L 794 236L 794 236  L 794 235L 794 235  L 793 234L 793 234  L 792 233L 792 233  L 792 232L 792 232  L 791 232L 791 232  L 790 231L 790 231  L 790 230L 790 230  L 789 229L 789 229  L 788 228L 788 228  L 788 227L 788 227  L 787 226L 787 226  L 787 225L 787 225  L 786 224L 786 224  L 786 223L 786 223  L 785 222L 785 222  L 784 221L 784 221  L 784 220L 784 220  L 783 219L 783 219  L 783 218L 783 218  L 782 217L 782 217  L 782 216L 782 216  L 781 216L 781 216  L 780 215L 780 215  L 780 214L 780 214  L 779 213L 779 213  L 779 212L 779 212  L 778 211L 778 211  L 778 210L 778 210  L 777 209L 777 209  L 777 208L 777 208  L 776 207L 776 207  L 775 206L 775 206  L 775 205L 775 205  L 774 204L 774 204  L 774 203L 774 203  L 773 202L 773 202  L 772 201L 772 201  L 772 200L 772 200  L 771 200L 771 200  L 770 199L 770 199  L 770 198L 770 198  L 769 197L 769 197  L 768 196L 768 196  L 768 195L 768 195  L 767 195L 767 195  L 766 194L 766 194  L 766 193L 766 193  L 765 192L 765 192  L 764 191L 764 191  L 764 190L 764 190  L 763 189L 763 189  L 763 188L 763 188  L 762 187L 762 187  L 762 186L 762 186  L 761 185L 761 185  L 761 184L 761 184  L 760 183L 760 183  L 760 182L 760 182  L 759 181L 759 181  L 759 180L 759 180  L 759 179L 759 179  L 759 178L 759 178  L 759 177L 759 177  L 759 176L 759 176  L 758 175L 758 175  L 758 174L 758 174  L 758 173L 758 173  L 758 172L 758 172  L 757 171L 757 171  L 757 170L 757 170  L 757 169L 757 169  L 757 168L 757 168  L 757 167L 757 167  L 757 166L 757 166  L 757 165L 757 165  L 757 164L 757 164  L 757 163L 757 163  L 757 162L 757 162  L 757 161L 757 161  L 757 160L 757 160  L 756 159L 756 159  L 757 158L 757 158  L 758 157L 758 157  L 759 157L 759 157  L 760 158L 760 158  L 761 159L 761 159  L 762 160L 762 160  L 762 161L 762 161  L 763 162L 763 162  L 764 163L 764 163  L 765 164L 765 164  L 766 165L 766 165  L 767 166L 767 166  L 767 167L 767 167  L 768 167L 768 167  L 769 168L 769 168  L 769 169L 769 169  L 770 170L 770 170  L 771 171L 771 171  L 771 172L 771 172  L 772 173L 772 173  L 772 174L 772 174  L 773 175L 773 175  L 774 175L 774 175  L 775 176L 775 176  L 776 177L 776 177  L 776 178L 776 178  L 776 179L 776 179  L 777 180L 777 180  L 778 181L 778 181  L 779 182L 779 182  L 779 183L 779 183  L 780 183L 780 183  L 781 184L 781 184  L 781 185L 781 185  L 782 186L 782 186  L 783 187L 783 187  L 784 188L 784 188  L 785 189L 785 189  L 786 190L 786 190  L 787 191L 787 191  L 788 192L 788 192  L 789 193L 789 193  L 790 194L 790 194  L 791 195L 791 195  L 791 196L 791 196  L 792 196L 792 196  L 793 197L 793 197  L 794 198L 794 198  L 795 199L 795 199  L 796 200L 796 200  L 797 201L 797 201  L 798 202L 798 202  L 799 202L 799 202  L 800 203L 800 203  L 801 204L 801 204  L 802 205L 802 205  L 803 206L 803 206  L 804 207L 804 207  L 805 208L 805 208  L 806 209L 806 209  L 807 210L 807 210  L 807 211L 807 211  L 808 212L 808 212  L 809 213L 809 213  L 810 214L 810 214  L 811 215L 811 215  L 812 216L 812 216  L 813 217L 813 217  L 814 218L 814 218  L 814 219L 814 219  L 815 220L 815 220  L 816 221L 816 221  L 816 222L 816 222  L 816 223L 816 223  L 817 224L 817 224  L 818 225L 818 225  L 819 226L 819 226  L 819 227L 819 227  L 820 228L 820 228  L 821 229L 821 229  L 822 230L 822 230  L 822 231L 822 231  L 823 232L 823 232  L 824 233L 824 233  L 824 234L 824 234  L 825 235L 825 235  L 825 236L 825 236  L 826 237L 826 237  L 827 238L 827 238  L 827 239L 827 239  L 828 240L 828 240  L 829 241L 829 241  L 829 242L 829 242  L 830 243L 830 243  L 831 244L 831 244  L 832 245L 832 245  L 832 246L 832 246  L 833 247L 833 247  L 833 248L 833 248  L 834 249L 834 249  L 834 250L 834 250  L 835 251L 835 251  L 836 252L 836 252  L 837 253L 837 253  L 837 254L 837 254  L 838 255L 838 255  L 839 256L 839 256  L 839 257L 839 257  L 840 258L 840 258  L 841 259L 841 259  L 841 260L 841 260  L 841 261L 841 261  L 842 262L 842 262  L 843 263L 843 263  L 844 264L 844 264  L 844 265L 844 265  L 845 266L 845 266  L 846 267L 846 267  L 846 268L 846 268  L 847 269L 847 269  L 848 270L 848 270  L 849 271L 849 271  L 849 272L 849 272  L 850 273L 850 273  L 851 273L 851 273  L 851 272L 851 272  L 850 271L 850 271  L 850 270L 850 270  L 849 269L 849 269  L 848 268L 848 268  L 848 267L 848 267  L 848 266L 848 266  L 847 265L 847 265  L 847 264L 847 264  L 846 263L 846 263  L 846 262L 846 262  L 845 261L 845 261  L 844 260L 844 260  L 843 259L 843 259  L 843 258L 843 258  L 842 257L 842 257  L 841 256L 841 256  L 840 255L 840 255  L 840 254L 840 254  L 839 253L 839 253  L 839 252L 839 252  L 839 251L 839 251  L 838 250L 838 250  L 837 249L 837 249  L 837 248L 837 248  L 836 247L 836 247  L 835 246L 835 246  L 835 245L 835 245  L 834 244L 834 244  L 834 243L 834 243  L 833 242L 833 242  L 833 241L 833 241  L 832 240L 832 240  L 831 239L 831 239  L 830 238L 830 238  L 830 237L 830 237  L 829 236L 829 236  L 828 235L 828 235  L 828 234L 828 234  L 827 233L 827 233  L 827 232L 827 232  L 826 231L 826 231  L 826 230L 826 230  L 825 229L 825 229  L 825 228L 825 228  L 824 227L 824 227  L 823 226L 823 226  L 823 225L 823 225  L 823 224L 823 224  L 822 223L 822 223  L 821 222L 821 222  L 821 221L 821 221  L 820 220L 820 220  L 819 219L 819 219  L 819 218L 819 218  L 819 217L 819 217  L 818 216L 818 216  L 817 215L 817 215  L 817 214L 817 214  L 816 213L 816 213  L 816 212L 816 212  L 815 211L 815 211  L 815 210L 815 210  L 814 209L 814 209  L 814 208L 814 208  L 813 208L 813 208  L 812 207L 812 207  L 812 206L 812 206  L 811 205L 811 205  L 811 204L 811 204  L 810 203L 810 203  L 810 202L 810 202  L 809 201L 809 201  L 809 200L 809 200  L 808 199L 808 199  L 807 198L 807 198  L 807 197L 807 197  L 807 196L 807 196  L 806 195L 806 195  L 805 194L 805 194  L 805 193L 805 193  L 804 192L 804 192  L 803 191L 803 191  L 803 190L 803 190  L 803 189L 803 189  L 802 188L 802 188  L 802 187L 802 187  L 801 186L 801 186  L 800 185L 800 185  L 800 184L 800 184  L 799 183L 799 183  L 799 182L 799 182  L 798 181L 798 181  L 798 180L 798 180  L 797 179L 797 179  L 797 178L 797 178  L 796 177L 796 177  L 796 176L 796 176  L 795 176L 795 176  L 794 175L 794 175  L 794 174L 794 174  L 793 173L 793 173  L 793 172L 793 172  L 792 171L 792 171  L 792 170L 792 170  L 791 169L 791 169  L 791 168L 791 168  L 790 167L 790 167  L 790 166L 790 166  L 789 165L 789 165  L 788 164L 788 164  L 788 163L 788 163  L 787 162L 787 162  L 787 161L 787 161  L 787 160L 787 160  L 786 159L 786 159  L 786 158L 786 158  L 785 157L 785 157  L 784 156L 784 156  L 784 155L 784 155  L 784 154L 784 154  L 783 153L 783 153  L 783 152L 783 152  L 782 151L 782 151  L 781 150L 781 150  L 781 149L 781 149  L 781 148L 781 148  L 780 147L 780 147  L 780 146L 780 146  L 780 145L 780 145  L 779 144L 779 144  L 779 143L 779 143  L 779 142L 779 142  L 779 141L 779 141  L 779 140L 779 140  L 778 139L 778 139  L 777 138L 777 138  L 777 137L 777 137  L 777 136L 777 136  L 777 135L 777 135  L 777 134L 777 134  L 777 133L 777 133  L 776 132L 776 132  L 776 131L 776 131  L 776 130L 776 130  L 776 129L 776 129  L 776 128L 776 128  L 775 127L 775 127  L 775 126L 775 126  L 775 125L 775 125  L 775 124L 775 124  L 775 123L 775 123  L 774 122L 774 122  L 774 121L 774 121  L 774 120L 774 120  L 773 119L 773 119  L 773 118L 773 118  L 773 117L 773 117  L 773 116L 773 116  L 772 115L 772 115  L 772 114L 772 114  L 771 113L 771 113  L 771 112L 771 112  L 771 111L 771 111  L 771 110L 771 110  L 771 109L 771 109  L 771 108L 771 108  L 772 107L 772 107  L 773 107L 773 107  L 774 108L 774 108  L 775 109L 775 109  L 776 110L 776 110  L 776 111L 776 111  L 777 112L 777 112  L 777 113L 777 113  L 778 114L 778 114  L 778 115L 778 115  L 779 116L 779 116  L 779 117L 779 117  L 780 118L 780 118  L 780 119L 780 119  L 780 120L 780 120  L 780 121L 780 121  L 780 122L 780 122  L 780 123L 780 123  L 780 124L 780 124  L 781 125L 781 125  L 781 126L 781 126  L 781 127L 781 127  L 781 128L 781 128  L 781 129L 781 129  L 782 130L 782 130  L 782 131L 782 131  L 783 132L 783 132  L 783 133L 783 133  L 784 134L 784 134  L 784 133L 784 133  L 784 132L 784 132  L 784 131L 784 131  L 784 130L 784 130  L 784 129L 784 129  L 784 128L 784 128  L 784 127L 784 127  L 785 126L 785 126  L 786 126L 786 126  L 787 126L 787 126  L 788 127L 788 127  L 789 128L 789 128  L 790 129L 790 129  L 791 130L 791 130  L 791 131L 791 131  L 792 131L 792 131  L 793 132L 793 132  L 794 133L 794 133  L 794 134L 794 134  L 795 135L 795 135  L 796 136L 796 136  L 797 137L 797 137  L 798 138L 798 138  L 799 139L 799 139  L 799 140L 799 140  L 800 141L 800 141  L 800 142L 800 142  L 801 143L 801 143  L 802 143L 802 143  L 803 144L 803 144  L 804 145L 804 145  L 804 146L 804 146  L 805 147L 805 147  L 806 148L 806 148  L 806 149L 806 149  L 807 150L 807 150  L 808 151L 808 151  L 809 152L 809 152  L 810 153L 810 153  L 811 154L 811 154  L 812 155L 812 155  L 813 156L 813 156  L 814 157L 814 157  L 815 158L 815 158  L 815 159L 815 159  L 816 159L 816 159  L 817 160L 817 160  L 817 161L 817 161  L 818 162L 818 162  L 819 163L 819 163  L 820 164L 820 164  L 821 165L 821 165  L 822 166L 822 166  L 823 167L 823 167  L 824 168L 824 168  L 824 169L 824 169  L 825 170L 825 170  L 826 170L 826 170  L 827 171L 827 171  L 828 172L 828 172  L 829 173L 829 173  L 830 173L 830 173  L 831 174L 831 174  L 832 175L 832 175  L 832 174L 832 174  L 831 174L 831 174  L 830 173L 830 173  L 830 172L 830 172  L 829 171L 829 171  L 828 170L 828 170  L 828 169L 828 169  L 827 168L 827 168  L 827 167L 827 167  L 826 166L 826 166  L 825 165L 825 165  L 825 164L 825 164  L 824 163L 824 163  L 823 162L 823 162  L 822 161L 822 161  L 822 160L 822 160  L 822 159L 822 159  L 821 158L 821 158  L 820 157L 820 157  L 820 156L 820 156  L 819 155L 819 155  L 819 154L 819 154  L 818 153L 818 153  L 818 152L 818 152  L 817 152L 817 152  L 816 151L 816 151  L 816 150L 816 150  L 815 149L 815 149  L 815 148L 815 148  L 814 147L 814 147  L 814 146L 814 146  L 813 145L 813 145  L 813 144L 813 144  L 812 143L 812 143  L 812 142L 812 142  L 811 141L 811 141  L 811 140L 811 140  L 810 139L 810 139  L 810 138L 810 138  L 809 137L 809 137  L 809 136L 809 136  L 808 135L 808 135  L 808 134L 808 134  L 807 133L 807 133  L 807 132L 807 132  L 807 131L 807 131  L 807 130L 807 130  L 806 129L 806 129  L 806 128L 806 128  L 805 127L 805 127  L 805 126L 805 126  L 804 125L 804 125  L 804 124L 804 124  L 803 123L 803 123  L 803 122L 803 122  L 802 121L 802 121  L 802 120L 802 120  L 802 119L 802 119  L 801 118L 801 118  L 801 117L 801 117  L 801 116L 801 116  L 800 115L 800 115  L 800 114L 800 114  L 799 113L 799 113  L 799 112L 799 112  L 799 111L 799 111  L 799 110L 799 110  L 798 109L 798 109  L 798 108L 798 108  L 797 107L 797 107  L 797 106L 797 106  L 797 105L 797 105  L 797 104L 797 104  L 798 103L 798 103  L 799 104L 799 104  L 800 105L 800 105  L 801 106L 801 106  L 802 107L 802 107  L 803 107L 803 107  L 804 108L 804 108  L 805 109L 805 109  L 806 110L 806 110  L 807 111L 807 111  L 807 112L 807 112  L 808 113L 808 113  L 809 114L 809 114  L 810 115L 810 115  L 811 116L 811 116  L 812 117L 812 117  L 812 118L 812 118  L 813 119L 813 119  L 814 119L 814 119  L 815 120L 815 120  L 816 121L 816 121  L 816 122L 816 122  L 816 123L 816 123  L 817 124L 817 124  L 818 125L 818 125  L 818 126L 818 126  L 819 127L 819 127  L 819 128L 819 128  L 819 129L 819 129  L 820 130L 820 130  L 820 131L 820 131  L 821 132L 821 132  L 821 133L 821 133  L 821 134L 821 134  L 821 135L 821 135  L 821 136L 821 136  L 821 137L 821 137  L 822 138L 822 138  L 822 139L 822 139  L 823 140L 823 140  L 823 141L 823 141  L 824 142L 824 142  L 824 143L 824 143  L 824 144L 824 144  L 825 145L 825 145  L 825 146L 825 146  L 825 145L 825 145  L 825 144L 825 144  L 825 143L 825 143  L 824 142L 824 142  L 824 141L 824 141  L 824 140L 824 140  L 824 139L 824 139  L 824 138L 824 138  L 824 137L 824 137  L 824 136L 824 136  L 824 135L 824 135  L 824 134L 824 134  L 824 133L 824 133  L 825 132L 825 132  L 826 132L 826 132  L 827 133L 827 133  L 828 134L 828 134  L 829 135L 829 135  L 830 135L 830 135  L 831 136L 831 136  L 832 137L 832 137  L 832 138L 832 138  L 833 139L 833 139  L 834 139L 834 139  L 835 140L 835 140  L 836 141L 836 141  L 837 142L 837 142  L 837 143L 837 143  L 838 143L 838 143  L 839 144L 839 144  L 840 144L 840 144  L 841 145L 841 145  L 842 146L 842 146  L 843 147L 843 147  L 844 148L 844 148  L 845 149L 845 149  L 846 150L 846 150  L 847 151L 847 151  L 848 152L 848 152  L 849 153L 849 153  L 850 153L 850 153  L 851 154L 851 154  L 852 155L 852 155  L 853 156L 853 156  L 854 157L 854 157  L 855 158L 855 158  L 856 159L 856 159  L 857 159L 857 159  L 858 159L 858 159  L 859 160L 859 160  L 860 161L 860 161  L 860 162L 860 162  L 861 163L 861 163  L 862 163L 862 163  L 863 164L 863 164  L 864 165L 864 165  L 865 165L 865 165  L 866 166L 866 166  L 867 167L 867 167  L 868 168L 868 168  L 869 169L 869 169  L 870 170L 870 170  L 871 170L 871 170  L 872 170L 872 170  L 873 171L 873 171  L 874 172L 874 172  L 875 172L 875 172  L 876 173L 876 173  L 877 174L 877 174  L 878 175L 878 175  L 879 175L 879 175  L 880 176L 880 176  L 881 176L 881 176  L 882 177L 882 177  L 883 177L 883 177  L 882 176L 882 176  L 881 175L 881 175  L 880 174L 880 174  L 879 173L 879 173  L 878 172L 878 172  L 877 171L 877 171  L 876 171L 876 171  L 875 170L 875 170  L 874 169L 874 169  L 873 168L 873 168  L 872 167L 872 167  L 871 166L 871 166  L 870 165L 870 165  L 869 165L 869 165  L 868 164L 868 164  L 867 163L 867 163  L 866 162L 866 162  L 865 161L 865 161  L 864 160L 864 160  L 863 159L 863 159  L 862 158L 862 158  L 861 157L 861 157  L 860 157L 860 157  L 859 156L 859 156  L 858 155L 858 155  L 857 154L 857 154  L 856 153L 856 153  L 855 152L 855 152  L 854 151L 854 151  L 853 150L 853 150  L 852 149L 852 149  L 851 148L 851 148  L 850 147L 850 147  L 849 146L 849 146  L 848 145L 848 145  L 847 144L 847 144  L 846 143L 846 143  L 845 142L 845 142  L 844 141L 844 141  L 843 140L 843 140  L 842 139L 842 139  L 841 138L 841 138  L 840 137L 840 137  L 839 136L 839 136  L 838 135L 838 135  L 837 134L 837 134  L 836 133L 836 133  L 836 132L 836 132  L 835 132L 835 132  L 834 131L 834 131  L 833 130L 833 130  L 833 129L 833 129  L 832 128L 832 128  L 831 127L 831 127  L 831 126L 831 126  L 830 125L 830 125  L 829 124L 829 124  L 828 123L 828 123  L 828 122L 828 122  L 829 121L 829 121  L 830 121L 830 121  L 831 122L 831 122  L 832 123L 832 123  L 833 123L 833 123  L 834 124L 834 124  L 835 125L 835 125  L 836 126L 836 126  L 837 126L 837 126  L 837 125L 837 125  L 837 124L 837 124  L 838 123L 838 123  L 837 122L 837 122  L 837 121L 837 121  L 836 120L 836 120  L 836 119L 836 119  L 835 118L 835 118  L 835 117L 835 117  L 835 116L 835 116  L 834 115L 834 115  L 833 114L 833 114  L 833 113L 833 113  L 832 112L 832 112  L 832 111L 832 111  L 832 110L 832 110  L 831 109L 831 109  L 831 108L 831 108  L 830 107L 830 107  L 830 106L 830 106  L 829 105L 829 105  L 829 104L 829 104  L 828 103L 828 103  L 828 102L 828 102  L 827 101L 827 101  L 827 100L 827 100  L 827 99L 827 99  L 827 98L 827 98  L 826 97L 826 97  L 826 96L 826 96  L 825 95L 825 95  L 825 94L 825 94  L 824 93L 824 93  L 824 92L 824 92  L 824 91L 824 91  L 825 90L 825 90  L 826 89L 826 89  L 827 89L 827 89  L 828 90L 828 90  L 829 90L 829 90  L 830 90L 830 90  L 831 90L 831 90  L 832 90L 832 90  L 833 90L 833 90  L 834 91L 834 91  L 835 91L 835 91  L 836 91L 836 91  L 837 91L 837 91  L 838 92L 838 92  L 839 92L 839 92  L 840 93L 840 93  L 840 94L 840 94  L 841 94L 841 94  L 842 95L 842 95  L 843 95L 843 95  L 844 96L 844 96  L 845 97L 845 97  L 846 98L 846 98  L 847 98L 847 98  L 848 99L 848 99  L 849 100L 849 100  L 850 101L 850 101  L 851 102L 851 102  L 852 103L 852 103  L 852 104L 852 104  L 853 104L 853 104  L 854 105L 854 105  L 855 106L 855 106  L 856 106L 856 106  L 857 107L 857 107  L 858 108L 858 108  L 859 109L 859 109  L 860 110L 860 110  L 861 110L 861 110  L 862 110L 862 110  L 862 109L 862 109  L 861 108L 861 108  L 860 107L 860 107  L 859 106L 859 106  L 859 105L 859 105  L 858 104L 858 104  L 858 103L 858 103  L 857 102L 857 102  L 856 101L 856 101  L 855 100L 855 100  L 854 99L 854 99  L 853 98L 853 98  L 852 97L 852 97  L 851 96L 851 96  L 850 95L 850 95  L 849 94L 849 94  L 848 93L 848 93  L 847 92L 847 92  L 846 91L 846 91  L 845 90L 845 90  L 844 89L 844 89  L 843 88L 843 88  L 842 87L 842 87  L 841 86L 841 86  L 840 85L 840 85  L 839 84L 839 84  L 838 83L 838 83  L 837 82L 837 82  L 836 81L 836 81  L 835 80L 835 80  L 834 79L 834 79  L 833 78L 833 78  L 832 77L 832 77  L 831 76L 831 76  L 830 75L 830 75  L 829 74L 829 74  L 829 73L 829 73  L 828 72L 828 72  L 827 71L 827 71  L 826 70L 826 70  L 825 69L 825 69  L 824 68L 824 68  L 823 67L 823 67  L 822 66L 822 66  L 821 65L 821 65  L 820 64L 820 64  L 819 63L 819 63  L 818 62L 818 62  L 817 62L 817 62  L 816 61L 816 61  L 815 60L 815 60  L 815 59L 815 59  L 814 59L 814 59  L 813 58L 813 58  L 812 57L 812 57  L 811 56L 811 56  L 811 55L 811 55  L 811 54L 811 54  L 811 53L 811 53  L 812 52L 812 52  L 813 51L 813 51  L 814 51L 814 51  L 815 51L 815 51  L 816 50L 816 50  L 817 50L 817 50  L 818 50L 818 50  L 819 51L 819 51  L 820 51L 820 51  L 821 52L 821 52  L 822 53L 822 53  L 823 54L 823 54  L 824 55L 824 55  L 825 56L 825 56  L 826 57L 826 57  L 827 58L 827 58  L 828 58L 828 58  L 829 59L 829 59  L 830 60L 830 60  L 831 60L 831 60  L 832 61L 832 61  L 833 61L 833 61  L 833 60L 833 60  L 832 59L 832 59  L 832 58L 832 58  L 831 57L 831 57  L 830 56L 830 56  L 830 55L 830 55  L 829 54L 829 54  L 828 53L 828 53  L 827 52L 827 52  L 826 51L 826 51  L 825 50L 825 50  L 825 49L 825 49  L 825 48L 825 48  L 824 47L 824 47  L 825 46L 825 46  L 826 45L 826 45  L 827 44L 827 44  L 828 44L 828 44  L 829 43L 829 43  L 830 42L 830 42  L 831 42L 831 42  L 832 42L 832 42  L 833 41L 833 41  L 834 41L 834 41  L 835 40L 835 40  L 836 39L 836 39  L 837 39L 837 39  L 838 39L 838 39  L 839 38L 839 38  L 840 37L 840 37  L 841 37L 841 37  L 842 36L 842 36  L 843 36L 843 36  L 844 35L 844 35  L 845 35L 845 35  L 846 34L 846 34  L 847 34L 847 34  L 847 33L 847 33  L 848 32L 848 32  L 849 31L 849 31  L 850 31L 850 31  L 851 31L 851 31  L 852 30L 852 30  L 853 29L 853 29  L 854 29L 854 29  L 855 28L 855 28  L 856 27L 856 27  L 857 27L 857 27  L 858 26L 858 26  L 859 25L 859 25  L 860 24L 860 24  L 861 23L 861 23  L 862 23L 862 23  L 863 22L 863 22  L 864 22L 864 22  L 865 21L 865 21  L 866 20L 866 20  L 867 19L 867 19  L 868 18L 868 18  L 869 17L 869 17  L 870 16L 870 16  L 871 15L 871 15  L 872 14L 872 14  L 873 13L 873 13  L 874 12L 874 12  L 875 11L 875 11  L 876 10L 876 10  L 877 9L 877 9  L 878 8L 878 8  L 879 7L 879 7  L 879 6L 879 6  L 880 5L 880 5  L 880 4L 880 4  L 881 3L 881 3  L 881 2L 881 2  L 881 1L 881 1  L 881 0L 881 0  L 880 0L 880 0  L 879 0L 879 0  L 878 0L 878 0  L 877 0L 877 0  L 876 0L 876 0  L 875 0L 875 0  L 874 0L 874 0  L 873 0L 873 0  L 872 0L 872 0  L 871 0L 871 0  L 870 0L 870 0  L 869 0L 869 0  L 868 0L 868 0  L 867 0L 867 0  L 866 0L 866 0  L 865 0L 865 0  L 864 0L 864 0  L 863 0L 863 0  L 862 0L 862 0  L 861 0L 861 0  L 860 0L 860 0  L 859 0L 859 0  L 858 0L 858 0  L 857 0L 857 0  L 856 0L 856 0  L 855 0L 855 0  L 854 0L 854 0  L 853 0L 853 0  L 852 0L 852 0  L 851 0L 851 0  L 850 0L 850 0  L 849 0L 849 0  L 848 0L 848 0  L 847 0L 847 0  L 846 0L 846 0  L 845 0L 845 0  L 844 0L 844 0  L 843 0L 843 0  L 842 0L 842 0  L 841 0L 841 0  L 840 0L 840 0  L 839 0L 839 0  L 838 0L 838 0  L 837 0L 837 0  L 836 0L 836 0  L 835 0L 835 0  L 834 0L 834 0  L 833 0L 833 0  L 832 0L 832 0  L 831 0L 831 0  L 830 0L 830 0  L 829 0L 829 0  L 828 0L 828 0  L 827 0L 827 0  L 826 0L 826 0  L 825 0L 825 0  L 824 0L 824 0  L 823 0L 823 0  L 822 0L 822 0  L 821 0L 821 0  L 820 0L 820 0  L 819 0L 819 0  L 818 0L 818 0  L 817 0L 817 0  L 816 0L 816 0  L 815 0L 815 0  L 814 0L 814 0  L 813 0L 813 0  L 812 0L 812 0  L 811 0L 811 0  L 810 0L 810 0  L 809 0L 809 0  L 808 0L 808 0  L 807 0L 807 0  L 806 0L 806 0  L 805 0L 805 0  L 804 0L 804 0  L 803 0L 803 0  L 802 0L 802 0  L 801 0L 801 0  L 800 0L 800 0  L 799 0L 799 0  L 798 0L 798 0  L 797 0L 797 0  L 796 0L 796 0  L 795 0L 795 0  L 794 0L 794 0  L 793 0L 793 0  L 792 0"/> </g> </svg>
