<svg width="800" height="800"    xmlns:xlink="http://www.w3.org/1999/xlink" style="stroke:black; stroke-opacity:1; stroke-width:1;"  xmlns="http://www.w3.org/2000/svg"> <defs id = "genericDefs"/>
                                        <g> <path style = "fill:none;" d = "M 433.8169 24.06015  L 435.4178 24.06015M 293.7469 32.0802  L 472.2361 32.0802M 161.2806 40.10025  L 176.4883 40.10025M 180.09 40.10025  L 185.6929 40.10025M 189.6949 40.10025  L 198.4993 40.10025M 225.7129 40.10025  L 552.2761 40.10025M 349.7749 42.10526  L 422.6113 42.10526M 142.8714 48.1203  L 629.5148 48.1203M 260.1301 50.12531  L 511.8559 50.12531M 86.04302 56.14035  L 673.5368 56.14035M 190.4953 58.14536  L 572.6864 58.14536M 272.1361 60.15037  L 500.6504 60.15037M 297.7489 62.15539  L 473.0365 62.15539M 73.63682 64.1604  L 698.7494 64.1604M 171.2857 66.16541  L 598.6994 66.16541M 243.3217 68.17043  L 524.2621 68.17043M 279.3397 70.17544  L 499.8499 70.17544M 73.63682 72.18045  L 698.3492 72.18045M 166.4832 74.18546  L 605.1026 74.18546M 247.7239 76.19048  L 532.6663 76.19048M 286.1431 78.19549  L 505.8529 78.19549M 73.63682 80.2005  L 685.943 80.2005M 184.0921 82.20551  L 588.6944 82.20551M 274.1371 84.21053  L 522.6614 84.21053M 281.3407 86.21554  L 500.2502 86.21554M 98.04903 88.22055  L 673.1366 88.22055M 254.9275 90.22556  L 543.8719 90.22556M 548.2741 90.22556  L 561.0806 90.22556M 259.3297 92.23058  L 539.4698 92.23058M 288.5443 94.23559  L 504.2521 94.23559M 98.44923 96.2406  L 111.2556 96.2406M 126.4632 96.2406  L 137.2686 96.2406M 156.4783 96.2406  L 642.7214 96.2406M 240.9205 98.24561  L 558.6793 98.24561M 242.5213 100.2506  L 556.2782 100.2506M 268.9345 102.2556  L 507.0536 102.2556M 111.2556 104.2607  L 136.068 104.2607M 174.4872 104.2607  L 211.3057 104.2607M 222.1111 104.2607  L 619.5098 104.2607M 636.3182 104.2607  L 648.7244 104.2607M 224.9124 106.2657  L 572.6864 106.2657M 227.7139 108.2707  L 568.2842 108.2707M 259.3297 110.2757  L 511.4557 110.2757M 210.1051 112.2807  L 623.5118 112.2807M 211.7059 114.2857  L 585.8929 114.2857M 214.1071 116.2907  L 582.6914 116.2907M 247.7239 118.2957  L 528.6644 118.2957M 200.5002 120.3007  L 623.5118 120.3007M 201.7009 122.3058  L 597.4988 122.3058M 203.7019 124.3108  L 591.4957 124.3108M 232.5163 126.3158  L 533.4668 126.3158M 185.2926 128.3208  L 612.3062 128.3208M 622.7114 128.3208  L 636.3182 128.3208M 190.0951 130.3258  L 607.5038 130.3258M 193.6969 132.3308  L 598.2992 132.3308M 220.1101 134.3358  L 495.8479 134.3358M 508.6544 134.3358  L 525.8629 134.3358M 172.8864 136.3409  L 621.9109 136.3409M 624.3121 136.3409  L 647.5238 136.3409M 180.09 138.3459  L 619.1096 138.3459M 183.2917 140.3509  L 607.1036 140.3509M 611.5058 140.3509  L 615.1076 140.3509M 207.3037 142.3559  L 513.8569 142.3559M 166.4832 144.3609  L 631.1156 144.3609M 635.5178 144.3609  L 655.1276 144.3609M 170.0851 146.3659  L 628.7144 146.3659M 174.4872 148.3709  L 615.1076 148.3709M 195.6979 150.3759  L 519.8599 150.3759M 523.8619 150.3759  L 529.4648 150.3759M 159.6798 152.381  L 637.5188 152.381M 647.924 152.381  L 661.1306 152.381M 161.2806 154.386  L 636.7184 154.386M 162.4812 156.391  L 617.1086 156.391M 187.6939 158.396  L 521.4608 158.396M 522.2612 158.396  L 531.0656 158.396M 147.6738 160.401  L 649.5248 160.401M 652.7264 160.401  L 661.1306 160.401M 152.8764 162.406  L 645.1226 162.406M 156.078 164.411  L 626.7134 164.411M 178.0891 166.416  L 512.6564 166.416M 524.2621 166.416  L 531.4658 166.416M 144.072 168.4211  L 653.1266 168.4211M 660.3302 168.4211  L 673.5368 168.4211M 144.8724 170.4261  L 652.7264 170.4261M 150.075 172.4311  L 623.5118 172.4311M 169.2847 174.4361  L 498.6494 174.4361M 134.8674 176.4411  L 662.7314 176.4411M 673.5368 176.4411  L 683.1416 176.4411M 137.2686 178.4461  L 659.93 178.4461M 140.4702 180.4511  L 625.5128 180.4511M 161.6808 182.4561  L 474.2372 182.4561M 485.0425 182.4561  L 493.4467 182.4561M 494.6474 182.4561  L 498.2491 182.4561M 128.4642 184.4612  L 668.7344 184.4612M 673.5368 184.4612  L 687.1436 184.4612M 130.4652 186.4662  L 666.7334 186.4662M 134.067 188.4712  L 135.6678 188.4712M 141.6708 188.4712  L 626.3132 188.4712M 155.6778 190.4762  L 445.8229 190.4762M 449.0245 190.4762  L 461.4307 190.4762M 477.4387 190.4762  L 485.0425 190.4762M 122.061 192.4812  L 677.939 192.4812M 685.5428 192.4812  L 694.3472 192.4812M 124.4622 194.4862  L 673.937 194.4862M 127.2636 196.4912  L 625.913 196.4912M 148.074 198.4962  L 447.0235 198.4962M 116.4582 200.5013  L 695.5478 200.5013M 118.059 202.5063  L 679.94 202.5063M 121.6608 204.5113  L 125.6628 204.5113M 129.6648 204.5113  L 615.1076 204.5113M 629.1146 204.5113  L 635.1176 204.5113M 139.6698 206.5163  L 403.0015 206.5163M 404.2021 206.5163  L 408.6043 206.5163M 411.8059 206.5163  L 431.8159 206.5163M 110.4552 208.5213  L 689.945 208.5213M 692.3462 208.5213  L 695.5478 208.5213M 112.4562 210.5263  L 685.1426 210.5263M 115.2576 212.5313  L 595.0976 212.5313M 605.5027 212.5313  L 607.5038 212.5313M 611.5058 212.5313  L 616.7084 212.5313M 135.6678 214.5363  L 408.2041 214.5363M 410.6053 214.5363  L 423.0115 214.5363M 106.4532 216.5414  L 693.5468 216.5414M 108.4542 218.5464  L 689.945 218.5464M 111.6558 220.5514  L 114.8574 220.5514M 116.4582 220.5514  L 598.2992 220.5514M 129.6648 222.5564  L 380.1901 222.5564M 382.5913 222.5564  L 388.9945 222.5564M 100.8504 224.5614  L 699.5498 224.5614M 102.8514 226.5664  L 695.5478 226.5664M 106.053 228.5714  L 573.0865 228.5714M 577.4888 228.5714  L 581.4908 228.5714M 587.0936 228.5714  L 601.9009 228.5714M 608.7043 228.5714  L 609.905 228.5714M 127.2636 230.5764  L 368.1841 230.5764M 372.9865 230.5764  L 380.1901 230.5764M 97.24863 232.5815  L 703.1516 232.5815M 98.84943 234.5865  L 700.3502 234.5865M 107.6538 236.5915  L 560.6804 236.5915M 573.0865 236.5915  L 577.0886 236.5915M 120.4602 238.5965  L 360.1801 238.5965M 364.9825 238.5965  L 372.9865 238.5965M 94.04703 240.6015  L 706.3532 240.6015M 94.84743 242.6065  L 704.7524 242.6065M 96.44823 244.6115  L 99.24963 244.6115M 104.8524 244.6115  L 519.4597 244.6115M 531.8659 244.6115  L 540.6703 244.6115M 547.874 244.6115  L 558.6793 244.6115M 114.8574 246.6165  L 353.7769 246.6165M 361.7809 246.6165  L 363.3817 246.6165M 86.04302 248.6216  L 711.9561 248.6216M 90.44523 250.6266  L 708.7544 250.6266M 93.64683 252.6316  L 511.4557 252.6316M 517.4587 252.6316  L 520.2601 252.6316M 113.2566 254.6366  L 333.7669 254.6366M 339.3697 254.6366  L 342.1711 254.6366M 84.84242 256.6416  L 715.5578 256.6416M 86.44322 258.6466  L 711.9561 258.6466M 90.44523 260.6516  L 93.64683 260.6516M 94.04703 260.6516  L 493.847 260.6516M 105.2526 262.6566  L 344.5723 262.6566M 82.04102 264.6617  L 718.7594 264.6617M 83.24162 266.6667  L 714.7574 266.6667M 86.44322 268.6717  L 89.24463 268.6717M 92.44623 268.6717  L 451.4258 268.6717M 455.4277 268.6717  L 467.0335 268.6717M 472.6363 268.6717  L 485.4427 268.6717M 103.6518 270.6767  L 332.5663 270.6767M 78.43922 272.6817  L 722.7614 272.6817M 80.04002 274.6867  L 719.1596 274.6867M 84.04202 276.6917  L 441.8209 276.6917M 447.8239 276.6917  L 454.2271 276.6917M 459.83 276.6917  L 469.835 276.6917M 100.8504 278.6967  L 322.1611 278.6967M 75.23762 280.7018  L 724.7624 280.7018M 76.43822 282.7068  L 721.5608 282.7068M 78.03902 284.7118  L 437.0185 284.7118M 440.2201 284.7118  L 455.0275 284.7118M 457.8289 284.7118  L 464.2321 284.7118M 98.04903 286.7168  L 295.3477 286.7168M 303.3517 286.7168  L 309.7549 286.7168M 69.63482 288.7218  L 727.964 288.7218M 73.63682 290.7268  L 723.5618 290.7268M 78.03902 292.7318  L 426.2131 292.7318M 432.6163 292.7318  L 447.0235 292.7318M 452.2261 292.7318  L 457.0285 292.7318M 95.24763 294.7368  L 287.7439 294.7368M 298.1491 294.7368  L 302.9515 294.7368M 69.23462 296.7419  L 728.3643 296.7419M 71.23562 298.7469  L 726.3632 298.7469M 74.83743 300.7519  L 76.43822 300.7519M 82.04102 300.7519  L 429.4147 300.7519M 433.4167 300.7519  L 436.2181 300.7519M 91.24563 302.7569  L 285.3427 302.7569M 292.9465 302.7569  L 297.3487 302.7569M 66.03302 304.7619  L 731.5658 304.7619M 68.83442 306.7669  L 729.5648 306.7669M 72.03602 308.7719  L 73.23662 308.7719M 79.23962 308.7719  L 401.0005 308.7719M 409.0045 308.7719  L 424.2121 308.7719M 88.44423 310.7769  L 264.9325 310.7769M 267.3337 310.7769  L 288.5443 310.7769M 60.03002 312.782  L 734.3672 312.782M 66.03302 314.787  L 731.1656 314.787M 68.43422 316.792  L 74.43722 316.792M 78.03902 316.792  L 391.7959 316.792M 398.9995 316.792  L 409.4047 316.792M 414.2071 316.792  L 421.8109 316.792M 88.44423 318.797  L 258.9295 318.797M 262.1311 318.797  L 263.3317 318.797M 273.3367 318.797  L 278.9395 318.797M 283.7419 318.797  L 294.5473 318.797M 60.83041 320.802  L 736.7684 320.802M 64.03202 322.807  L 733.1666 322.807M 68.83442 324.812  L 386.5933 324.812M 388.9945 324.812  L 401.4007 324.812M 84.04202 326.817  L 272.5363 326.817M 60.43022 328.8221  L 737.5688 328.8221M 742.7714 328.8221  L 749.1746 328.8221M 62.43122 330.8271  L 735.1676 330.8271M 65.63282 332.8321  L 389.3947 332.8321M 394.9975 332.8321  L 400.6003 332.8321M 82.84142 334.8371  L 246.1231 334.8371M 265.7329 334.8371  L 268.9345 334.8371M 57.22862 336.8421  L 740.3702 336.8421M 60.83041 338.8471  L 736.3682 338.8471M 64.43221 340.8521  L 68.43422 340.8521M 69.23462 340.8521  L 385.7929 340.8521M 405.4027 340.8521  L 407.0035 340.8521M 80.44022 342.8571  L 239.3197 342.8571M 248.9245 342.8571  L 260.5303 342.8571M 56.82841 344.8622  L 740.7704 344.8622M 60.03002 346.8672  L 737.969 346.8672M 62.43122 348.8722  L 66.83342 348.8722M 69.63482 348.8722  L 356.1781 348.8722M 356.5783 348.8722  L 361.7809 348.8722M 367.7839 348.8722  L 374.9875 348.8722M 78.83942 350.8772  L 240.5203 350.8772M 56.42822 352.8822  L 740.3702 352.8822M 58.42922 354.8872  L 739.1696 354.8872M 61.63081 356.8922  L 64.83242 356.8922M 67.63382 356.8922  L 348.9745 356.8922M 363.7819 356.8922  L 366.9835 356.8922M 78.83942 358.8972  L 221.3107 358.8972M 233.7169 358.8972  L 241.3207 358.8972M 54.02702 360.9023  L 743.5718 360.9023M 57.22862 362.9073  L 739.5698 362.9073M 61.23062 364.9123  L 64.03202 364.9123M 67.63382 364.9123  L 341.7709 364.9123M 348.1741 364.9123  L 359.7799 364.9123M 76.03802 366.9173  L 221.7109 366.9173M 232.1161 366.9173  L 236.1181 366.9173M 54.02702 368.9223  L 743.972 368.9223M 57.22862 370.9273  L 741.1706 370.9273M 59.62981 372.9323  L 63.23162 372.9323M 66.83342 372.9323  L 339.3697 372.9323M 76.03802 374.9373  L 214.5073 374.9373M 218.1091 374.9373  L 219.7099 374.9373M 53.22662 376.9424  L 743.972 376.9424M 56.82841 378.9474  L 741.971 378.9474M 59.22962 380.9524  L 61.63081 380.9524M 66.43322 380.9524  L 324.1621 380.9524M 330.9655 380.9524  L 335.7679 380.9524M 76.03802 382.9574  L 204.9025 382.9574M 53.22662 384.9624  L 745.5728 384.9624M 55.22762 386.9674  L 742.3712 386.9674M 59.22962 388.9724  L 60.83041 388.9724M 64.03202 388.9724  L 311.3557 388.9724M 317.7589 388.9724  L 320.1601 388.9724M 76.03802 390.9774  L 203.7019 390.9774M 53.22662 392.9825  L 745.973 392.9825M 55.22762 394.9875  L 742.3712 394.9875M 59.22962 396.9925  L 60.83041 396.9925M 64.03202 396.9925  L 313.3567 396.9925M 76.03802 398.9975  L 192.0961 398.9975M 47.62381 401.0025  L 745.973 401.0025M 54.82742 403.0075  L 660.3302 403.0075M 663.932 403.0075  L 742.3712 403.0075M 58.82941 405.0125  L 61.23062 405.0125M 65.63282 405.0125  L 300.1501 405.0125M 76.03802 407.0176  L 191.6959 407.0176M 47.62381 409.0226  L 745.973 409.0226M 54.82742 411.0276  L 580.2902 411.0276M 582.6914 411.0276  L 626.3132 411.0276M 630.3152 411.0276  L 654.3272 411.0276M 663.5318 411.0276  L 742.3712 411.0276M 58.82941 413.0326  L 61.23062 413.0326M 65.63282 413.0326  L 297.3487 413.0326M 76.03802 415.0376  L 182.4913 415.0376M 47.62381 417.0426  L 745.973 417.0426M 54.82742 419.0476  L 594.2972 419.0476M 599.4998 419.0476  L 619.5098 419.0476M 627.914 419.0476  L 644.3222 419.0476M 649.5248 419.0476  L 650.7253 419.0476M 659.1296 419.0476  L 742.3712 419.0476M 58.82941 421.0526  L 61.23062 421.0526M 65.63282 421.0526  L 283.3417 421.0526M 284.9425 421.0526  L 291.7459 421.0526M 76.03802 423.0576  L 174.8875 423.0576M 53.22662 425.0627  L 743.972 425.0627M 55.22762 427.0677  L 555.4778 427.0677M 560.6804 427.0677  L 566.6833 427.0677M 570.6854 427.0677  L 598.6994 427.0677M 601.9009 427.0677  L 610.3052 427.0677M 631.1156 427.0677  L 645.5228 427.0677M 660.7304 427.0677  L 741.5708 427.0677M 59.22962 429.0727  L 60.03002 429.0727M 65.63282 429.0727  L 270.5353 429.0727M 273.3367 429.0727  L 283.3417 429.0727M 76.03802 431.0777  L 165.6828 431.0777M 53.22662 433.0827  L 743.972 433.0827M 55.22762 435.0877  L 511.8559 435.0877M 514.2571 435.0877  L 526.2631 435.0877M 533.4668 435.0877  L 539.0696 435.0877M 545.4728 435.0877  L 557.0786 435.0877M 660.7304 435.0877  L 741.5708 435.0877M 59.22962 437.0927  L 60.43022 437.0927M 64.43221 437.0927  L 261.3307 437.0927M 267.7339 437.0927  L 276.1381 437.0927M 76.43822 439.0977  L 166.8834 439.0977M 53.22662 441.1028  L 743.972 441.1028M 56.42822 443.1078  L 512.2562 443.1078M 513.4567 443.1078  L 520.6603 443.1078M 535.0676 443.1078  L 545.0726 443.1078M 552.6763 443.1078  L 557.0786 443.1078M 663.932 443.1078  L 740.3702 443.1078M 59.62981 445.1128  L 60.83041 445.1128M 66.43322 445.1128  L 268.5343 445.1128M 76.43822 447.1178  L 163.6818 447.1178M 54.02702 449.1228  L 743.5718 449.1228M 57.22862 451.1278  L 495.4477 451.1278M 497.4487 451.1278  L 509.0546 451.1278M 677.939 451.1278  L 738.7694 451.1278M 66.83342 453.1328  L 267.7339 453.1328M 76.43822 455.1378  L 154.4772 455.1378M 54.02702 457.1429  L 740.7704 457.1429M 57.22862 459.1479  L 500.6504 459.1479M 505.8529 459.1479  L 507.0536 459.1479M 677.939 459.1479  L 738.3692 459.1479M 62.43122 461.1529  L 64.03202 461.1529M 67.63382 461.1529  L 248.9245 461.1529M 78.83942 463.1579  L 156.4783 463.1579M 56.42822 465.1629  L 740.7704 465.1629M 58.82941 467.1679  L 483.4417 467.1679M 488.6443 467.1679  L 496.2481 467.1679M 677.939 467.1679  L 682.3412 467.1679M 686.7434 467.1679  L 736.3682 467.1679M 62.43122 469.1729  L 64.03202 469.1729M 67.63382 469.1729  L 248.1241 469.1729M 78.83942 471.1779  L 150.8754 471.1779M 158.8794 471.1779  L 160.08 471.1779M 56.82841 473.183  L 739.97 473.183M 60.43022 475.188  L 473.0365 475.188M 693.5468 475.188  L 735.1676 475.188M 65.23262 477.193  L 244.9225 477.193M 78.83942 479.198  L 148.8744 479.198M 59.62981 481.203  L 737.5688 481.203M 61.63081 483.208  L 458.2291 483.208M 460.2301 483.208  L 465.0325 483.208M 690.3452 483.208  L 733.5668 483.208M 65.63282 485.213  L 226.5133 485.213M 82.44122 487.218  L 144.8724 487.218M 60.43022 489.2231  L 736.3682 489.2231M 64.03202 491.2281  L 425.0125 491.2281M 425.4127 491.2281  L 447.4237 491.2281M 690.3452 491.2281  L 708.3542 491.2281M 712.3562 491.2281  L 731.5658 491.2281M 68.83442 493.2331  L 213.7068 493.2331M 223.7119 493.2331  L 232.1161 493.2331M 82.84142 495.2381  L 142.8714 495.2381M 61.23062 497.2431  L 734.3672 497.2431M 66.03302 499.2481  L 428.2141 499.2481M 434.2171 499.2481  L 435.4178 499.2481M 687.944 499.2481  L 728.7644 499.2481M 68.83442 501.2531  L 214.5073 501.2531M 85.24262 503.2581  L 133.2666 503.2581M 63.23162 505.2631  L 733.967 505.2631M 68.03402 507.2682  L 418.6093 507.2682M 420.6103 507.2682  L 431.0155 507.2682M 686.7434 507.2682  L 695.5478 507.2682M 699.5498 507.2682  L 705.953 507.2682M 707.954 507.2682  L 710.3552 507.2682M 713.957 507.2682  L 725.963 507.2682M 72.03602 509.2732  L 73.23662 509.2732M 76.43822 509.2732  L 210.9055 509.2732M 87.24362 511.2782  L 134.067 511.2782M 66.03302 513.2832  L 731.1656 513.2832M 70.83542 515.2882  L 407.4037 515.2882M 412.2061 515.2882  L 422.6113 515.2882M 686.7434 515.2882  L 688.3442 515.2882M 693.5468 515.2882  L 694.3472 515.2882M 699.5498 515.2882  L 700.7504 515.2882M 710.7554 515.2882  L 723.5618 515.2882M 74.83743 517.2932  L 201.7009 517.2932M 208.1041 517.2932  L 220.1101 517.2932M 89.64483 519.2982  L 135.2676 519.2982M 69.23462 521.3033  L 727.964 521.3033M 72.83643 523.3083  L 399.7999 523.3083M 689.5448 523.3083  L 692.3462 523.3083M 695.1476 523.3083  L 698.7494 523.3083M 716.7584 523.3083  L 722.3612 523.3083M 78.03902 525.3133  L 205.3027 525.3133M 94.44723 527.3183  L 136.4682 527.3183M 60.83041 529.3233  L 66.43322 529.3233M 72.43622 529.3233  L 725.1626 529.3233M 76.03802 531.3283  L 394.5973 531.3283M 415.4077 531.3283  L 419.4097 531.3283M 690.3452 531.3283  L 694.3472 531.3283M 713.5568 531.3283  L 717.959 531.3283M 81.24062 533.3334  L 204.9025 533.3334M 98.44923 535.3384  L 129.2646 535.3384M 75.23762 537.3434  L 721.961 537.3434M 79.63982 539.3484  L 382.5913 539.3484M 386.9935 539.3484  L 400.6003 539.3484M 687.1436 539.3484  L 694.3472 539.3484M 699.5498 539.3484  L 705.5528 539.3484M 710.3552 539.3484  L 714.3572 539.3484M 84.44222 541.3534  L 85.64283 541.3534M 88.84442 541.3534  L 200.5002 541.3534M 100.05 543.3584  L 120.8604 543.3584M 78.43922 545.3634  L 718.3592 545.3634M 82.04102 547.3684  L 375.3877 547.3684M 381.3907 547.3684  L 387.7939 547.3684M 395.7979 547.3684  L 398.5993 547.3684M 707.5538 547.3684  L 710.3552 547.3684M 92.04603 549.3734  L 192.0961 549.3734M 107.2536 551.3784  L 124.062 551.3784M 81.64082 553.3834  L 715.1576 553.3834M 86.04302 555.3884  L 378.9895 555.3884M 705.1526 555.3884  L 707.1536 555.3884M 90.44523 557.3935  L 92.44623 557.3935M 94.84743 557.3935  L 192.8965 557.3935M 118.059 559.3985  L 124.062 559.3985M 85.24262 561.4035  L 711.9561 561.4035M 90.04502 563.4085  L 373.7869 563.4085M 701.951 563.4085  L 703.5518 563.4085M 93.64683 565.4135  L 194.4973 565.4135M 90.84542 569.4235  L 705.953 569.4235M 94.04703 571.4286  L 366.5833 571.4286M 99.24963 573.4336  L 183.6918 573.4336M 94.04703 577.4436  L 702.7514 577.4436M 98.04903 579.4486  L 356.9785 579.4486M 692.7464 579.4486  L 694.7474 579.4486M 102.8514 581.4536  L 178.8895 581.4536M 97.64883 585.4637  L 699.5498 585.4637M 102.051 587.4687  L 347.7739 587.4687M 686.7434 587.4687  L 691.1456 587.4687M 109.2546 589.4737  L 176.088 589.4737M 103.2516 593.4837  L 691.1456 593.4837M 107.6538 595.4888  L 344.9725 595.4888M 682.7414 595.4888  L 684.7424 595.4888M 114.8574 597.4938  L 179.2897 597.4938M 108.8544 601.5038  L 687.1436 601.5038M 112.8564 603.5088  L 334.9675 603.5088M 118.4592 605.5138  L 123.6618 605.5138M 126.063 605.5138  L 178.8895 605.5138M 109.6548 609.5238  L 681.1406 609.5238M 118.8594 611.5288  L 336.1681 611.5288M 136.068 613.5338  L 178.8895 613.5338M 119.2596 617.5438  L 677.1386 617.5438M 124.4622 619.5488  L 320.9605 619.5488M 322.9615 619.5488  L 334.1671 619.5488M 140.07 621.5539  L 178.8895 621.5539M 125.2626 625.5639  L 668.7344 625.5639M 131.2656 627.5689  L 319.7599 627.5689M 145.6729 629.5739  L 148.8744 629.5739M 154.077 629.5739  L 160.4803 629.5739M 131.6658 633.584  L 664.7324 633.584M 137.6688 635.589  L 322.1611 635.589M 140.8704 641.604  L 655.928 641.604M 144.4722 643.609  L 320.9605 643.609M 323.3617 643.609  L 328.9645 643.609M 334.1671 643.609  L 334.9675 643.609M 146.073 649.6241  L 649.1246 649.6241M 152.8764 651.6291  L 316.9585 651.6291M 154.4772 657.6441  L 640.7203 657.6441M 160.8804 659.6491  L 319.7599 659.6491M 163.2816 665.6641  L 631.1156 665.6641M 169.2847 667.6691  L 328.1641 667.6691M 172.8864 673.6842  L 624.7124 673.6842M 179.6898 675.6892  L 323.7619 675.6892M 184.4922 681.7042  L 612.7064 681.7042M 190.0951 683.7093  L 320.1601 683.7093M 191.2957 689.7243  L 605.1026 689.7243M 201.3007 691.7293  L 321.3607 691.7293M 204.5022 697.7444  L 590.6954 697.7444M 213.7068 699.7494  L 317.7589 699.7494M 324.9625 699.7494  L 328.5643 699.7494M 216.5083 705.7644  L 579.4897 705.7644M 226.9135 707.7695  L 333.3667 707.7695M 232.1161 713.7845  L 563.0815 713.7845M 241.7209 715.7895  L 347.3737 715.7895M 223.7119 721.8045  L 234.9175 721.8045M 248.5243 721.8045  L 547.0735 721.8045M 261.7309 723.8095  L 343.3717 723.8095M 266.1331 729.8245  L 530.6653 729.8245M 280.9405 731.8295  L 338.9695 731.8295M 290.5453 737.8446  L 509.0546 737.8446M 286.1431 745.8647  L 295.3477 745.8647M 313.3567 745.8647  L 483.4417 745.8647M 372.5863 753.8847  L 427.8139 753.8847"/> </g> </svg>
